<?xml version="1.0" encoding="UTF-8"?>
<svg width="112px" height="112px" viewBox="0 0 112 112" version="1.1" xmlns="http://www.w3.org/2000/svg" xmlns:xlink="http://www.w3.org/1999/xlink">
    <title>dark</title>
    <g id="App" stroke="none" stroke-width="1" fill="none" fill-rule="evenodd">
        <g id="dark">
            <rect id="Rectangle-Copy-2" fill="#242324" x="0" y="0" width="112" height="112"></rect>
            <path d="M44.8501995,36.3824188 C44.8501995,53.3748671 58.6254169,67.1499681 75.6180088,67.1499681 C77.4840647,67.1499681 79.8897612,66.7987905 82.8350982,66.0964353 L82.8351007,66.0964457 C83.9083702,65.8405102 84.9859038,66.5030903 85.2418393,67.5763598 C85.3525281,68.0405347 85.2934155,68.5289987 85.0751972,68.9533702 C83.0975457,72.7993309 81.2602129,75.5973406 79.563199,77.3473994 C73.7907571,83.3002752 65.7076003,87 56.7603192,87 C39.2195793,87 25,72.7805408 25,55.239949 C25,45.8117678 29.1082239,37.3431057 35.6322268,31.526393 C37.234818,30.0975444 39.7173221,28.5408116 43.079739,26.8561947 L43.0797378,26.8561924 C44.0662221,26.3619502 45.2665881,26.7609913 45.7608302,27.7474756 C45.9716407,28.1682436 46.0271411,28.6499259 45.9175477,29.1076114 C45.2059822,32.0792616 44.8501995,34.5041974 44.8501995,36.3824188 Z" id="Path-Copy" fill="#FFFFFF"></path>
        </g>
    </g>
</svg>