<?xml version="1.0" encoding="UTF-8"?>
<svg width="112px" height="112px" viewBox="0 0 112 112" version="1.1" xmlns="http://www.w3.org/2000/svg" xmlns:xlink="http://www.w3.org/1999/xlink">
    <title>light</title>
    <g id="App" stroke="none" stroke-width="1" fill="none" fill-rule="evenodd">
        <g id="light">
            <rect id="Rectangle-Copy" fill="#F5F5F5" x="0" y="0" width="112" height="112"></rect>
            <path d="M56,76.6666667 C57.4267356,76.6666667 58.5833333,77.8232644 58.5833333,79.25 L58.5833333,84.4166667 C58.5833333,85.8434023 57.4267356,87 56,87 C54.5732644,87 53.4166667,85.8434023 53.4166667,84.4166667 L53.4166667,79.25 C53.4166667,77.8232644 54.5732644,76.6666667 56,76.6666667 Z M74.2669252,70.6135401 L77.9203102,74.2669252 C78.9291646,75.2757796 78.9291646,76.9114558 77.9203102,77.9203102 C76.9114558,78.9291646 75.2757796,78.9291646 74.2669252,77.9203102 L70.6135401,74.2669252 C69.6046857,73.2580708 69.6046857,71.6223946 70.6135401,70.6135401 C71.6223946,69.6046857 73.2580708,69.6046857 74.2669252,70.6135401 Z M41.3864599,70.6135401 C42.3953143,71.6223946 42.3953143,73.2580708 41.3864599,74.2669252 L37.7330748,77.9203102 C36.7242204,78.9291646 35.0885442,78.9291646 34.0796898,77.9203102 C33.0708354,76.9114558 33.0708354,75.2757796 34.0796898,74.2669252 L37.7330748,70.6135401 C38.7419292,69.6046857 40.3776054,69.6046857 41.3864599,70.6135401 Z M56,40.5 C64.5604136,40.5 71.5,47.4395864 71.5,56 C71.5,64.5604136 64.5604136,71.5 56,71.5 C47.4395864,71.5 40.5,64.5604136 40.5,56 C40.5,47.4395864 47.4395864,40.5 56,40.5 Z M84.4166667,53.4166667 C85.8434023,53.4166667 87,54.5732644 87,56 C87,57.4267356 85.8434023,58.5833333 84.4166667,58.5833333 L79.25,58.5833333 C77.8232644,58.5833333 76.6666667,57.4267356 76.6666667,56 C76.6666667,54.5732644 77.8232644,53.4166667 79.25,53.4166667 L84.4166667,53.4166667 Z M32.75,53.4166667 C34.1767356,53.4166667 35.3333333,54.5732644 35.3333333,56 C35.3333333,57.4267356 34.1767356,58.5833333 32.75,58.5833333 L27.5833333,58.5833333 C26.1565977,58.5833333 25,57.4267356 25,56 C25,54.5732644 26.1565977,53.4166667 27.5833333,53.4166667 L32.75,53.4166667 Z M77.9203102,34.0796898 C78.9291646,35.0885442 78.9291646,36.7242204 77.9203102,37.7330748 L74.2669252,41.3864599 C73.2580708,42.3953143 71.6223946,42.3953143 70.6135401,41.3864599 C69.6046857,40.3776054 69.6046857,38.7419292 70.6135401,37.7330748 L74.2669252,34.0796898 C75.2757796,33.0708354 76.9114558,33.0708354 77.9203102,34.0796898 Z M37.7330748,34.0796898 L41.3864599,37.7330748 C42.3953143,38.7419292 42.3953143,40.3776054 41.3864599,41.3864599 C40.3776054,42.3953143 38.7419292,42.3953143 37.7330748,41.3864599 L34.0796898,37.7330748 C33.0708354,36.7242204 33.0708354,35.0885442 34.0796898,34.0796898 C35.0885442,33.0708354 36.7242204,33.0708354 37.7330748,34.0796898 Z M56,25 C57.4267356,25 58.5833333,26.1565977 58.5833333,27.5833333 L58.5833333,32.75 C58.5833333,34.1767356 57.4267356,35.3333333 56,35.3333333 C54.5732644,35.3333333 53.4166667,34.1767356 53.4166667,32.75 L53.4166667,27.5833333 C53.4166667,26.1565977 54.5732644,25 56,25 Z" id="Combined-Shape" fill="#000000"></path>
        </g>
    </g>
</svg>