<?xml version="1.0" encoding="UTF-8"?>
<svg width="112px" height="112px" viewBox="0 0 112 112" version="1.1" xmlns="http://www.w3.org/2000/svg" xmlns:xlink="http://www.w3.org/1999/xlink">
    <title>system</title>
    <defs>
        <rect id="path-1" x="0" y="0" width="56" height="112"></rect>
        <rect id="path-3" x="0" y="0" width="56" height="112"></rect>
    </defs>
    <g id="App" stroke="none" stroke-width="1" fill="none" fill-rule="evenodd">
        <g id="Group-6-Copy">
            <g id="Group-2-Copy">
                <mask id="mask-2" fill="white">
                    <use xlink:href="#path-1"></use>
                </mask>
                <use id="Mask" fill="#F5F5F5" xlink:href="#path-1"></use>
                <path d="M35.6854947,45.6238839 C36.0185476,45.832519 36.2999702,46.1139416 36.5086053,46.4469946 L43.2129271,57.1493865 C43.9752268,58.3662776 43.6067076,59.9707287 42.3898165,60.7330283 C41.9760895,60.9922002 41.4977518,61.1296521 41.0095509,61.1296521 L35.9213171,61.1299559 C38.211122,70.1366563 46.3906861,76.8 56.1301235,76.8 C60.6711984,76.8 64.9856626,75.350753 68.5517092,72.7065801 C69.7068615,71.8500511 71.3392425,72.0899923 72.1977341,73.2425038 C73.0562257,74.3950153 72.8157347,76.0236644 71.6605824,76.8801934 C67.203176,80.1852969 61.8007351,82 56.1301235,82 C43.4978617,82 32.9648966,73.0323904 30.577646,61.129766 L27.6009072,61.1296521 C26.1649668,61.1296521 25.0009072,59.9655924 25.0009072,58.5296521 C25.0009072,58.0414512 25.1383591,57.5631135 25.3975309,57.1493865 L32.1018528,46.4469946 C32.8641525,45.2301035 34.4686036,44.8615843 35.6854947,45.6238839 Z M56.1301235,30 C68.7124021,30 79.2119641,38.8967842 81.6538812,50.7290839 L84.398744,50.7296521 C84.8869449,50.7296521 85.3652826,50.867104 85.7790096,51.1262758 C86.9959007,51.8885755 87.3644199,53.4930266 86.6021202,54.7099177 L86.6021202,54.7099177 L79.8977984,65.4123096 C79.6891633,65.7453625 79.4077407,66.0267852 79.0746877,66.2354202 C77.8577967,66.9977199 76.2533455,66.6292007 75.4910459,65.4123096 L75.4910459,65.4123096 L68.786724,54.7099177 C68.5275522,54.2961907 68.3901003,53.8178529 68.3901003,53.3296521 C68.3901003,51.8937117 69.5541599,50.7296521 70.9901003,50.7296521 L70.9901003,50.7296521 L76.3026417,50.7293863 C73.9638063,41.7940559 65.8187915,35.2 56.1301235,35.2 C51.1934437,35.2 46.5280277,36.9142674 42.8112849,39.9973797 C41.7045971,40.9153994 40.0615421,40.7645046 39.1414189,39.6603467 C38.2212957,38.5561889 38.3725362,36.9168901 39.4792241,35.9988704 C44.1234997,32.1463512 49.964841,30 56.1301235,30 Z" id="Combined-Shape" fill="#000000" mask="url(#mask-2)"></path>
            </g>
            <g id="Group-2-Copy-2" transform="translate(56.000000, 0.000000)">
                <mask id="mask-4" fill="white">
                    <use xlink:href="#path-3"></use>
                </mask>
                <use id="Mask" fill="#242324" xlink:href="#path-3"></use>
                <path d="M-20.3145053,45.6238839 C-19.9814524,45.832519 -19.7000298,46.1139416 -19.4913947,46.4469946 L-12.7870729,57.1493865 C-12.0247732,58.3662776 -12.3932924,59.9707287 -13.6101835,60.7330283 C-14.0239105,60.9922002 -14.5022482,61.1296521 -14.9904491,61.1296521 L-20.0786829,61.1299559 C-17.788878,70.1366563 -9.60931394,76.8 0.130123467,76.8 C4.67119839,76.8 8.98566262,75.350753 12.5517092,72.7065801 C13.7068615,71.8500511 15.3392425,72.0899923 16.1977341,73.2425038 C17.0562257,74.3950153 16.8157347,76.0236644 15.6605824,76.8801934 C11.203176,80.1852969 5.80073511,82 0.130123467,82 C-12.5021383,82 -23.0351034,73.0323904 -25.422354,61.129766 L-28.3990928,61.1296521 C-29.8350332,61.1296521 -30.9990928,59.9655924 -30.9990928,58.5296521 C-30.9990928,58.0414512 -30.8616409,57.5631135 -30.6024691,57.1493865 L-23.8981472,46.4469946 C-23.1358475,45.2301035 -21.5313964,44.8615843 -20.3145053,45.6238839 Z M0.130123467,30 C12.7124021,30 23.2119641,38.8967842 25.6538812,50.7290839 L28.398744,50.7296521 C28.8869449,50.7296521 29.3652826,50.867104 29.7790096,51.1262758 C30.9959007,51.8885755 31.3644199,53.4930266 30.6021202,54.7099177 L30.6021202,54.7099177 L23.8977984,65.4123096 C23.6891633,65.7453625 23.4077407,66.0267852 23.0746877,66.2354202 C21.8577967,66.9977199 20.2533455,66.6292007 19.4910459,65.4123096 L19.4910459,65.4123096 L12.786724,54.7099177 C12.5275522,54.2961907 12.3901003,53.8178529 12.3901003,53.3296521 C12.3901003,51.8937117 13.5541599,50.7296521 14.9901003,50.7296521 L14.9901003,50.7296521 L20.3026417,50.7293863 C17.9638063,41.7940559 9.81879151,35.2 0.130123467,35.2 C-4.80655632,35.2 -9.47197226,36.9142674 -13.1887151,39.9973797 C-14.2954029,40.9153994 -15.9384579,40.7645046 -16.8585811,39.6603467 C-17.7787043,38.5561889 -17.6274638,36.9168901 -16.5207759,35.9988704 C-11.8765003,32.1463512 -6.03515903,30 0.130123467,30 Z" id="Combined-Shape" fill="#FFFFFF" mask="url(#mask-4)"></path>
            </g>
        </g>
    </g>
</svg>