<?xml version="1.0" encoding="UTF-8"?>
<svg width="21px" height="21px" viewBox="0 0 21 21" version="1.1" xmlns="http://www.w3.org/2000/svg" xmlns:xlink="http://www.w3.org/1999/xlink">
    <!-- Generator: Sketch 52.5 (67469) - http://www.bohemiancoding.com/sketch -->
    <title>Combined Shape</title>
    <desc>Created with Sketch.</desc>
    <g id="Page-1" stroke="none" stroke-width="1" fill="none" fill-rule="evenodd">
        <g id="iPhone-XR-Copy-25" transform="translate(-373.000000, -67.000000)" fill="#FFFFFF">
            <g id="Group-2">
                <path d="M385.384776,75.6152237 L394.384776,75.6152237 C395.489346,75.6152237 396.384776,76.5106542 396.384776,77.6152237 C396.384776,78.7197932 395.489346,79.6152237 394.384776,79.6152237 L385.384776,79.6152237 L385.384776,88.6152237 C385.384776,89.7197932 384.489346,90.6152237 383.384776,90.6152237 C382.280207,90.6152237 381.384776,89.7197932 381.384776,88.6152237 L381.384776,79.6152237 L372.384776,79.6152237 C371.280207,79.6152237 370.384776,78.7197932 370.384776,77.6152237 C370.384776,76.5106542 371.280207,75.6152237 372.384776,75.6152237 L381.384776,75.6152237 L381.384776,66.6152237 C381.384776,65.5106542 382.280207,64.6152237 383.384776,64.6152237 C384.489346,64.6152237 385.384776,65.5106542 385.384776,66.6152237 L385.384776,75.6152237 Z" id="Combined-Shape" transform="translate(383.384776, 77.615224) rotate(-315.000000) translate(-383.384776, -77.615224) "></path>
            </g>
        </g>
    </g>
</svg>