<?xml version="1.0" encoding="UTF-8"?>
<svg width="100px" height="100px" viewBox="0 0 100 100" version="1.1" xmlns="http://www.w3.org/2000/svg" xmlns:xlink="http://www.w3.org/1999/xlink">
    <!-- Generator: Sketch 52.5 (67469) - http://www.bohemiancoding.com/sketch -->
    <title>dragon</title>
    <desc>Created with Sketch.</desc>
    <g id="dragon" stroke="none" stroke-width="1" fill="none" fill-rule="evenodd">
        <path d="M10,58.3783919 C14.1135878,46.0513711 17.4054134,38.3449038 19.875477,35.2589899 C23.5805723,30.630119 45.4453281,18.8980392 48.2299951,14.1228143 C50.0864398,10.939331 51.3564002,6.23172628 52.0398764,0 C56.4647957,10.4197239 56.4647957,17.2802727 52.0398764,20.5816462 C70.4447848,20.5816462 90,36.7704326 90,61.0349277 C90,85.2994227 72.303821,97.7566471 61.1519105,97.7566471 C50,97.7566471 40.6894931,87.5081978 42.2065211,81.1741516 C52.0398764,84.8403178 67.7226641,75.72495 67.7226641,64.4835529 C67.7226641,53.2421557 59.1035214,46.8774136 57.8437588,45.5347986 C57.003917,44.639722 56.5839961,42.0029208 56.5839961,37.624395 C56.4518688,41.6167744 55.3215043,44.2535757 53.1929026,45.5347986 C51.0643009,46.8160216 36.6666667,51.0972194 10,58.3783919 Z M25.0613754,47.0001974 C29.3647598,44.9581959 32.0420104,43.331532 33.0931273,42.1202059 C35.5610183,39.2761635 35.0041866,35.6907495 35.0041866,34.364803 C35.0041866,32.1917416 32.2904506,33.6337848 26.8629788,38.6909325 L25.0613754,47.0001974 Z M51.4829631,100 C27.6830761,98.3882235 14.989629,88.0641871 13.4026219,69.0278907 C25.5864464,66.4240719 34.4109039,63.371825 39.8759941,59.8711501 C37.4190988,67.1890629 36.4953237,74.6620192 37.1046687,82.290019 C37.7140137,89.9180188 42.5067785,95.8213458 51.4829631,100 Z" id="Path-23" fill="#FFFFFF"></path>
    </g>
</svg>