<?xml version="1.0" encoding="UTF-8"?>
<svg width="100px" height="100px" viewBox="0 0 100 100" version="1.1" xmlns="http://www.w3.org/2000/svg" xmlns:xlink="http://www.w3.org/1999/xlink">
    <!-- Generator: Sketch 52.5 (67469) - http://www.bohemiancoding.com/sketch -->
    <title>ice</title>
    <desc>Created with Sketch.</desc>
    <g id="ice" stroke="none" stroke-width="1" fill="none" fill-rule="evenodd">
        <path d="M53,46 L53,19.890293 L77,6 L77,32.9118712 L53,46 Z M53,55 L77,68.0881288 L77,95 L53,81.109707 L53,55 Z M48,46 L24,32.9118712 L24,6 L48,19.890293 L48,46 Z M48,55 L48,81.109707 L24,95 L24,68.0881288 L48,55 Z M46.6784403,50.5543163 L23.9560394,63.6238533 L1.42108547e-14,50.0983713 L23.4204974,37.0084906 L46.6784403,50.5543163 Z M99.6784403,50.5543163 L76.9560394,63.6238533 L53,50.0983713 L76.7355679,37.0084906 L99.6784403,50.5543163 Z" id="Combined-Shape" fill="#FFFFFF"></path>
    </g>
</svg>