<?xml version="1.0" encoding="UTF-8"?>
<svg width="32px" height="32px" viewBox="0 0 32 32" version="1.1" xmlns="http://www.w3.org/2000/svg" xmlns:xlink="http://www.w3.org/1999/xlink">
    <title>favicon</title>
    <g id="favicon" stroke="none" stroke-width="1" fill="none" fill-rule="evenodd">
        <path d="M18.5928947,0.557458154 L28.9071053,6.476996 C30.202193,7.22027354 31,8.59390708 31,10.0804622 L31,21.9195378 C31,23.4060929 30.202193,24.7797265 28.9071053,25.523004 L18.5928947,31.4425418 C18.1545759,31.6941021 17.6818328,31.8605224 17.197967,31.9418029 L17.1976316,31.9502098 L17.1360958,31.9517232 C16.7145849,32.0160923 16.2854151,32.0160923 15.8639042,31.9517232 L15.8023684,31.9502098 C15.3181672,31.8605224 14.8454241,31.6941021 14.4071053,31.4425418 L4.09289473,25.523004 C2.79780696,24.7797265 2,23.4060929 2,21.9195378 L2,10.0804622 C2,8.59390708 2.79780696,7.22027354 4.09289473,6.476996 L14.4071053,0.557458154 C15.702193,-0.185819385 17.297807,-0.185819385 18.5928947,0.557458154 Z M3.4014471,9.89560919 L3.39526315,10.0804622 L3.39526315,21.9195378 L3.4014471,22.1043908 C3.42188099,22.4092693 3.49255071,22.7047805 3.60742898,22.9805469 L7.12170227,20.9577978 C7.45514347,20.7658997 7.88194479,20.8790373 8.07498969,21.2104977 C8.2680346,21.5419581 8.15422091,21.9662241 7.82077971,22.1581223 L4.45492796,24.0954731 C4.51218035,24.1404641 4.57142336,24.1833867 4.63257425,24.2240985 L4.7905263,24.3218486 L15.1047368,30.2413865 L15.2799678,30.3338832 C15.4487653,30.4154862 15.6238323,30.4791977 15.8024195,30.5250175 L15.802,17.564 L12.0470206,19.7258859 C11.7135794,19.9177841 11.2867781,19.8046465 11.0937332,19.473186 C10.9006883,19.1417256 11.014502,18.7174597 11.3479432,18.5255615 L14.855,16.507 L3.44212197,9.57390369 C3.42237348,9.67963824 3.40872443,9.78702966 3.4014471,9.89560919 Z M29.557878,9.57390369 L17.863,16.677 L21.0757796,18.5255615 C21.378908,18.7000144 21.500526,19.0665067 21.3750957,19.3807311 L21.3299896,19.473186 C21.1369447,19.8046465 20.7101434,19.9177841 20.3767022,19.7258859 L20.3767022,19.7258859 L17.197,17.896 L17.1975805,30.5250175 C17.3761677,30.4791977 17.5512347,30.4154862 17.7200322,30.3338832 L17.8952632,30.2413865 L28.2094737,24.3218486 L28.283,24.276 L24.6029431,22.1581223 C24.2998148,21.9836694 24.1781967,21.617177 24.3036271,21.3029527 L24.3487331,21.2104977 C24.541778,20.8790373 24.9685794,20.7658997 25.3020206,20.9577978 L25.3020206,20.9577978 L29.2682702,23.2400425 C29.4568192,22.8938158 29.5715499,22.5072824 29.5985529,22.1043908 L29.6047368,21.9195378 L29.6047368,10.0804622 L29.5985529,9.89560919 C29.5912756,9.78702966 29.5776265,9.67963824 29.557878,9.57390369 Z M17.1978913,1.4750622 L17.1976316,6.29117662 C17.1976316,6.67417912 16.8852913,6.984664 16.5,6.984664 C16.1147087,6.984664 15.8023684,6.67417912 15.8023684,6.29117662 L15.8023684,6.29117662 L15.8021087,1.4750622 C15.6281045,1.51972746 15.4574439,1.58137856 15.29267,1.6600155 L15.1047368,1.75861354 L4.7905263,7.67815138 L4.63257425,7.77590152 C4.40697427,7.92609667 4.20734148,8.10638269 4.03783029,8.30960666 L15.802,15.457 L15.8023684,11.1455883 C15.8023684,10.7945027 16.064821,10.504352 16.4053355,10.4584316 L16.5,10.4521009 C16.8852913,10.4521009 17.1976316,10.7625858 17.1976316,11.1455883 L17.1976316,11.1455883 L17.197,15.456 L28.9621697,8.30960666 C28.7926585,8.10638269 28.5930257,7.92609667 28.3674257,7.77590152 L28.2094737,7.67815138 L17.8952632,1.75861354 L17.70733,1.6600155 C17.5425561,1.58137856 17.3718955,1.51972746 17.1978913,1.4750622 Z" id="Combined-Shape" fill="#FAC000"></path>
    </g>
</svg>