<svg xmlns="http://www.w3.org/2000/svg" width="152" height="110" viewBox="0 0 152 110">
  <g fill="none" fill-rule="evenodd" transform="translate(46)">
    <path stroke="#665B49" stroke-width="4" d="M49.8968028,23 C54.9520626,23 59,26.7904828 59,31.3945753 L59,78.6054247 C59,83.2144687 54.9552139,87 49.8968028,87 L11.1031972,87 C6.04793743,87 2,83.2095172 2,78.6054247 L2,31.3945753 C2,26.7855313 6.04478608,23 11.1031972,23 L49.8968028,23 Z"/>
    <path fill="#665B49" d="M9,88.6685256 C9.27285293,88.6843821 50.7271471,88.6843821 50.9922595,88.6685256 C49.4654442,90.4107604 48.7165499,92.3234527 48.503686,93.9487456 C47.8921858,98.6422745 47.8321968,109.210643 42.6847586,109.698231 C38.0211021,110.10059 21.9730925,110.10059 17.3075009,109.698231 C12.1600627,109.216589 12.1078142,98.6422745 11.4885735,93.9487456 C11.2757095,92.3155244 10.5287505,90.4028321 9,88.6685256 Z M51,21.3255282 C50.7271471,21.3096717 9.27285293,21.3096717 9.00774051,21.3255282 C10.5345558,19.5832934 11.2834501,17.6706011 11.496314,16.0453082 C12.1078142,11.3517793 12.1678032,0.783411021 17.3152414,0.295823137 C21.9788979,-0.0986077123 38.0269075,-0.0986077123 42.6924991,0.295823137 C47.8399373,0.777464827 47.8999263,11.3517793 48.5114265,16.0453082 C48.7242905,17.6785294 49.4712495,19.5912217 51,21.3255282 Z"/>
  </g>
</svg>
