<svg xmlns="http://www.w3.org/2000/svg" width="152" height="110" viewBox="0 0 152 110">
  <g fill="#665B49" fill-rule="evenodd" transform="translate(0 17)">
    <rect width="8" height="77" x="72" rx="4"/>
    <path d="M100 20.9972916C100 19.8942179 100.88773 19 102 19L102 19C103.104569 19 104 19.8915398 104 20.9972916L104 57.0027084C104 58.1057821 103.11227 59 102 59L102 59C100.895431 59 100 58.1084602 100 57.0027084L100 20.9972916zM0 20.9972916C0 19.8942179.887729645 19 2 19L2 19C3.1045695 19 4 19.8915398 4 20.9972916L4 57.0027084C4 58.1057821 3.11227036 59 2 59L2 59C.8954305 59 0 58.1084602 0 57.0027084L0 20.9972916zM124 20.9972916C124 19.8942179 124.88773 19 126 19L126 19C127.104569 19 128 19.8915398 128 20.9972916L128 57.0027084C128 58.1057821 127.11227 59 126 59L126 59C124.895431 59 124 58.1084602 124 57.0027084L124 20.9972916zM24 20.9972916C24 19.8942179 24.8877296 19 26 19L26 19C27.1045695 19 28 19.8915398 28 20.9972916L28 57.0027084C28 58.1057821 27.1122704 59 26 59L26 59C24.8954305 59 24 58.1084602 24 57.0027084L24 20.9972916zM148 20.9972916C148 19.8942179 148.88773 19 150 19L150 19C151.104569 19 152 19.8915398 152 20.9972916L152 57.0027084C152 58.1057821 151.11227 59 150 59L150 59C148.895431 59 148 58.1084602 148 57.0027084L148 20.9972916zM48 20.9972916C48 19.8942179 48.8877296 19 50 19L50 19C51.1045695 19 52 19.8915398 52 20.9972916L52 57.0027084C52 58.1057821 51.1122704 59 50 59L50 59C48.8954305 59 48 58.1084602 48 57.0027084L48 20.9972916z"/>
  </g>
</svg>
