<?xml version="1.0" encoding="UTF-8"?>
<svg width="100px" height="100px" viewBox="0 0 100 100" version="1.1" xmlns="http://www.w3.org/2000/svg" xmlns:xlink="http://www.w3.org/1999/xlink">
    <!-- Generator: Sketch 52.5 (67469) - http://www.bohemiancoding.com/sketch -->
    <title>bug</title>
    <desc>Created with Sketch.</desc>
    <g id="bug" stroke="none" stroke-width="1" fill="none" fill-rule="evenodd">
        <path d="M45.7898361,17.2206702 C47.1756062,17.0891857 48.5799881,17.0219455 50,17.0219455 C51.7061594,17.0219455 53.3897548,17.1190153 55.0456144,17.3079585 L67.3994522,1.42013538 C67.4029341,1.41565751 67.4064263,1.41118771 67.4099288,1.406726 C68.6633246,-0.189910599 70.9737324,-0.468162206 72.570369,0.785233645 L72.575222,0.789043305 C74.1787549,2.04785295 74.4633762,4.36593277 73.2120043,5.97527678 L63.0851968,18.9989971 C66.0641564,19.9247337 68.9085574,21.1582476 71.5815994,22.6625628 C67.4134815,30.3342922 59.3116205,35.5386632 50,35.5386632 C40.6883795,35.5386632 32.5865185,30.3342922 28.4184006,22.6625628 C31.3095603,21.035497 34.4011854,19.7252296 37.6467119,18.7785474 L27.6913186,5.97527678 C26.4399468,4.36593277 26.724568,2.04785295 28.328101,0.789043305 L28.3329539,0.785233645 C29.9295905,-0.468162206 32.2399983,-0.189910599 33.4933942,1.406726 C33.4968967,1.41118771 33.5003889,1.41565751 33.5038708,1.42013538 L45.7898361,17.2206702 Z M20.7616383,28.0127556 C25.9924737,34.5214206 33.2070674,39.3536185 41.4819296,41.5814426 C45.3384367,48.3497079 47.5428571,56.1902815 47.5428571,64.5481878 C47.5428571,78.7116012 41.2123968,91.3893842 31.2393747,99.8807815 C16.8563386,92.5462293 7,77.543466 7,60.2276203 C7,47.5483036 12.2846946,36.1091973 20.7616383,28.0127556 Z M79.2383617,28.1319761 C87.7153054,36.2284179 93,47.6675242 93,60.3468409 C93,77.6626866 83.1436614,92.6654499 68.7606253,100.000002 C58.7876032,91.5086048 52.4571429,78.8308218 52.4571429,64.6674083 C52.4571429,56.3095021 54.6615633,48.4689285 58.5180704,41.7006632 C66.7929326,39.4728391 74.0075263,34.6406412 79.2383617,28.1319761 Z" id="Combined-Shape" fill="#FFFFFF"></path>
    </g>
</svg>