<?xml version="1.0" encoding="UTF-8"?>
<svg width="150px" height="150px" viewBox="0 0 150 150" version="1.1" xmlns="http://www.w3.org/2000/svg" xmlns:xlink="http://www.w3.org/1999/xlink">
    <!-- Generator: Sketch 52.5 (67469) - http://www.bohemiancoding.com/sketch -->
    <title>bug</title>
    <desc>Created with Sketch.</desc>
    <defs>
        <linearGradient x1="50%" y1="8.60856525e-15%" x2="50%" y2="99.8148483%" id="linearGradient-1">
            <stop stop-color="#91C230" offset="0%"></stop>
            <stop stop-color="#ADC836" offset="100%"></stop>
        </linearGradient>
    </defs>
    <g id="bug" stroke="none" stroke-width="1" fill="none" fill-rule="evenodd">
        <circle id="Oval" fill="url(#linearGradient-1)" cx="75" cy="75" r="75"></circle>
        <path d="M71.5731224,47.9500994 C72.7010748,47.8435866 73.8441764,47.7891167 75,47.7891167 C76.3887344,47.7891167 77.7591027,47.8677509 79.1068955,48.0208098 L89.1602139,35.1531489 C90.1802753,33.84753 92.0656117,33.6160398 93.3712306,34.6361011 C94.6768496,35.6561624 94.9083398,37.5414988 93.8882785,38.8471178 L85.6507416,49.3906842 C88.0754762,50.1406038 90.3906862,51.1398473 92.5664182,52.358461 C89.173764,58.5731662 82.579226,62.7891167 75,62.7891167 C67.420774,62.7891167 60.826236,58.5731662 57.4335818,52.358461 C59.7868514,51.0404095 62.3032904,49.9789898 64.9449981,49.2121026 L56.8469844,38.8471178 C55.8269231,37.5414988 56.0584133,35.6561624 57.3640323,34.6361011 C58.6696512,33.6160398 60.5549876,33.84753 61.5750489,35.1531489 L71.5731224,47.9500994 Z M51.2013335,56.6925386 C55.4589902,61.96507 61.3313339,65.879531 68.0666869,67.684244 C71.2057043,73.167072 73,79.5185542 73,86.2891167 C73,97.7625963 67.8473005,108.032598 59.7297256,114.911299 C48.0226012,108.969736 40,96.8163157 40,82.7891167 C40,72.5178714 44.3014956,63.2512942 51.2013335,56.6925386 Z M98.7986665,56.7891167 C105.698504,63.3478723 110,72.6144494 110,82.8856947 C110,96.9128938 101.977399,109.066314 90.2702744,115.007877 C82.1526995,108.129176 77,97.8591743 77,86.3856947 C77,79.6151323 78.7942957,73.26365 81.9333131,67.780822 C88.6686661,65.976109 94.5410098,62.0616481 98.7986665,56.7891167 Z" id="Combined-Shape" fill="#FFFFFF"></path>
    </g>
</svg>