<?xml version="1.0" encoding="UTF-8"?>
<svg width="100px" height="100px" viewBox="0 0 100 100" version="1.1" xmlns="http://www.w3.org/2000/svg" xmlns:xlink="http://www.w3.org/1999/xlink">
    <!-- Generator: Sketch 52.5 (67469) - http://www.bohemiancoding.com/sketch -->
    <title>dark</title>
    <desc>Created with Sketch.</desc>
    <g id="dark" stroke="none" stroke-width="1" fill="none" fill-rule="evenodd">
        <path d="M50,100 C77.6142375,100 100,77.6142375 100,50 C100,22.3857625 77.6142375,0 50,0 C22.3857625,0 0,22.3857625 0,50 C0,77.6142375 22.3857625,100 50,100 Z M35.1785895,88.2391154 C50.4968103,82.2976631 61.357179,67.4171191 61.357179,50 C61.357179,32.5828809 50.4968103,17.7023369 35.1785895,11.7608846 C39.7753045,9.97796449 44.7734443,9 50,9 C72.6436747,9 91,27.3563253 91,50 C91,72.6436747 72.6436747,91 50,91 C44.7734443,91 39.7753045,90.0220355 35.1785895,88.2391154 Z" id="Oval-2" fill="#FFFFFF"></path>
    </g>
</svg>