<?xml version="1.0" encoding="UTF-8"?>
<svg width="150px" height="150px" viewBox="0 0 150 150" version="1.1" xmlns="http://www.w3.org/2000/svg" xmlns:xlink="http://www.w3.org/1999/xlink">
    <!-- Generator: Sketch 52.5 (67469) - http://www.bohemiancoding.com/sketch -->
    <title>dragon</title>
    <desc>Created with Sketch.</desc>
    <defs>
        <linearGradient x1="50%" y1="8.60856525e-15%" x2="50%" y2="99.8148483%" id="linearGradient-1">
            <stop stop-color="#0969C1" offset="0%"></stop>
            <stop stop-color="#0582BC" offset="100%"></stop>
        </linearGradient>
    </defs>
    <g id="dragon" stroke="none" stroke-width="1" fill="none" fill-rule="evenodd">
        <circle id="Oval" fill="url(#linearGradient-1)" cx="75" cy="75" r="75"></circle>
        <path d="M31,79.7722168 L43.9580078,56.7277832 C53.1080729,50.271403 59.7604167,44.9615072 63.9150391,40.7980957 C68.0696615,36.6346842 73.4889323,31.035319 80.1728516,24 C80.9163411,29.9082031 80.5087077,33.8697917 78.9499512,35.8847656 C77.3911947,37.8997396 75.7786458,40.3386411 74.1123047,43.2014702 C87.7312826,43.5636482 97.7408854,48.8969816 104.141113,59.2014702 C113.741455,74.6582031 113.994873,98.87519 98.0847168,109.53833 C82.1745605,120.20147 69.9223633,119.192495 56.9401855,115.20147 C43.9580078,111.210446 36.2297363,93.7087402 37.9680176,87.4123535 C40.467041,93.2380371 46.0817871,104.001221 54.208252,106.447998 C46.3347168,99.3269043 42.6977539,93.9182129 43.3278809,91.1652832 C46.3347168,94.4367676 51.5515137,102.755615 59.4128418,103.842529 C55.6091309,101.015869 50.3312988,95.8771973 51.1330566,94.1447754 C53.4499512,95.857666 55.8781738,100.36792 60.5319824,100.36792 C57.8039551,97.3308105 56.8181152,95.8771973 58.151123,94.1447754 C59.4128418,95.7380371 63.7038574,101.563232 72.5192871,100.36792 C81.3347168,99.1726074 89.1101074,93.3552246 88.357666,83.6745605 C87.8560384,77.2207845 84.2297363,71.9208171 77.4787598,67.7746582 L75.9143066,70.2844238 L31,79.7722168 Z M46.3347168,67.2512207 C50.3697103,67.2512207 53.6133626,66.5679705 56.0656738,65.2014702 C58.517985,63.8349699 59.3093262,60.3733628 58.4396973,54.8166489 C55.8192546,56.3208817 53.6509603,57.7824888 51.9348145,59.2014702 C50.2186686,60.6204516 48.3519694,63.3037018 46.3347168,67.2512207 Z" id="Path-16" fill="#FFFFFF"></path>
    </g>
</svg>