<?xml version="1.0" encoding="UTF-8"?>
<svg width="150px" height="150px" viewBox="0 0 150 150" version="1.1" xmlns="http://www.w3.org/2000/svg" xmlns:xlink="http://www.w3.org/1999/xlink">
    <!-- Generator: Sketch 52.5 (67469) - http://www.bohemiancoding.com/sketch -->
    <title>fighting</title>
    <desc>Created with Sketch.</desc>
    <defs>
        <linearGradient x1="50%" y1="3.768299%" x2="50%" y2="99.8148483%" id="linearGradient-1">
            <stop stop-color="#CE406A" offset="0%"></stop>
            <stop stop-color="#E2444B" offset="100%"></stop>
        </linearGradient>
    </defs>
    <g id="fighting" stroke="none" stroke-width="1" fill="none" fill-rule="evenodd">
        <circle id="Oval" fill="url(#linearGradient-1)" cx="75" cy="75" r="75"></circle>
        <path d="M49.2975542,60.0884411 L49.2975542,44.5 C49.2975542,39.8055796 53.1031339,36 57.7975542,36 C61.2585376,36 64.2363966,38.0685018 65.5623042,41.0366784 C67.059923,38.6141255 69.740239,37 72.7975542,37 C77.0329599,37 80.5448465,40.0977537 81.191129,44.1511764 C82.7495087,42.2287753 85.1300335,41 87.7975542,41 C92.4919746,41 96.2975542,44.8055796 96.2975542,49.5 L96.2975542,50.0224833 C97.8567697,48.1741064 100.190048,47 102.797554,47 C107.491975,47 111.297554,50.8055796 111.297554,55.5 L111.297554,87.5 C111.297554,87.991016 111.25592,88.4723079 111.17599,88.940538 C111.219245,89.0795028 111.259767,89.2186269 111.297554,89.3579102 C107.988472,106.137695 93.4440386,115 78.4870074,115 C63.5299761,115 42.0373003,109.612305 39.3458941,85.1137695 C37.9858783,72.7342213 40.6364317,64.7023133 47.2975542,61.0180457 L47.2975542,85 C47.2975542,85.5522847 47.7452695,86 48.2975542,86 C48.849839,86 49.2975542,85.5522847 49.2975542,85 L49.2975542,60.0884411 Z" id="Combined-Shape" fill="#FFFFFF"></path>
    </g>
</svg>