<?xml version="1.0" encoding="UTF-8"?>
<svg width="100px" height="100px" viewBox="0 0 100 100" version="1.1" xmlns="http://www.w3.org/2000/svg" xmlns:xlink="http://www.w3.org/1999/xlink">
    <!-- Generator: Sketch 52.5 (67469) - http://www.bohemiancoding.com/sketch -->
    <title>fighting</title>
    <desc>Created with Sketch.</desc>
    <g id="fighting" stroke="none" stroke-width="1" fill="none" fill-rule="evenodd">
        <path d="M27.1880126,13.03249 C27.2886536,13.0111995 27.3930189,13 27.5,13 L29.5,13 C30.3284271,13 31,13.6715729 31,14.5 L31,16 L31,38.5 C31,40.9852814 33.0147186,43 35.5,43 C37.9852814,43 40,40.9852814 40,38.5 L40,16 L40,14.5 C40,13.6715729 40.6715729,13 41.5,13 L40,13 L53,13 L51.5,13 C52.3284271,13 53,13.6715729 53,14.5 L53,16 L53,38.5 C53,40.9852814 55.0147186,43 57.5,43 C59.9852814,43 62,40.9852814 62,38.5 L62,16 L62,14.5 C62,13.6715729 62.6715729,13 63.5,13 L62,13 L74,13 L72.5,13 C73.3284271,13 74,13.6715729 74,14.5 L74,16 L74,38.5 C74,40.9852814 76.0147186,43 78.5,43 C80.9852814,43 83,40.9852814 83,38.5 L83,16 L83,14.5 C83,13.6715729 83.6715729,13 84.5,13 L86.5,13 C86.6069811,13 86.7113464,13.0111995 86.8119874,13.03249 C91.9550879,13.445771 96,17.7505156 96,23 L96,77 C96,82.5228475 91.5228475,87 86,87 L28,87 C22.4771525,87 18,82.5228475 18,77 L18,23 C18,17.7505156 22.0449121,13.445771 27.1880126,13.03249 Z M4,55 C4,52.0994749 6.37740679,46.497892 11.1322204,38.1952514 C11.4066805,37.7159869 12.0176973,37.5499682 12.4969582,37.8244346 C12.8080725,38.0026057 13,38.3336927 13,38.6922133 L13,75 C7,64.9249249 4,58.2582583 4,55 Z" id="Rectangle-2" fill="#FFFFFF"></path>
    </g>
</svg>