<?xml version="1.0" encoding="UTF-8"?>
<svg width="100px" height="100px" viewBox="0 0 100 100" version="1.1" xmlns="http://www.w3.org/2000/svg" xmlns:xlink="http://www.w3.org/1999/xlink">
    <!-- Generator: Sketch 52.5 (67469) - http://www.bohemiancoding.com/sketch -->
    <title>fire</title>
    <desc>Created with Sketch.</desc>
    <g id="fire" stroke="none" stroke-width="1" fill="none" fill-rule="evenodd">
        <path d="M49.197241,0.885833483 C56.1616465,6.37301845 59.6438492,12.1254187 59.6438492,18.1430343 C59.6438492,27.6564599 50.9401439,27.6641527 50.9401439,35.6774829 C50.9401439,43.6908131 54.4018255,46.65254 59.6438492,46.65254 C70.3188059,46.65254 74.685412,41.1457111 72.7436673,30.1320533 L72.743724,30.1320433 C72.6957841,29.8601263 72.8773534,29.6008311 73.1492704,29.5528913 C73.3015244,29.5260484 73.4576319,29.571156 73.5721033,29.6750699 C81.8447913,37.1847756 85.9811353,47.5593319 85.9811353,60.7987389 C85.9811353,74.259961 77.6495034,82.1637271 60.9862396,84.5100371 L60.9862464,84.5100854 C60.7127748,84.5485922 60.4598664,84.3581156 60.4213595,84.084644 C60.4019752,83.9469784 60.4407769,83.8074572 60.5284522,83.6995655 C63.111356,80.5210875 64.4028079,75.9967932 64.4028079,70.1266826 C64.4028079,62.0774527 57.6077592,57.7619629 49.9811353,57.7619629 C42.3545113,57.7619629 35.7927265,62.8014304 35.7927265,71.8567072 C35.7927265,80.911984 42.9260437,91.0015146 56.6003688,91.0015146 C64.9596457,91.0015146 72.2522932,88.4656883 78.4783113,83.3940357 L78.4782927,83.3940128 C78.6924041,83.2195998 79.0073654,83.2517817 79.1817784,83.4658931 C79.3035937,83.6154349 79.3285395,83.8217054 79.245885,83.9959752 C73.8971701,95.2732797 64.4619231,100.607955 50.9401439,100 C7.4184478,98.0432149 8.74755859,50 18.0004,39.172577 C18.146023,39.002173 14.2067179,57.5780212 21.8068842,62.7552736 C19.4555695,45.4934919 23.6307535,37.9861768 29.71174,31.8028775 C35.7927265,25.6195782 46.1540841,20.3222656 48.547114,13.3078613 C49.9829319,9.09921877 49.9894798,5.08523197 48.5667577,1.26590093 L48.7901048,1.18270288 C48.7396599,1.04728233 48.8085463,0.896608607 48.9439668,0.846163697 C49.0295304,0.814290797 49.1255204,0.829325506 49.197241,0.885833483 Z" id="Path-24" fill="#FFFFFF"></path>
    </g>
</svg>