<?xml version="1.0" encoding="UTF-8"?>
<svg width="100px" height="100px" viewBox="0 0 100 100" version="1.1" xmlns="http://www.w3.org/2000/svg" xmlns:xlink="http://www.w3.org/1999/xlink">
    <!-- Generator: Sketch 52.5 (67469) - http://www.bohemiancoding.com/sketch -->
    <title>fire</title>
    <desc>Created with Sketch.</desc>
    <g id="fire" stroke="none" stroke-width="1" fill="none" fill-rule="evenodd">
        <path d="M77.952879,86.9945007 C70.0484787,95.6648336 60.5154281,100 49.3537273,100 C32.611176,100 18.5042082,86.3561571 15.6042608,73.7288614 C12.7043133,61.1015656 13.6348747,50.6189241 19.2232784,44.7687756 C19.2232784,49.3867609 20.0561509,55.2984425 21.7359954,53.8981889 C23.41584,52.4979353 21.1997141,48.4099016 26.1667365,43.801088 C31.1337588,39.1922745 46.295665,24.4857916 49.3537273,19.8808814 C52.4117896,15.2759712 52.4117896,5.73877042 48.0419782,0.940688184 C43.6721667,-3.85739405 62.0824773,10.5826281 60.3296179,24.2378517 C58.5767586,37.8930752 58.3501608,43.801088 64.0604237,43.801088 C69.7706866,43.801088 69.6286854,36.9631579 69.6286854,34.3421642 C69.6286854,31.7211705 66.1629077,29.8864135 64.0604237,28.0731654 C62.8778599,27.0532853 78.5933953,29.7396873 83.5815667,42.7026637 C88.5697382,55.6656401 84.913509,69.5326711 80.9497599,75.7016731 C76.9860108,81.8706751 69.679544,86.6578195 60.8475196,86.6578195 C52.0154953,86.6578195 68.9613328,83.2412308 69.6286854,73.2781188 C70.2960379,63.3150068 67.5160392,63.3150068 67.5160392,64.5524228 C67.5160392,65.7898387 66.6784719,79.351354 52.2478839,78.4614083 C43.7262984,77.9358755 57.9399678,76.7489868 59.6722327,70.6507048 C61.4044977,64.5524228 58.1484889,59.7168204 51.4356569,60.1327942 C44.7228249,60.5487681 41.8115476,64.2132403 41.8115476,68.2419084 C41.8115476,72.2705766 45.3817208,74.950587 45.3817208,76.3565255 C45.3817208,77.7624641 39.7843188,71.7916687 38.013266,65.500433 C36.6439115,60.6361332 34.6905477,80.0157449 41.8115476,86.6578195 C48.9325474,93.2998941 55.7036999,94.2043128 62.2977451,93.2998941 C66.6937753,92.6969484 71.9121533,90.5951505 77.952879,86.9945007 Z" id="Path-8" fill="#FFFFFF"></path>
    </g>
</svg>