<?xml version="1.0" encoding="UTF-8"?>
<svg width="150px" height="150px" viewBox="0 0 150 150" version="1.1" xmlns="http://www.w3.org/2000/svg" xmlns:xlink="http://www.w3.org/1999/xlink">
    <!-- Generator: Sketch 52.5 (67469) - http://www.bohemiancoding.com/sketch -->
    <title>fire</title>
    <desc>Created with Sketch.</desc>
    <defs>
        <linearGradient x1="50%" y1="8.60856525e-15%" x2="50%" y2="99.8148483%" id="linearGradient-1">
            <stop stop-color="#FF9C55" offset="0%"></stop>
            <stop stop-color="#FFB14F" offset="100%"></stop>
        </linearGradient>
    </defs>
    <g id="fire" stroke="none" stroke-width="1" fill="none" fill-rule="evenodd">
        <circle id="Oval" fill="url(#linearGradient-1)" cx="75" cy="75" r="75"></circle>
        <path d="M102.729348,111.604336 C94.6053809,120.534779 84.8075233,125 73.3357752,125 C56.1281531,125 41.6293251,110.946842 38.6488236,97.9407272 C35.668322,84.9346126 36.6247323,74.1374918 42.3683694,68.1118389 C42.3683694,72.8683638 43.2243773,78.9573958 44.9508842,77.5151346 C46.6773911,76.0728734 44.3997062,71.8621987 49.5047014,67.1151207 C54.6096965,62.3680427 70.1927668,47.2203654 73.3357752,42.4773079 C76.4787837,37.7342504 76.4787837,27.9109335 71.9875887,22.9689088 C67.4963936,18.0268841 86.4181017,32.900107 84.6165518,46.9649872 C82.8150019,61.0298675 82.5821098,67.1151207 88.4509911,67.1151207 C94.3198724,67.1151207 94.1739266,60.0720526 94.1739266,57.3724291 C94.1739266,54.6728057 90.6118774,52.7830059 88.4509911,50.9153603 C87.2355783,49.8648838 103.387656,52.6318779 108.514388,65.9837436 C113.64112,79.3356093 109.883329,93.6186513 105.809475,99.9727233 C101.735622,106.326795 94.226198,111.257554 85.1488396,111.257554 C76.0714813,111.257554 93.4880365,107.738468 94.1739266,97.4764624 C94.8598168,87.214457 92.0025958,87.214457 92.0025958,88.4889955 C92.0025958,89.7635339 91.1417628,103.731895 76.3103251,102.815251 C67.5520289,102.273952 82.1605224,101.051456 83.9409059,94.7702259 C85.7212893,88.4889955 82.3748358,83.508325 75.4755362,83.9367781 C68.5762367,84.3652311 65.5840906,88.1396375 65.5840906,92.2891657 C65.5840906,96.4386939 69.2534352,99.1991046 69.2534352,100.647221 C69.2534352,102.095338 63.5005498,95.9454187 61.6803012,89.465446 C60.2729091,84.4552172 58.2652851,104.416217 65.5840906,111.257554 C72.902896,118.098891 79.862136,119.030442 86.6393492,118.098891 C91.1574913,117.477857 96.5208242,115.313005 102.729348,111.604336 Z" id="Path-8" fill="#FFFFFF"></path>
    </g>
</svg>