<?xml version="1.0" encoding="UTF-8"?>
<svg width="100px" height="100px" viewBox="0 0 100 100" version="1.1" xmlns="http://www.w3.org/2000/svg" xmlns:xlink="http://www.w3.org/1999/xlink">
    <!-- Generator: Sketch 52.5 (67469) - http://www.bohemiancoding.com/sketch -->
    <title>flying</title>
    <desc>Created with Sketch.</desc>
    <g id="flying" stroke="none" stroke-width="1" fill="none" fill-rule="evenodd">
        <path d="M100,6 C85.9337923,16.8656059 72.7597844,23.3460732 60.4779764,25.441402 C42.0552645,28.5843952 11.7788844,33.9811061 3.8220144,48.342756 C-4.13485559,62.7044058 -0.941222681,88.7224302 25.6228585,94.1128996 C52.1869397,99.503369 67.8406663,78.6290042 67.010964,77.0991627 C66.6482336,76.4303445 62.5070892,78.4344506 58.1835733,79.4133956 C52.6175635,80.6736702 46.5779772,80.9694233 46.104039,79.4133956 C45.5749839,77.676409 56.8642746,75.3401966 66.0037015,70.3682672 C71.4112031,67.4265383 76.129224,62.8318069 77.0301164,58.875121 C77.2950297,57.7116319 69.9891216,62.2234166 61.9806384,64.8590739 C54.5580399,67.3019118 46.104039,67.9394079 46.104039,66.1700565 C46.104039,63.2531135 59.9575208,59.0959045 72.4955986,52.9089427 C81.7176021,48.3583103 90.1007176,41.8898613 90.1007176,35.5048418 C90.1007176,34.8015981 82.9512117,40.1030724 74.2967792,43.8151036 C61.851708,49.1530032 46.6537052,53.2042753 45.3806048,48.8442455 C44.8260186,46.9449354 66.6212516,43.1335609 82.6235158,30.534994 C93.2916919,22.1359494 99.0838533,13.9576181 100,6 Z" id="Path-11" fill="#FFFFFF"></path>
    </g>
</svg>