<?xml version="1.0" encoding="UTF-8"?>
<svg width="150px" height="150px" viewBox="0 0 150 150" version="1.1" xmlns="http://www.w3.org/2000/svg" xmlns:xlink="http://www.w3.org/1999/xlink">
    <!-- Generator: Sketch 52.5 (67469) - http://www.bohemiancoding.com/sketch -->
    <title>flying</title>
    <desc>Created with Sketch.</desc>
    <defs>
        <linearGradient x1="50%" y1="8.60856525e-15%" x2="50%" y2="99.8148483%" id="linearGradient-1">
            <stop stop-color="#8FA8DD" offset="0%"></stop>
            <stop stop-color="#A5BFEE" offset="100%"></stop>
        </linearGradient>
    </defs>
    <g id="flying" stroke="none" stroke-width="1" fill="none" fill-rule="evenodd">
        <circle id="Oval" fill="url(#linearGradient-1)" cx="75" cy="75" r="75"></circle>
        <path d="M120,34.7280273 C107.380208,44.503418 95.5608724,50.3336589 84.5419922,52.21875 C68.0136719,55.0463867 40.8505859,59.9016113 33.7119141,72.8222656 C26.5732422,85.7429199 29.4384766,109.150391 53.2709961,114 C77.1035156,118.849609 91.147583,100.069702 90.4031982,98.6933594 C90.0777671,98.091648 86.3624531,99.8946694 82.4835205,100.775391 C77.4898588,101.909214 72.0713179,102.175292 71.6461144,100.775391 C71.1714616,99.2126869 81.2998842,97.1108815 89.4995117,92.6378174 C94.3509646,89.9912509 98.5838354,85.857538 99.3920898,82.2978516 C99.6297623,81.2511028 93.0751145,85.3101914 85.8901367,87.6813965 C79.2307976,89.8791289 71.6461144,90.4526609 71.6461144,88.8608398 C71.6461144,86.2365723 84.0750546,82.4964824 95.3238525,76.9302979 C103.597565,72.8362593 111.118652,67.0168308 111.118652,61.2724609 C111.118652,60.6397781 104.704324,65.4093219 96.9398193,68.7489014 C85.7744641,73.5512156 72.1392589,77.1959978 70.9970703,73.2734375 C70.4995117,71.5646973 90.0535596,68.1357422 104.410325,56.8012695 C113.981501,49.2449544 119.17806,41.887207 120,34.7280273 Z" id="Path-11" fill="#FFFFFF"></path>
    </g>
</svg>