<?xml version="1.0" encoding="UTF-8"?>
<svg width="100px" height="100px" viewBox="0 0 100 100" version="1.1" xmlns="http://www.w3.org/2000/svg" xmlns:xlink="http://www.w3.org/1999/xlink">
    <!-- Generator: Sketch 52.5 (67469) - http://www.bohemiancoding.com/sketch -->
    <title>ghost</title>
    <desc>Created with Sketch.</desc>
    <g id="ghost" stroke="none" stroke-width="1" fill="none" fill-rule="evenodd">
        <path d="M26.1669497,91.6285124 C11.1537988,83.2729621 1,67.2677002 1,48.8959284 C1,21.8914528 22.9380473,0 50,0 C77.0619527,0 99,21.8914528 99,48.8959284 C99,61.9531618 93.871046,73.8150081 85.5138703,82.584772 C83.0842836,87.1308505 90.2149723,90.017353 92.9943371,90.017353 C95.811452,90.017353 98.5095215,100 68.920041,100 C49.1937206,100 34.9229647,97.213908 26.1077732,91.6417241 C26.1275036,91.6373188 26.1472291,91.6329149 26.1669497,91.6285124 Z M31.2661332,31.4893311 C26.8870175,32.8478954 23.7073171,36.9236203 23.7073171,41.7404267 C23.7073171,47.6682384 28.522986,52.4736793 34.4634146,52.4736793 C40.4038433,52.4736793 45.2195122,47.6682384 45.2195122,41.7404267 C45.2195122,40.7473824 45.0843656,39.7858361 44.8314247,38.8731035 C43.8213745,39.1864582 42.7475152,39.3552595 41.6341463,39.3552595 C36.6888757,39.3552595 32.5230839,36.0250021 31.2661363,31.4893302 Z M65.1484978,31.0071741 C63.8915503,35.5428461 59.7257585,38.8731035 54.7804878,38.8731035 C53.667119,38.8731035 52.5932597,38.7043021 51.5832095,38.3909474 C51.3302685,39.3036801 51.195122,40.2652263 51.195122,41.2582707 C51.195122,47.1860824 56.0107909,51.9915233 61.9512195,51.9915233 C67.8916482,51.9915233 72.7073171,47.1860824 72.7073171,41.2582707 C72.7073171,36.4414643 69.5276166,32.3657393 65.148501,31.0071751 Z" id="Oval-2" fill="#FFFFFF"></path>
    </g>
</svg>