<?xml version="1.0" encoding="UTF-8"?>
<svg width="150px" height="150px" viewBox="0 0 150 150" version="1.1" xmlns="http://www.w3.org/2000/svg" xmlns:xlink="http://www.w3.org/1999/xlink">
    <!-- Generator: Sketch 52.5 (67469) - http://www.bohemiancoding.com/sketch -->
    <title>ghost</title>
    <desc>Created with Sketch.</desc>
    <defs>
        <linearGradient x1="50%" y1="8.60856525e-15%" x2="50%" y2="99.8148483%" id="linearGradient-1">
            <stop stop-color="#5369AC" offset="0%"></stop>
            <stop stop-color="#7A74D7" offset="100%"></stop>
        </linearGradient>
    </defs>
    <g id="ghost" stroke="none" stroke-width="1" fill="none" fill-rule="evenodd">
        <circle id="Oval" fill="url(#linearGradient-1)" cx="75" cy="75" r="75"></circle>
        <path d="M52.0580599,108.831939 C39.4960357,101.82568 31,88.4050177 31,73 C31,50.3563253 49.3563253,32 72,32 C94.6436747,32 113,50.3563253 113,73 C113,83.9486942 108.708426,93.8950377 101.715687,101.248622 C99.6827679,105.06058 105.649263,107.480957 107.974854,107.480957 C110.332031,107.480957 112.5896,115.851562 87.8310547,115.851562 C71.3253581,115.851562 59.3845215,113.515381 52.0085449,108.843018 C52.025054,108.839324 52.041559,108.835631 52.0580599,108.831939 Z M56.3247237,58.4042962 C52.6605657,59.5434735 50,62.9610326 50,67 C50,71.9705627 54.0294373,76 59,76 C63.9705627,76 68,71.9705627 68,67 C68,66.1673168 67.8869182,65.3610453 67.6752737,64.5957046 C66.8301296,64.8584575 65.9315943,65 65,65 C60.8621205,65 57.3764579,62.2075271 56.3247263,58.4042954 Z M84.6752737,58 C83.6235421,61.8032318 80.1378795,64.5957046 76,64.5957046 C75.0684057,64.5957046 74.1698704,64.4541621 73.3247263,64.1914093 C73.1130818,64.9567499 73,65.7630214 73,66.5957046 C73,71.5662674 77.0294373,75.5957046 82,75.5957046 C86.9705627,75.5957046 91,71.5662674 91,66.5957046 C91,62.5567372 88.3394343,59.1391781 84.6752763,58.0000008 Z" id="Oval-2" fill="#FFFFFF"></path>
    </g>
</svg>