<?xml version="1.0" encoding="UTF-8"?>
<svg width="150px" height="150px" viewBox="0 0 150 150" version="1.1" xmlns="http://www.w3.org/2000/svg" xmlns:xlink="http://www.w3.org/1999/xlink">
    <!-- Generator: Sketch 52.5 (67469) - http://www.bohemiancoding.com/sketch -->
    <title>grass</title>
    <desc>Created with Sketch.</desc>
    <defs>
        <linearGradient x1="50%" y1="8.60856525e-15%" x2="50%" y2="99.8148483%" id="linearGradient-1">
            <stop stop-color="#62BA56" offset="0%"></stop>
            <stop stop-color="#5AC37D" offset="100%"></stop>
        </linearGradient>
    </defs>
    <g id="grass" stroke="none" stroke-width="1" fill="none" fill-rule="evenodd">
        <circle id="Oval" fill="url(#linearGradient-1)" cx="75" cy="75" r="75"></circle>
        <path d="M76.7525742,26.8729396 C76.7760004,26.8519585 76.7994379,26.8309731 76.8228867,26.8099833 L76.8228867,26.9359305 C100.984671,48.5877344 113.065563,65.5675619 113.065563,77.875413 C113.065563,113.343186 84.108043,116.840379 81.8166612,116.840379 C80.2890733,116.840379 79.423961,115.760748 79.2213242,113.601487 L78.5811875,93.9711161 L92.089,77.875413 L78.5811875,86.0272684 L77.5294297,75.4862528 L87.8917344,63.7758036 L78.5811875,69.0526591 L76.7525742,44.1888787 L74.923961,69.0526591 L65.6134141,63.7758036 L75.9757188,75.4862528 L74.923961,86.0272684 L61.4161485,77.875413 L74.923961,93.9711161 L74.2838242,113.601487 C74.0811875,115.760748 73.2160752,116.840379 71.6884873,116.840379 C69.3971055,116.840379 40.439586,113.343186 40.439586,77.875413 C40.439586,65.5675619 52.5204779,48.5877344 76.6822617,26.9359305 L76.6822617,26.8099833 C76.7057106,26.8309731 76.7291481,26.8519585 76.7525742,26.8729396 Z" id="Combined-Shape" fill="#FFFFFF" transform="translate(76.752574, 71.825181) rotate(35.000000) translate(-76.752574, -71.825181) "></path>
    </g>
</svg>