<?xml version="1.0" encoding="UTF-8"?>
<svg width="100px" height="100px" viewBox="0 0 100 100" version="1.1" xmlns="http://www.w3.org/2000/svg" xmlns:xlink="http://www.w3.org/1999/xlink">
    <!-- Generator: Sketch 52.5 (67469) - http://www.bohemiancoding.com/sketch -->
    <title>grass</title>
    <desc>Created with Sketch.</desc>
    <g id="grass" stroke="none" stroke-width="1" fill="none" fill-rule="evenodd">
        <path d="M55.5,-7.92447797 C55.5280626,-7.94964672 55.5561389,-7.97482073 55.5842286,-8 L55.5842286,-7.84891437 C84.5280762,18.1244784 99,38.4933923 99,53.2578271 C99,95.804786 64.311252,100 61.5663633,100 C59.7364376,100 58.7001035,98.7048808 58.4573613,96.1146423 L57.6905297,72.5661499 L73.871788,53.2578271 L57.6905297,63.0367511 L56.4306095,50.3918029 L68.8438059,36.3440082 L57.6905297,42.6740969 L55.5,12.8476337 L53.3094703,42.6740969 L42.1561941,36.3440082 L54.5693905,50.3918029 L53.3094703,63.0367511 L37.128212,53.2578271 L53.3094703,72.5661499 L52.5426387,96.1146423 C52.2998965,98.7048808 51.2635624,100 49.4336367,100 C46.688748,100 12,95.804786 12,53.2578271 C12,38.4933923 26.4719238,18.1244784 55.4157714,-7.84891437 L55.4157714,-8 C55.4438611,-7.97482073 55.4719374,-7.94964672 55.5,-7.92447797 Z" id="Combined-Shape" fill="#FFFFFF" transform="translate(55.500000, 46.000000) rotate(35.000000) translate(-55.500000, -46.000000) "></path>
    </g>
</svg>