<?xml version="1.0" encoding="UTF-8"?>
<svg width="237px" height="237px" viewBox="0 0 237 237" version="1.1" xmlns="http://www.w3.org/2000/svg" xmlns:xlink="http://www.w3.org/1999/xlink">
    <!-- Generator: Sketch 52.5 (67469) - http://www.bohemiancoding.com/sketch -->
    <title>Artboard</title>
    <desc>Created with Sketch.</desc>
    <g id="Artboard" stroke="none" stroke-width="1" fill="none" fill-rule="evenodd" opacity="0.049999997">
        <path d="M111.562495,11.3318515 C104.395916,20.6371258 100.134038,32.2949933 100.134038,44.9482759 C100.134038,57.6015584 104.395916,69.2594259 111.562495,78.5647003 C103.625674,85.6146635 93.17495,89.8965517 81.7241379,89.8965517 C56.8998906,89.8965517 36.7758621,69.7725232 36.7758621,44.9482759 C36.7758621,20.1240286 56.8998906,5.68434189e-14 81.7241379,5.68434189e-14 C93.17495,5.68434189e-14 103.625674,4.28188819 111.562495,11.3318515 Z" id="Combined-Shape" fill="#FFFFFF"></path>
        <path d="M145.556191,88.8428821 C125.404445,84.4007159 110.327586,66.4351904 110.327586,44.9482759 C110.327586,20.1240286 130.451615,7.81597009e-14 155.275862,7.81597009e-14 C180.100109,7.81597009e-14 200.224138,20.1240286 200.224138,44.9482759 C200.224138,51.5685045 198.79291,57.8544519 196.222993,63.5135802 C194.846047,63.4105943 193.455007,63.3581758 192.051724,63.3581758 C172.515028,63.3581758 155.351344,73.5182508 145.556191,88.8428821 Z" id="Combined-Shape" fill="#FFFFFF"></path>
        <path d="M151.104593,137.065304 C148.534676,131.406176 147.103448,125.120229 147.103448,118.5 C147.103448,93.6757527 167.227477,73.5517241 192.051724,73.5517241 C216.875971,73.5517241 237,93.6757527 237,118.5 C237,139.986915 221.923141,157.95244 201.771395,162.394606 C191.976242,147.069975 174.812559,136.9099 155.275862,136.9099 C153.872579,136.9099 152.481539,136.962318 151.104593,137.065304 Z" id="Combined-Shape" fill="#FFFFFF"></path>
        <path d="M125.437505,225.668149 C132.604084,216.362874 136.865962,204.705007 136.865962,192.051724 C136.865962,179.398442 132.604084,167.740574 125.437505,158.4353 C133.374326,151.385336 143.82505,147.103448 155.275862,147.103448 C180.100109,147.103448 200.224138,167.227477 200.224138,192.051724 C200.224138,216.875971 180.100109,237 155.275862,237 C143.82505,237 133.374326,232.718112 125.437505,225.668149 Z" id="Combined-Shape" fill="#FFFFFF"></path>
        <path d="M40.777007,173.48642 C42.1539528,173.589406 43.5449928,173.641824 44.9482759,173.641824 C64.4849724,173.641824 81.6486562,163.481749 91.4438086,148.157118 C111.595555,152.599284 126.672414,170.56481 126.672414,192.051724 C126.672414,216.875971 106.548385,237 81.7241379,237 C56.8998906,237 36.7758621,216.875971 36.7758621,192.051724 C36.7758621,185.431496 38.2070897,179.145548 40.777007,173.48642 Z" id="Combined-Shape" fill="#FFFFFF"></path>
        <path d="M35.2286052,74.6053938 C45.0237575,89.930025 62.1874414,100.0901 81.7241379,100.0901 C83.127421,100.0901 84.518461,100.037682 85.8954068,99.9346956 C88.4653241,105.593824 89.8965517,111.879771 89.8965517,118.5 C89.8965517,143.324247 69.7725232,163.448276 44.9482759,163.448276 C20.1240286,163.448276 5.68434189e-14,143.324247 5.68434189e-14,118.5 C5.68434189e-14,97.0130855 15.0768585,79.0475599 35.2286052,74.6053938 Z" id="Combined-Shape" fill="#FFFFFF"></path>
    </g>
</svg>