<?xml version="1.0" encoding="UTF-8"?>
<svg width="229px" height="251px" viewBox="0 0 229 251" version="1.1" xmlns="http://www.w3.org/2000/svg" xmlns:xlink="http://www.w3.org/1999/xlink">
    <!-- Generator: Sketch 52.5 (67469) - http://www.bohemiancoding.com/sketch -->
    <title>logo_background</title>
    <desc>Created with Sketch.</desc>
    <defs>
        <path d="M14.0181957,79.8646035 C5.36986469,71.4155588 3.97903932e-13,59.615627 3.97903932e-13,46.559513 C3.97903932e-13,20.8663695 20.7955286,0.0379612825 46.4481132,0.0379612825 C72.1006978,0.0379612825 92.8962264,20.8663695 92.8962264,46.559513 C92.8962264,59.7382257 87.4250407,71.6370541 78.6335381,80.1017286 C69.4886333,73.5267489 58.2754942,69.6555024 46.1596859,69.6555024 C34.1902573,69.6555024 23.1018181,73.4337714 14.0181957,79.8646035 Z" id="path-1"></path>
        <path d="M91.4347611,35.0122621 C72.1538135,43.800226 58.7486911,63.2662398 58.7486911,85.8684211 C58.7486911,87.7461303 58.8412092,89.6021947 59.0219284,91.4322898 C55.0228867,92.5560066 50.8055724,93.1569873 46.4481132,93.1569873 C20.7955286,93.1569873 5.47117907e-13,72.3285791 5.47117907e-13,46.6354356 C5.47117907e-13,20.942292 20.7955286,0.113883848 46.4481132,0.113883848 C68.0936633,0.113883848 86.2810293,14.9435398 91.4347611,35.0122621 Z" id="path-3"></path>
        <path d="M59.0129859,2.33367203 C58.8381578,4.13418231 58.7486911,5.95973571 58.7486911,7.8062201 C58.7486911,30.4436603 72.1956696,49.9351408 91.5250378,58.7034283 C86.3966503,78.8090943 68.1914763,93.6746411 46.5197488,93.6746411 C20.8671642,93.6746411 0.0716355494,72.846233 0.0716355494,47.1530894 C0.0716355494,21.4599459 20.8671642,0.6315377 46.5197488,0.6315377 C50.8479488,0.6315377 55.0378796,1.22447459 59.0129859,2.33367203 Z" id="path-5"></path>
        <path d="M15.3186702,0.671215167 C24.3833342,7.05841948 35.433765,10.8086124 47.3586387,10.8086124 C59.138496,10.8086124 70.065049,7.14907585 79.0670266,0.903064481 C87.9688192,9.37866455 93.5183246,21.3531625 93.5183246,34.6258662 C93.5183246,60.3190097 72.722796,81.1474179 47.0702114,81.1474179 C21.4176268,81.1474179 0.622098192,60.3190097 0.622098192,34.6258662 C0.622098192,21.231678 6.27365725,9.15956921 15.3186702,0.671215167 Z" id="path-7"></path>
        <path d="M32.1266396,91.1393887 C32.2888108,89.4042441 32.3717277,87.6460319 32.3717277,85.8684211 C32.3717277,63.4837339 19.2233511,44.1751478 0.240623294,35.2689135 C5.26450144,15.0124611 23.5422421,-2.84217094e-14 45.3207959,-2.84217094e-14 C70.9733805,-2.84217094e-14 91.7689091,20.8284082 91.7689091,46.5215517 C91.7689091,72.2146953 70.9733805,93.0431034 45.3207959,93.0431034 C40.7373803,93.0431034 36.3090209,92.378179 32.1266298,91.1393858 Z" id="path-9"></path>
    </defs>
    <g id="logo_background" stroke="none" stroke-width="1" fill="none" fill-rule="evenodd" opacity="0.100000001">
        <g id="Group">
            <g id="Group-2" transform="translate(0.000000, 39.631579)">
                <mask id="mask-2" fill="white">
                    <use xlink:href="#path-1"></use>
                </mask>
                <use id="Combined-Shape" fill="#000000" xlink:href="#path-1"></use>
                <g id="fighting-copy-5" mask="url(#mask-2)" fill="#1A1A1A" opacity="0.5">
                    <g transform="translate(16.785340, 19.813397)" id="Path-11">
                        <path d="M59.947644,0.602870813 C51.5152838,7.1274332 43.6177765,11.0188143 36.255122,12.2770141 C25.2111402,14.1643139 7.06116367,17.4049226 2.29120758,26.0287841 C-2.47874851,34.6526456 -0.564240822,50.275909 15.3603,53.5127699 C31.2848408,56.7496307 40.6688811,44.215024 40.1714941,43.2963872 C39.9540458,42.8947763 37.4715273,44.0981988 34.8796813,44.6860342 C31.5429896,45.442802 27.9223999,45.6203953 27.6382851,44.6860342 C27.3211291,43.6430111 34.0887929,42.2401659 39.567664,39.2546293 C42.8093338,37.4881845 45.6376762,34.7291472 46.17774,32.3532425 C46.3365492,31.6545924 41.9568295,34.3638219 37.1559325,35.9464774 C32.7062595,37.413349 27.6382851,37.7961516 27.6382851,36.7336942 C27.6382851,34.9821327 35.9431211,32.4858182 43.4594033,28.7706809 C48.9877772,26.0381241 54.0132574,22.1539598 54.0132574,18.319893 C54.0132574,17.8976103 49.7272971,21.0810315 44.5391687,23.3100263 C37.0786417,26.5153201 27.9677971,28.9480217 27.2046034,26.3299177 C26.872142,25.1894229 39.9378707,22.9007746 49.5308511,15.3356064 C55.9261713,10.292161 59.3984356,5.38124912 59.947644,0.602870813 Z"></path>
                    </g>
                </g>
            </g>
            <g id="Group-6" transform="translate(0.000000, 118.894737)">
                <mask id="mask-4" fill="white">
                    <use xlink:href="#path-3"></use>
                </mask>
                <use id="Combined-Shape" fill="#000000" xlink:href="#path-3"></use>
                <g id="fighting-copy-4" mask="url(#mask-4)" fill="#1A1A1A" opacity="0.5">
                    <g transform="translate(19.785340, 12.612440)" id="Path-23">
                        <path d="M0.994764398,35.0549674 C3.46076335,27.6528568 5.43413527,23.0252891 6.91488017,21.1722642 C9.13599752,18.3927269 22.2434035,11.3478656 23.9127458,8.4804459 C25.0256406,6.56883276 25.786952,3.74201746 26.1966798,0 C28.8493147,6.25681988 28.8493147,10.3764317 26.1966798,12.3588354 C37.2299888,12.3588354 48.9528796,22.0798531 48.9528796,36.6501599 C48.9528796,51.2204667 38.3444372,58.7007618 31.6591296,58.7007618 C24.973822,58.7007618 19.3923925,52.5467886 20.301815,48.7433303 C26.1966798,50.9447841 35.5981415,45.4712021 35.5981415,38.7209851 C35.5981415,31.9707681 30.4311686,28.1488775 29.6759706,27.3426662 C29.1725052,26.8051919 28.9207725,25.2218496 28.9207725,22.5926391 C28.8415653,24.989977 28.1639384,26.5733194 26.8878919,27.3426662 C25.6118453,28.112013 16.9808028,30.6827801 0.994764398,35.0549674 Z M10.0237041,28.2226066 C12.6034817,26.9964286 14.2084303,26.019652 14.8385501,25.2922768 C16.3179927,23.5844905 15.9841852,21.4315266 15.9841852,20.6353243 C15.9841852,19.3304477 14.3573644,20.1963636 11.1037229,23.2330719 L10.0237041,28.2226066 Z M25.8628234,60.0478469 C11.5953519,59.0800098 3.98592942,52.8806482 3.03455605,41.4497621 C10.3384718,39.886225 15.6285261,38.0534165 18.904719,35.9513365 C17.4318682,40.3455856 16.8780867,44.832935 17.2433747,49.4133846 C17.6086626,53.9938343 20.4818122,57.538655 25.8628234,60.0478469 Z"></path>
                    </g>
                </g>
            </g>
            <g id="Group-5" transform="translate(68.340314, 157.325359)">
                <mask id="mask-6" fill="white">
                    <use xlink:href="#path-5"></use>
                </mask>
                <use id="Combined-Shape" fill="#000000" xlink:href="#path-5"></use>
                <g id="fighting-copy-3" mask="url(#mask-6)" fill="#1A1A1A" opacity="0.5">
                    <g transform="translate(11.785340, 10.014354)" id="Combined-Shape">
                        <path d="M34.8309424,8.87547984 C34.8455203,8.86238005 34.8601052,8.84927752 34.8746972,8.83617225 L34.8746972,8.91480906 C49.9103441,22.4334008 57.4281675,33.0349819 57.4281675,40.7195523 C57.4281675,62.8643283 39.4081802,65.0478469 37.9822752,65.0478469 C37.0316719,65.0478469 36.4933208,64.3737652 36.3672219,63.0256018 L35.968871,50.7691186 L44.3746534,40.7195523 L35.968871,45.8092717 L35.3143721,39.2278484 L41.7627352,31.9162737 L35.968871,35.2109486 L34.8309424,19.6869167 L33.6930139,35.2109486 L27.8991496,31.9162737 L34.3475127,39.2278484 L33.6930139,45.8092717 L25.2872314,40.7195523 L33.6930139,50.7691186 L33.2946629,63.0256018 C33.168564,64.3737652 32.6302129,65.0478469 31.6796096,65.0478469 C30.2537046,65.0478469 12.2337173,62.8643283 12.2337173,40.7195523 C12.2337173,33.0349819 19.7515407,22.4334008 34.7871876,8.91480906 L34.7871876,8.83617225 C34.8017796,8.84927752 34.8163645,8.86238005 34.8309424,8.87547984 Z" transform="translate(34.830942, 36.942010) rotate(35.000000) translate(-34.830942, -36.942010) "></path>
                    </g>
                </g>
            </g>
            <g id="Group-4" transform="translate(135.481675, 130.904306)">
                <mask id="mask-8" fill="white">
                    <use xlink:href="#path-7"></use>
                </mask>
                <use id="Combined-Shape" fill="#000000" xlink:href="#path-7"></use>
                <g id="fighting-copy-2" mask="url(#mask-8)" fill="#1A1A1A" opacity="0.5">
                    <g transform="translate(26.785340, 4.803828)" id="Path-3">
                        <polygon points="7.5602029 0 28.849784 0 39.1570681 33.0563158 22.2666593 33.0563158 30.1126286 60.0478469 0.790575916 21.5079734 14.8775653 21.5079734"></polygon>
                    </g>
                </g>
            </g>
            <g id="Group-7" transform="translate(136.680628, 39.631579)">
                <path d="M0.723180072,57.5346881 C20.0906942,48.781995 33.5706806,29.2704701 33.5706806,6.60526316 C33.5706806,4.96757212 33.5003031,3.34634611 33.3624122,1.74445409 C37.3421539,0.632452173 41.5373904,0.0379612825 45.8712585,0.0379612825 C71.5238431,0.0379612825 92.3193717,20.8663695 92.3193717,46.559513 C92.3193717,72.2526566 71.5238431,93.0810647 45.8712585,93.0810647 C23.9933843,93.0810647 5.64832669,77.9313636 0.723180072,57.5346881 Z" id="Combined-Shape" fill="#000000"></path>
                <g id="fighting-copy" transform="translate(22.586387, 16.813397)" fill="#1A1A1A" opacity="0.5">
                    <path d="M22.4930913,0.532322034 C26.667752,3.82713859 28.7550824,7.2811984 28.7550824,10.8945015 C28.7550824,16.6071087 23.5374161,16.6117281 23.5374161,21.4235603 C23.5374161,26.2353926 25.6126127,28.0138458 28.7550824,28.0138458 C35.1544674,28.0138458 37.7721449,24.7071136 36.6081147,18.0936492 L36.6082253,18.0936298 C36.5795154,17.9305137 36.6884731,17.775008 36.8515892,17.746298 C36.9429827,17.730212 37.0366748,17.757343 37.1053311,17.8197757 C42.0642203,22.32915 44.5436649,28.5586693 44.5436649,36.5083336 C44.5436649,44.5915077 39.5490478,49.337549 29.5598138,50.7464577 L29.5598194,50.7464975 C29.3957358,50.7696403 29.2439588,50.6553852 29.220816,50.4913016 C29.2091732,50.4087534 29.2323993,50.3250826 29.2849264,50.2603472 C30.8336195,48.3517111 31.607966,45.634783 31.607966,42.109563 C31.607966,37.2761738 27.5344944,34.684815 22.962513,34.684815 C18.3905317,34.684815 14.4568963,37.7109068 14.4568963,43.1484055 C14.4568963,48.5859043 18.7331519,54.6444502 26.9305876,54.6444502 C31.9416437,54.6444502 36.3133147,53.1218222 40.0456006,50.0765661 L40.0457019,50.0766903 C40.1740088,49.9720018 40.3628888,49.9911483 40.4675773,50.1194552 C40.5407039,50.2090796 40.5557554,50.3327748 40.5062559,50.4373207 C37.2998652,57.20941 31.6435852,60.4129187 23.5374161,60.0478469 C-2.55281533,58.8728396 -1.75604472,30.0239234 3.79081573,23.5222891 C3.87811327,23.4199651 1.51659268,34.574362 6.07271333,37.6831906 C4.66315551,27.3178624 7.16607995,22.8098813 10.8114881,19.0969432 C14.4568963,15.3840051 20.668286,12.2030829 22.1028511,7.99108419 C22.9635901,5.46388495 22.9675154,3.05357231 22.114627,0.760146252 L22.2486407,0.710308707 C22.2184136,0.629027812 22.2598009,0.538632751 22.3410818,0.508405689 C22.3924531,0.489301543 22.4500682,0.498366395 22.4930913,0.532322034 Z" id="Path-24"></path>
                </g>
            </g>
            <g id="Group-3" transform="translate(69.539267, 0.000000)">
                <mask id="mask-10" fill="white">
                    <use xlink:href="#path-9"></use>
                </mask>
                <use id="Combined-Shape" fill="#000000" xlink:href="#path-9"></use>
                <g id="fighting" mask="url(#mask-10)" fill="#1A1A1A" opacity="0.5">
                    <g transform="translate(17.586387, 16.813397)" id="Rectangle-2">
                        <path d="M14.2966303,7.82626059 C14.3578059,7.81313151 14.4212896,7.8062201 14.4863875,7.8062201 L15.6837696,7.8062201 C16.1808259,7.8062201 16.5837696,8.20916384 16.5837696,8.70622013 L16.5837696,9.6076555 L16.5837696,23.1229302 C16.5837696,24.6127978 17.791546,25.8205742 19.2814136,25.8205742 C20.7712812,25.8205742 21.9790576,24.6127978 21.9790576,23.1229302 L21.9790576,9.6076555 L21.9790576,8.70622013 C21.9790576,8.20916384 22.3820013,7.8062201 22.8790576,7.8062201 L21.9790576,7.8062201 L29.7722513,7.8062201 L28.8722513,7.8062201 C29.3693076,7.8062201 29.7722513,8.20916384 29.7722513,8.70622013 L29.7722513,9.6076555 L29.7722513,23.1229302 C29.7722513,24.6127978 30.9800277,25.8205742 32.4698953,25.8205742 C33.9597629,25.8205742 35.1675393,24.6127978 35.1675393,23.1229302 L35.1675393,9.6076555 L35.1675393,8.70622013 C35.1675393,8.20916384 35.570483,7.8062201 36.0675393,7.8062201 L35.1675393,7.8062201 L42.3612565,7.8062201 L41.4612565,7.8062201 C41.9583128,7.8062201 42.3612565,8.20916384 42.3612565,8.70622013 L42.3612565,9.6076555 L42.3612565,23.1229302 C42.3612565,24.6127978 43.5690329,25.8205742 45.0589005,25.8205742 C46.5487682,25.8205742 47.7565445,24.6127978 47.7565445,23.1229302 L47.7565445,9.6076555 L47.7565445,8.70622013 C47.7565445,8.20916384 48.1594882,7.8062201 48.6565445,7.8062201 L49.8539267,7.8062201 C49.9190246,7.8062201 49.9825082,7.81313151 50.0436838,7.82626059 C53.126331,8.07745194 55.5497382,10.6588276 55.5497382,13.8062203 L55.5497382,46.2416266 C55.5497382,49.5553352 52.8634466,52.2416268 49.549738,52.2416268 L14.7905762,52.2416268 C11.4768675,52.2416268 8.79057592,49.5553352 8.79057592,46.2416266 L8.79057592,13.8062203 C8.79057592,10.6588276 11.2139831,8.07745194 14.2966303,7.82626059 Z M0.397905759,33.0263158 C0.397905759,31.2848518 1.82271428,27.9219055 4.67233133,22.9374769 L4.67235022,22.9374877 C4.83680994,22.6498218 5.2033302,22.5499435 5.49099612,22.7144032 C5.67787354,22.8212417 5.79319372,23.0200066 5.79319372,23.2352684 L5.79319372,45.0358852 C2.19633508,38.9860195 0.397905759,34.9828297 0.397905759,33.0263158 Z"></path>
                    </g>
                </g>
            </g>
        </g>
    </g>
</svg>