<?xml version="1.0" encoding="UTF-8"?>
<svg width="237px" height="237px" viewBox="0 0 237 237" version="1.1" xmlns="http://www.w3.org/2000/svg" xmlns:xlink="http://www.w3.org/1999/xlink">
    <!-- Generator: Sketch 52.5 (67469) - http://www.bohemiancoding.com/sketch -->
    <title>Fill 1</title>
    <desc>Created with Sketch.</desc>
    <g id="Page-1" stroke="none" stroke-width="1" fill="none" fill-rule="evenodd" opacity="0.049999997">
        <g id="iPhone-XR-Copy-2" transform="translate(-615.000000, -299.000000)" fill="#FFFFFF">
            <path d="M733.5,299 C668.124462,299 615,352.124462 615,417.5 C615,482.875538 668.124462,536 733.5,536 C798.875538,536 852,482.875538 852,417.5 C852,352.124462 798.875538,299 733.5,299 Z M733.5,317.230769 C785.587912,317.230769 828.826088,357.333253 833.250956,408.384615 L770.745462,408.384615 C766.574262,391.720651 751.477101,378.952341 733.5,378.952341 C715.533837,378.952341 700.42678,391.455523 696.254538,408.384615 L633.749044,408.384615 C638.174433,357.333253 681.412088,317.230769 733.5,317.230769 Z M753.551763,417.5 C753.551763,428.700985 744.436378,437.816369 733.235393,437.816369 C722.034409,437.816369 712.919024,428.700985 712.919024,417.5 C712.919024,406.299015 722.034409,397.183631 733.235393,397.183631 C744.436378,397.183631 753.551763,406.299015 753.551763,417.5 Z M733.5,517.769231 C681.412088,517.769231 638.173912,477.666747 633.749044,426.615385 L696.254538,426.615385 C700.425738,443.279349 715.522899,456.047659 733.5,456.047659 C751.466163,456.047659 766.57322,443.544477 770.745462,426.615385 L833.250956,426.615385 C828.825567,477.666747 785.587912,517.769231 733.5,517.769231 Z" id="Fill-1" transform="translate(733.500000, 417.500000) rotate(-45.000000) translate(-733.500000, -417.500000) "></path>
        </g>
    </g>
</svg>