<?xml version="1.0" encoding="UTF-8"?>
<svg width="100px" height="100px" viewBox="0 0 100 100" version="1.1" xmlns="http://www.w3.org/2000/svg" xmlns:xlink="http://www.w3.org/1999/xlink">
    <!-- Generator: Sketch 52.5 (67469) - http://www.bohemiancoding.com/sketch -->
    <title>poison</title>
    <desc>Created with Sketch.</desc>
    <g id="poison" stroke="none" stroke-width="1" fill="none" fill-rule="evenodd">
        <path d="M50,67.6202532 C67.462449,67.6202532 80.4878049,56.5404568 80.4878049,44.5316456 C80.4878049,32.5228343 67.462449,21.443038 50,21.443038 C32.537551,21.443038 19.5121951,32.5228343 19.5121951,44.5316456 C19.5121951,56.5404568 32.537551,67.6202532 50,67.6202532 Z M38.3375448,88.5524659 C36.6140666,94.0485588 31.8396158,98 26.2195122,98 C19.1475733,98 13.4146341,91.7433211 13.4146341,84.0253165 C13.4146341,80.8956305 14.3573239,78.006236 15.9497213,75.6768811 C6.13762346,67.9113581 0,56.8312009 0,44.5316456 C0,21.0420663 22.3857625,2 50,2 C77.6142375,2 100,21.0420663 100,44.5316456 C100,57.1675827 93.5220688,68.5165106 83.2370306,76.3065384 C84.5822295,78.518162 85.3658537,81.1718663 85.3658537,84.0253165 C85.3658537,91.7433211 79.6329145,98 72.5609756,98 C67.5283509,98 63.1738243,94.8314835 61.0809111,90.2226297 C59.1501464,94.8135209 54.9145683,98 50,98 C44.5091087,98 39.865793,94.0223551 38.3375448,88.5524659 Z" id="Oval" fill="#FFFFFF" fill-rule="nonzero"></path>
    </g>
</svg>