<?xml version="1.0" encoding="UTF-8"?>
<svg width="150px" height="150px" viewBox="0 0 150 150" version="1.1" xmlns="http://www.w3.org/2000/svg" xmlns:xlink="http://www.w3.org/1999/xlink">
    <!-- Generator: Sketch 52.5 (67469) - http://www.bohemiancoding.com/sketch -->
    <title>psychic</title>
    <desc>Created with Sketch.</desc>
    <defs>
        <linearGradient x1="50%" y1="8.60856525e-15%" x2="50%" y2="99.8148483%" id="linearGradient-1">
            <stop stop-color="#F86D74" offset="0%"></stop>
            <stop stop-color="#FEA399" offset="100%"></stop>
        </linearGradient>
    </defs>
    <g id="psychic" stroke="none" stroke-width="1" fill="none" fill-rule="evenodd">
        <circle id="Oval" fill="url(#linearGradient-1)" cx="75" cy="75" r="75"></circle>
        <path d="M113.977012,106.343798 C113.128695,107.886254 94.9948103,119 76.2962455,119 C57.5976807,119 30,107.356252 30,74.1820682 C30,41.0078849 60.3448784,30 76.2962455,30 C92.2476125,30 113.977012,43.2792086 113.977012,64.7100054 C113.977012,86.1408021 99.9745763,100.228366 83.6546958,100.228366 C67.3348154,100.228366 55.5842866,88.1094612 55.5842866,74.5 C55.5842866,60.8905388 68.9377951,53.5955183 76.2962455,53.5955183 C83.6546958,53.5955183 94.1718327,60.3934188 94.1718327,69.6094221 C94.1718327,78.8254254 84.0994905,82.6256072 80.9966719,82.6256072 C77.8938532,82.6256072 69.8435001,78.7547144 69.8435001,74.1820682 C69.8435001,69.6094221 70.656271,68.5267935 71.9885061,68.5267935 C72.8766629,68.5267935 73.7485248,69.1764064 74.604092,70.4756321 C74.0669004,74.8122177 75.6983512,76.9805105 79.4984445,76.9805105 C85.1985845,76.9805105 86.0043718,72.8015962 86.0043718,69.6094221 C86.0043718,66.417248 82.7489908,61.7465707 76.2962455,61.7465707 C69.8435001,61.7465707 65.9708859,66.5217075 65.9708859,76.1003726 C65.9708859,85.6790377 77.3706286,87.6600177 80.9966719,87.6600177 C84.6227151,87.6600177 99.2370122,85.8633149 99.2370122,68.5267935 C99.2370122,51.1902721 85.4994117,45.0212711 74.604092,45.0212711 C63.7087722,45.0212711 45.2041335,52.2268774 45.2041335,76.9805105 C45.2041335,101.734144 67.0076657,113.17759 79.4984445,113.17759 C91.9892233,113.17759 114.825329,104.801343 113.977012,106.343798 Z" id="Path-12" fill="#FFFFFF"></path>
    </g>
</svg>