<?xml version="1.0" encoding="UTF-8"?>
<svg width="100px" height="100px" viewBox="0 0 100 100" version="1.1" xmlns="http://www.w3.org/2000/svg" xmlns:xlink="http://www.w3.org/1999/xlink">
    <!-- Generator: Sketch 52.5 (67469) - http://www.bohemiancoding.com/sketch -->
    <title>psychic</title>
    <desc>Created with Sketch.</desc>
    <g id="psychic" stroke="none" stroke-width="1" fill="none" fill-rule="evenodd">
        <path d="M96.9742756,85.7795487 C96.0249684,87.5126448 75.7322877,100 54.8077032,100 C33.8831188,100 3,86.9171366 3,49.6427733 C3,12.36841 36.957364,2.3262069e-15 54.8077032,0 C72.6580425,0 96.9742756,14.9204591 96.9742756,39.000006 C96.9742756,63.0795529 81.304883,78.9082767 63.0421596,78.9082767 C44.7794363,78.9082767 31.630035,65.2915295 31.630035,50 C31.630035,34.7084705 46.5732469,26.5118183 54.8077032,26.5118183 C63.0421596,26.5118183 74.8113366,34.1499088 74.8113366,44.5049687 C74.8113366,54.8600285 63.539906,59.1298957 60.0677042,59.1298957 C56.5955024,59.1298957 47.5867739,54.7805779 47.5867739,49.6427733 C47.5867739,44.5049687 48.4963032,43.288532 49.9871378,43.288532 C50.9810275,43.288532 51.9566825,44.0184341 52.9141029,45.4782384 C52.3129599,50.3508064 54.1386311,52.7870905 58.3911165,52.7870905 C64.7698445,52.7870905 65.671559,48.0916812 65.671559,44.5049687 C65.671559,40.9182562 62.0286326,35.6703041 54.8077032,35.6703041 C47.5867739,35.6703041 43.2531343,41.0356264 43.2531343,51.7981714 C43.2531343,62.5607165 56.0099892,64.7865367 60.0677042,64.7865367 C64.1254192,64.7865367 80.4795137,62.7677695 80.4795137,43.288532 C80.4795137,23.8092945 65.1064846,16.8778327 52.9141029,16.8778327 C40.7217212,16.8778327 20.0141494,24.9740195 20.0141494,52.7870905 C20.0141494,80.6001614 44.4133402,93.4579664 58.3911165,93.4579664 C72.3688928,93.4579664 97.9235828,84.0464526 96.9742756,85.7795487 Z" id="Path-12" fill="#FFFFFF"></path>
    </g>
</svg>