<?xml version="1.0" encoding="UTF-8"?>
<svg width="100px" height="100px" viewBox="0 0 100 100" version="1.1" xmlns="http://www.w3.org/2000/svg" xmlns:xlink="http://www.w3.org/1999/xlink">
    <!-- Generator: Sketch 52.5 (67469) - http://www.bohemiancoding.com/sketch -->
    <title>psychic</title>
    <desc>Created with Sketch.</desc>
    <g id="psychic" stroke="none" stroke-width="1" fill="none" fill-rule="evenodd">
        <path d="M93.4648471,81.9235814 C82.3216749,94.0456889 69.1159153,100.070594 53.8475681,99.9982981 C29.0286647,99.8807794 5.18359375,92.9621069 2.20019531,56.7744043 C-0.783203125,20.5867017 27.9421893,3.38988496e-15 53.8475681,0 C79.752947,0 99,16.0474876 99,41.9459017 C99,67.8443159 84.3266494,81.5401063 62.6651151,81.5401063 C41.0035807,81.5401063 29.0286647,70.2233758 29.0286647,53.7767888 C29.0286647,37.3302018 40.5242192,28.514409 53.8475681,28.514409 C67.1709171,28.514409 75.2676799,36.7294487 75.2676799,47.866686 C75.2676799,59.0039233 68.5256395,63.5963182 59.4800353,63.5963182 C50.4344312,63.5963182 46.2142285,59.9958979 46.2142285,54.4700052 C46.2142285,53.8125258 46.2404687,53.1883869 46.2929492,52.5975882 L46.2929925,52.5975921 C46.4411871,50.9292932 47.913746,49.6970052 49.5820449,49.8451998 C50.4870295,49.9255894 51.3082962,50.407494 51.8198799,51.1583213 C51.8198799,54.9023766 53.7748288,56.7744043 57.6847266,56.7744043 C63.5495733,56.7744043 65.4807049,51.7243236 65.4807049,47.866686 C65.4807049,44.0090484 63.1981074,38.3646882 53.8475681,38.3646882 C44.4970289,38.3646882 39.0621268,45.0181044 39.0621268,53.7772186 C39.0621268,65.6869135 53.4068673,70.273764 59.4075369,70.273764 C65.4082065,70.273764 81.3372266,67.5089817 81.3372266,46.5583649 C81.3372266,25.607748 64.875617,18.1527129 51.8198799,18.1527129 C38.7641428,18.1527129 16.590246,26.8604515 16.590246,56.7744043 C19.8640221,86.122687 39.0621268,91.1180465 57.6847266,92.9621069 C69.0182278,92.9621069 80.7147251,89.0113493 92.7742186,81.1098339 L92.7742215,81.1098383 C93.0226444,80.9470688 93.3559818,81.0165047 93.5187513,81.2649276 C93.6537206,81.4709213 93.6315132,81.7422736 93.4648471,81.9235814 Z" id="Path-12" fill="#FFFFFF"></path>
    </g>
</svg>