<?xml version="1.0" encoding="UTF-8"?>
<svg width="152px" height="66px" viewBox="0 0 152 66" version="1.1" xmlns="http://www.w3.org/2000/svg" xmlns:xlink="http://www.w3.org/1999/xlink">
    <!-- Generator: Sketch 52.5 (67469) - http://www.bohemiancoding.com/sketch -->
    <title>Group</title>
    <desc>Created with Sketch.</desc>
    <g id="Page-1" stroke="none" stroke-width="1" fill="none" fill-rule="evenodd">
        <g id="Group" transform="translate(-2.000000, -3.000000)" fill="#FFFFFF">
            <path d="M76.1015624,11.1999512 C73.8867187,11.1999512 72.5229492,9.71313479 72.5229492,7.29833991 C72.5229492,4.88354503 73.8815918,3.4018556 76.1015624,3.4018556 C77.9626464,3.4018556 79.3725585,4.64257823 79.428955,6.31909188 L77.6191405,6.31909188 C77.5217284,5.51416025 76.911621,4.97070323 76.1015624,4.97070323 C75.0710449,4.97070323 74.4404296,5.85253915 74.4404296,7.29321295 C74.4404296,8.73901371 75.0710449,9.63110354 76.1066894,9.63110354 C76.916748,9.63110354 77.5217284,9.10815433 77.6293944,8.31347661 L79.4340819,8.31347661 C79.3725585,10.0053711 77.9985351,11.1999512 76.1015624,11.1999512 Z M82.6743162,5.02197276 L82.6743162,7.08300788 L83.786865,7.08300788 C84.4790037,7.08300788 84.8891599,6.6984864 84.8891599,6.05761727 C84.8891599,5.42700205 84.4533689,5.02197276 83.7817381,5.02197276 L82.6743162,5.02197276 Z M82.6743162,8.41088872 L82.6743162,11 L80.7927245,11 L80.7927245,3.60180677 L84.0483396,3.60180677 C85.7761228,3.60180677 86.8117673,4.51440441 86.8117673,6.04223641 C86.8117673,6.9497071 86.3605955,7.78027349 85.5505369,8.13403325 L87.0270994,11 L84.9147947,11 L83.6484373,8.41088872 L82.6743162,8.41088872 Z M93.0307614,11 L92.5693356,9.37475589 L90.1545407,9.37475589 L89.6777341,11 L87.8115232,11 L90.2929684,3.60180677 L92.5949704,3.60180677 L95.0815426,11 L93.0307614,11 Z M91.323486,5.2680665 L90.5134274,8.02124029 L92.2155758,8.02124029 L91.4208981,5.2680665 L91.323486,5.2680665 Z M98.203857,11 L96.3222652,11 L96.3222652,3.60180677 L101.356933,3.60180677 L101.356933,5.11425791 L98.203857,5.11425791 L98.203857,6.80102546 L101.064697,6.80102546 L101.064697,8.24169927 L98.203857,8.24169927 L98.203857,11 Z M106.340331,11 L104.463867,11 L104.463867,5.11425791 L102.331054,5.11425791 L102.331054,3.60180677 L108.478271,3.60180677 L108.478271,5.11425791 L106.340331,5.11425791 L106.340331,11 Z M114.886962,9.48754885 L114.886962,11 L109.816406,11 L109.816406,3.60180677 L114.886962,3.60180677 L114.886962,5.11425791 L111.697997,5.11425791 L111.697997,6.59082039 L114.697265,6.59082039 L114.697265,7.97509771 L111.697997,7.97509771 L111.697997,9.48754885 L114.886962,9.48754885 Z M116.491698,3.59667981 L119.598632,3.59667981 C121.803222,3.59667981 123.059325,4.91430674 123.059325,7.22656256 C123.059325,9.6567383 121.82373,11 119.598632,11 L116.491698,11 L116.491698,3.59667981 Z M118.37329,5.10913096 L118.37329,9.48754885 L119.260253,9.48754885 C120.480468,9.48754885 121.141845,8.7287598 121.141845,7.26245124 C121.141845,5.88330087 120.444579,5.10913096 119.260253,5.10913096 L118.37329,5.10913096 Z M130.580565,11 L127.027587,11 L127.027587,3.60180677 L130.478026,3.60180677 C131.954589,3.60180677 132.826171,4.29907238 132.826171,5.44750986 C132.826171,6.24218758 132.231444,6.91381843 131.44702,7.02148444 L131.44702,7.11889655 C132.416015,7.17016608 133.16455,7.92382818 133.16455,8.86718754 C133.16455,10.1643067 132.164794,11 130.580565,11 Z M128.909179,4.9296876 L128.909179,6.61645515 L129.903808,6.61645515 C130.590819,6.61645515 130.990722,6.29858406 130.990722,5.77563485 C130.990722,5.24755869 130.616454,4.9296876 129.975585,4.9296876 L128.909179,4.9296876 Z M128.909179,9.67211916 L130.047362,9.67211916 C130.826659,9.67211916 131.252196,9.32861331 131.252196,8.70312504 C131.252196,8.09814458 130.816405,7.75976568 130.037108,7.75976568 L128.909179,7.75976568 L128.909179,9.67211916 Z M138.235106,11 L136.358641,11 L136.358641,8.45703129 L133.805419,3.60180677 L135.810058,3.60180677 L137.250731,6.62158211 L137.348143,6.62158211 L138.778563,3.60180677 L140.783202,3.60180677 L138.235106,8.45703129 L138.235106,11 Z" id="Label-Copy-2"></path>
            <path d="M104.510696,41.9526599 C110.231646,33.8756158 115.915367,24.5407449 118.299678,21.669979 C119.599156,20.0478552 122.809632,21.669979 124.49131,23.3693468 C125.714348,24.5280067 126.555187,25.9956425 125.561468,27.2315464 C119.140517,35.4966534 120.898635,41.2899527 120.287115,49.4005717 C119.981356,52.7993073 121.051514,58.2836307 116.77088,60.0602425 C111.088617,62.4023894 104.601923,60.2366806 101.244904,55.0087487 C95.9409744,60.3512727 91.1083383,60.9500613 88.3581868,58.9343676 C86.694329,57.7083396 86.0892898,56.0225511 86.0136599,54.1068824 C81.7027555,59.1642478 76.7868119,62.5358248 71.7952384,57.4784594 C70.4420565,56.0863492 69.6103497,54.6535968 69.2354444,53.1242656 C66.3045905,54.7325014 62.9480306,55.0125958 60.254571,51.7551288 C58.4793744,54.2312114 56.395448,56.6299163 54.4658865,57.8679576 C48.522837,61.8915918 44.2778017,59.1833765 42.9656998,58.1000904 C41.653598,57.0941818 37.64011,55.3144975 38.0260223,50.1301996 C38.8750294,39.916359 46.1301807,31.7917131 49.6033915,28.6966098 C53.1537846,25.6015066 55.7779883,25.3693739 58.6337394,26.9943031 C66.8922627,31.7143355 66.9694451,36.2022351 64.268059,44.4042587 C63.9593292,45.1780345 63.5734169,46.1065654 63.0331396,47.112474 C63.3418695,47.9636274 63.7277818,48.7374032 64.268059,48.9695359 C65.5627539,49.4639999 67.8916307,48.2798411 70.8219765,44.5100091 C71.7618878,42.5450135 73.039505,40.3977671 74.5935448,38.0152652 C77.6187408,33.3410336 81.9296452,29.5096961 85.1817309,27.8239077 C87.9044074,26.4446262 89.719525,26.8277599 92.1396819,28.7434287 C93.57665,29.8162031 95.845547,30.7357241 95.9211769,32.8046463 C97.9631843,33.5709138 100.080822,35.8697163 99.4001524,36.865864 C98.7194833,37.785385 96.2993264,40.8504549 94.0304294,44.5285389 C91.3833829,48.6663833 88.2825569,54.4133894 90.475824,55.9459244 C92.4422015,57.3252059 100.188928,47.9104574 104.121683,42.240078 C104.221273,42.0803145 104.35508,41.986862 104.510696,41.9526599 Z M65.1345707,6.0006815 C67.3614397,5.92374201 73.1973722,12.3866588 70.1258288,12.6174773 C62.1398159,13.3099326 54.6913231,13.848509 47.0892531,15.2334198 C48.2410819,15.8489357 48.8553906,16.9260885 47.8571389,18.6187571 C39.0264516,33.006441 29.5814555,48.855975 20.0596709,64.4746906 C18.9846307,66.3981777 12.5343895,62.5512034 13.6094297,60.7815953 L40.7158005,16.6183305 C36.8763712,17.6185438 32.9601533,18.8495756 28.8903583,20.5422443 C10.6146749,27.8514954 6.31451407,34.1605332 7.38955427,35.4685045 C8.69496023,36.8534152 22.3633285,27.466798 24.5901975,25.7741293 C26.8170665,23.9275817 28.2760496,30.15968 22.6704828,34.9299281 C20.4436138,36.8534152 10.6914635,42.3161187 4.47158801,38.3922049 C-0.826824402,35.0838071 3.31975923,28.1592534 8.23422871,24.2353396 C25.2812947,10.5401112 50.621528,6.92395533 65.1345707,6.0006815 Z M45.6855149,55.7622278 C47.7357907,57.4061371 53.5069375,50.1259674 56.0128302,46.2118976 C56.3165747,45.7422093 56.6203193,45.1942395 57,44.5679883 C55.936894,41.4367325 54.9497242,37.2095372 55.4812772,34 C53.5828736,35.5656279 51.3047894,38.0706325 49.0267051,41.9064209 C45.9133233,46.9947116 43.8630475,54.3531627 45.6855149,55.7622278 Z M73.1335898,55.7881299 C73.8230958,56.7120639 77.6536849,54.864196 85.3148631,45.2398839 L86.6938752,43.238027 C88.7623933,40.0042582 91.9034764,34.2296709 90.7542996,33.151748 C89.4518993,32.073825 83.6294039,36.8474838 78.8028617,44.007972 C75.5851668,48.7046363 72.2908602,54.6332125 73.1335898,55.7881299 Z M109.02439,56.9898462 C112.463415,57.2987525 113.195122,50.502814 113.634146,44.3246881 C113.780488,42.8573832 113.853659,41.3900783 114,40 C110.780488,44.170235 107.780488,47.9543371 105,51.0434 C105.731707,53.4374238 106.682927,56.835393 109.02439,56.9898462 Z M146.242703,27.1192792 C150.955056,27.27481 155.667409,32.4073277 150.568798,32.4073277 C149.332771,32.4073277 145.392935,32.5628586 142.302867,32.5628586 C138.981045,37.0732529 135.736474,41.6614127 134.886705,42.7501285 C131.642134,47.2605229 128.629318,53.7928181 130.174352,55.1925957 C132.337399,57.1367312 139.908065,56.7479041 149.950784,42.9056594 C150.955056,41.5058818 154.972144,44.6164986 151.804825,49.2046584 C144.311411,60.0140517 131.873889,61.724891 128.629318,58.6142742 C119.899878,50.3711397 125.307496,43.8388444 130.251604,36.7621912 C131.024121,35.6734753 132.260148,34.0404015 133.650678,32.096266 C127.934053,32.096266 128.088557,26.8082175 129.942597,26.8082175 C132.491903,26.8082175 132.414651,26.6526867 137.667766,26.7304521 C141.06684,22.1422923 144.388663,17.7874288 144.620418,17.4763671 C146.397207,15.4544662 150.723301,20.4314531 149.873533,21.9089961 C149.410023,22.6866503 148.019492,24.6307857 146.242703,27.1192792 Z" id="Toast" fill-rule="nonzero" transform="translate(77.500000, 35.500000) rotate(-4.000000) translate(-77.500000, -35.500000) "></path>
        </g>
    </g>
</svg>