<?xml version="1.0" encoding="UTF-8"?>
<svg width="100px" height="100px" viewBox="0 0 100 100" version="1.1" xmlns="http://www.w3.org/2000/svg" xmlns:xlink="http://www.w3.org/1999/xlink">
    <!-- Generator: Sketch 52.5 (67469) - http://www.bohemiancoding.com/sketch -->
    <title>water</title>
    <desc>Created with Sketch.</desc>
    <g id="water" stroke="none" stroke-width="1" fill="none" fill-rule="evenodd">
        <path d="M50,100 C32.326888,100 18,85.7321514 18,68 C18,67.7229538 18.0077335,67.3158383 18,67 C18.1160568,63.1094773 18.394599,60.237027 19,58 C20.8614261,49.9053839 24.74649,41.92106 28,34 C33.2343184,23.8494473 40.4653235,12.4026686 50,7.10542736e-15 C59.5346765,12.4026686 66.7656816,23.8494473 72,34 C75.25351,41.92106 79.1385739,49.9053839 81,58 C81.605401,60.237027 81.8839432,63.1094773 82,67 C81.9922665,67.3158383 82,67.7229538 82,68 C82,85.7321514 67.673112,100 50,100 Z M25.0038432,69.8393985 C25.3053914,75.4953287 27.6318829,80.7341015 31.9052659,85.4855752 C36.2514848,90.3180333 41.0385283,92.8863128 46.2051403,92.9993239 C47.7148496,93.0323462 48.9658441,91.8516438 48.9993147,90.362151 C49.0327853,88.8726583 47.8360573,87.638416 46.326348,87.6053936 C42.8252697,87.5288133 39.40211,85.6922662 35.9956129,81.9046624 C32.5162798,78.0360742 30.6986854,73.9432313 30.4647779,69.555992 C30.3854551,68.0681901 29.0986794,66.9255311 27.5906839,67.0037917 C26.0826885,67.0820523 24.9245204,68.3515967 25.0038432,69.8393985 Z" id="Combined-Shape" fill="#FFFFFF"></path>
    </g>
</svg>