<?xml version="1.0" encoding="UTF-8"?>
<svg width="213px" height="93px" viewBox="0 0 213 93" version="1.1" xmlns="http://www.w3.org/2000/svg" xmlns:xlink="http://www.w3.org/1999/xlink">
    <!-- Generator: Sketch 52.6 (67491) - http://www.bohemiancoding.com/sketch -->
    <title>Group</title>
    <desc>Created with Sketch.</desc>
    <g id="Promo-Website" stroke="none" stroke-width="1" fill="none" fill-rule="evenodd">
        <g id="Desktop-HD-Copy" transform="translate(-606.000000, -2463.000000)" fill="#303646">
            <g id="Group" transform="translate(604.000000, 2460.000000)">
                <path d="M106.542187,14.6168333 C103.441406,14.6168333 101.532129,12.5436668 101.532129,9.17655846 C101.532129,5.80945011 103.434228,3.74343245 106.542187,3.74343245 C109.147705,3.74343245 111.121582,5.47345416 111.200537,7.81112811 L108.666797,7.81112811 C108.53042,6.68875866 107.676269,5.93098056 106.542187,5.93098056 C105.099463,5.93098056 104.216602,7.16058276 104.216602,9.16940961 C104.216602,11.1853853 105.099463,12.4292852 106.549365,12.4292852 C107.683447,12.4292852 108.53042,11.7001025 108.681152,10.5920308 L111.207715,10.5920308 C111.121582,12.9511513 109.197949,14.6168333 106.542187,14.6168333 Z M115.744043,6.00246906 L115.744043,8.87630676 L117.301611,8.87630676 C118.270605,8.87630676 118.844824,8.34014301 118.844824,7.44653676 C118.844824,6.56722821 118.234716,6.00246906 117.294433,6.00246906 L115.744043,6.00246906 Z M115.744043,10.7278589 L115.744043,14.3380282 L113.109814,14.3380282 L113.109814,4.0222376 L117.667675,4.0222376 C120.086572,4.0222376 121.536474,5.29473291 121.536474,7.42509021 C121.536474,8.69043666 120.904834,9.84855036 119.770752,10.341821 L121.837939,14.3380282 L118.880713,14.3380282 L117.107812,10.7278589 L115.744043,10.7278589 Z M130.243066,14.3380282 L129.59707,12.0718427 L126.216357,12.0718427 L125.548828,14.3380282 L122.936132,14.3380282 L126.410156,4.0222376 L129.632958,4.0222376 L133.11416,14.3380282 L130.243066,14.3380282 Z M127.85288,6.34561386 L126.718798,10.1845463 L129.101806,10.1845463 L127.989257,6.34561386 L127.85288,6.34561386 Z M137.4854,14.3380282 L134.851171,14.3380282 L134.851171,4.0222376 L141.899706,4.0222376 L141.899706,6.13114836 L137.4854,6.13114836 L137.4854,8.48312001 L141.490575,8.48312001 L141.490575,10.4919469 L137.4854,10.4919469 L137.4854,14.3380282 Z M148.876464,14.3380282 L146.249413,14.3380282 L146.249413,6.13114836 L143.263476,6.13114836 L143.263476,4.0222376 L151.869579,4.0222376 L151.869579,6.13114836 L148.876464,6.13114836 L148.876464,14.3380282 Z M160.841747,12.2291174 L160.841747,14.3380282 L153.742968,14.3380282 L153.742968,4.0222376 L160.841747,4.0222376 L160.841747,6.13114836 L156.377196,6.13114836 L156.377196,8.19001716 L160.576171,8.19001716 L160.576171,10.1202067 L156.377196,10.1202067 L156.377196,12.2291174 L160.841747,12.2291174 Z M163.088378,4.01508875 L167.438085,4.01508875 C170.524511,4.01508875 172.283055,5.85234321 172.283055,9.07647456 C172.283055,12.4650295 170.553221,14.3380282 167.438085,14.3380282 L163.088378,14.3380282 L163.088378,4.01508875 Z M165.722606,6.12399951 L165.722606,12.2291174 L166.964354,12.2291174 C168.672655,12.2291174 169.598583,11.1710876 169.598583,9.12651651 C169.598583,7.20347586 168.622411,6.12399951 166.964354,6.12399951 L165.722606,6.12399951 Z M182.812792,14.3380282 L177.838622,14.3380282 L177.838622,4.0222376 L182.669237,4.0222376 C184.736424,4.0222376 185.956639,4.99448121 185.956639,6.59582361 C185.956639,7.70389536 185.124022,8.64039471 184.025829,8.79052056 L184.025829,8.92634871 C185.38242,8.99783721 186.43037,10.0487182 186.43037,11.3641066 C186.43037,13.1727656 185.030711,14.3380282 182.812792,14.3380282 Z M180.47285,5.87378976 L180.47285,8.22576141 L181.865331,8.22576141 C182.827147,8.22576141 183.38701,7.78253271 183.38701,7.05335001 C183.38701,6.31701846 182.863036,5.87378976 181.965819,5.87378976 L180.47285,5.87378976 Z M180.47285,12.486476 L182.066307,12.486476 C183.157323,12.486476 183.753075,12.0075031 183.753075,11.1353434 C183.753075,10.2917791 183.142967,9.81995496 182.051952,9.81995496 L180.47285,9.81995496 L180.47285,12.486476 Z M193.529149,14.3380282 L190.902098,14.3380282 L190.902098,10.7921986 L187.327586,4.0222376 L190.134081,4.0222376 L192.151024,8.23291026 L192.287401,8.23291026 L194.289989,4.0222376 L197.096483,4.0222376 L193.529149,10.7921986 L193.529149,14.3380282 Z" id="Label-Copy-2"></path>
                <path d="M146.314975,57.4973709 C154.324304,46.2350135 162.281514,33.2187852 165.61955,29.2158863 C167.438819,26.9540517 171.933485,29.2158863 174.287833,31.5854273 C176.000087,33.2010234 177.177261,35.2474452 175.786055,36.9707478 C166.796724,48.4953336 169.258088,56.5733143 168.401962,67.8824874 C167.973898,72.6215694 169.47212,80.2687245 163.479233,82.7459719 C155.524063,86.0117824 146.442692,82.9919913 141.742866,75.7023398 C134.317364,83.1517746 127.551674,83.9867051 123.701462,81.17609 C121.372061,79.466558 120.525006,77.1159516 120.419124,74.4448079 C114.383858,81.4966273 107.501537,86.1978402 100.513334,79.1460208 C98.6188792,77.2049094 97.4544895,75.2071279 96.9296222,73.0746802 C92.8264266,75.3171498 88.1272428,75.707704 84.3563995,71.1656021 C81.8711242,74.618168 78.9536272,77.9628411 76.2522411,79.689124 C67.9319718,85.2995435 61.9889223,81.5232996 60.1519798,80.0128021 C58.3150372,78.6101972 52.696154,76.1286655 53.2364313,68.8998558 C54.4250412,54.6580217 64.582253,43.32929 69.444748,39.0135827 C74.4152985,34.6978754 78.0891836,34.3741974 82.0872351,36.6399437 C93.6491677,43.2213974 93.7572232,49.4791729 89.9752826,60.9157973 C89.5430608,61.9947241 89.0027836,63.2894363 88.2463955,64.6920412 C88.6786173,65.8788607 89.2188945,66.9577875 89.9752826,67.2814655 C91.7878554,67.9709294 95.048283,66.3197785 99.1507671,61.0632521 C100.466643,58.3233287 102.255307,55.3292809 104.430963,52.0072008 C108.666237,45.4896102 114.701503,40.1473228 119.254423,37.7967163 C123.06617,35.8734929 125.607335,36.4077216 128.995555,39.0788653 C131.00731,40.5747058 134.183766,41.8568548 134.289648,44.74169 C137.148458,45.8101474 140.11315,49.0155199 139.160213,50.4045146 C138.207277,51.6866636 134.819057,55.9604935 131.642601,61.0890894 C127.936736,66.8587598 123.59558,74.8721909 126.666154,77.0091058 C129.419082,78.9323293 140.264499,65.8047223 145.770356,57.898137 C145.909782,57.6753681 146.097112,57.545061 146.314975,57.4973709 Z M91.188399,7.36714744 C94.3060156,7.25986563 102.476321,16.2715383 98.1761603,16.5933838 C86.9957422,17.5589202 76.5678523,18.3098929 65.9249543,20.2409656 C67.5375146,21.0992201 68.3975468,22.6011656 66.9999945,24.9613656 C54.6370322,45.0230656 41.4140378,67.1231201 28.0835393,88.9013291 C26.578483,91.5833746 17.5481453,86.2192837 19.0532016,83.7518019 L57.0021207,22.1720383 C51.6269197,23.566702 46.1442146,25.283211 40.4465016,27.643411 C14.8605448,37.8351838 8.8403197,46.6322928 10.345376,48.4560837 C12.1729443,50.3871565 31.3086599,37.2987747 34.4262765,34.9385747 C37.543893,32.363811 39.5864694,41.0536383 31.738676,47.705111 C28.6210594,50.3871565 14.9680488,58.0041655 6.26022322,52.5327928 C-1.15755416,47.9196746 4.64766292,38.264311 11.5279202,32.7929383 C35.3938126,13.6967747 70.8701392,8.65452926 91.188399,7.36714744 Z M63.9597209,76.7529656 C66.830107,79.0451771 74.9097125,68.8939545 78.4179622,63.436308 C78.8432046,62.7813904 79.268447,62.0173199 79.8,61.1440964 C78.3116516,56.7779792 76.9296139,50.8837209 77.673788,46.4084507 C75.0160231,48.5915093 71.8267051,52.0844031 68.6373872,57.4328967 C64.2786527,64.5278373 61.4082665,74.7882128 63.9597209,76.7529656 Z M102.387026,76.7890826 C103.352334,78.0773848 108.715159,75.5007803 119.440808,62.0809649 L121.371425,59.2896433 C124.267351,54.7805853 128.664867,46.7286961 127.056019,45.2256768 C125.232659,43.7226574 117.081165,50.3788859 110.324006,60.3632285 C105.819234,66.9120984 101.207204,75.1787047 102.387026,76.7890826 Z M152.634146,78.4647151 C157.44878,78.8954436 158.473171,69.4194167 159.087805,60.8048468 C159.292683,58.7588865 159.395122,56.7129261 159.6,54.7746479 C155.092683,60.5894826 150.892683,65.8659066 147,70.1731916 C148.02439,73.5113374 149.356098,78.2493509 152.634146,78.4647151 Z M204.739785,36.8142062 C211.337079,37.0310731 217.934373,44.1876823 210.796317,44.1876823 C209.065879,44.1876823 203.550109,44.4045493 199.224014,44.4045493 C194.573463,50.6936907 190.031063,57.0912656 188.841387,58.6093342 C184.298988,64.8984756 180.081046,74.0068873 182.244093,75.9586898 C185.272359,78.6695266 195.871291,78.1273592 209.931098,58.8262011 C211.337079,56.8743986 216.961002,61.2117375 212.526755,67.6093124 C202.035976,82.6815651 184.623445,85.0671015 180.081046,80.7297626 C167.859829,69.2358145 175.430494,60.1274028 182.352245,50.2599568 C183.433769,48.7418882 185.164207,46.4647852 187.110949,43.7539484 C179.107674,43.7539484 179.323979,36.3804723 181.919636,36.3804723 C185.488664,36.3804723 185.380512,36.1636053 192.734872,36.2720388 C197.493576,29.8744639 202.144128,23.8021895 202.468585,23.3684556 C204.956089,20.5491853 211.012622,27.4889275 209.822946,29.5491635 C209.174032,30.6334982 207.227289,33.3443351 204.739785,36.8142062 Z" id="Toast" fill-rule="nonzero" transform="translate(108.500000, 48.500000) rotate(-4.000000) translate(-108.500000, -48.500000) "></path>
            </g>
        </g>
    </g>
</svg>