<?xml version="1.0" encoding="UTF-8"?>
<svg width="495px" height="538px" viewBox="0 0 495 538" version="1.1" xmlns="http://www.w3.org/2000/svg" xmlns:xlink="http://www.w3.org/1999/xlink">
    <!-- Generator: Sketch 53.2 (72643) - https://sketchapp.com -->
    <title>counters</title>
    <desc>Created with Sketch.</desc>
    <defs>
        <rect id="path-1" x="0" y="0" width="160" height="160" rx="80"></rect>
        <filter x="-52.5%" y="-37.5%" width="205.0%" height="205.0%" filterUnits="objectBoundingBox" id="filter-2">
            <feOffset dx="0" dy="24" in="SourceAlpha" result="shadowOffsetOuter1"></feOffset>
            <feGaussianBlur stdDeviation="24" in="shadowOffsetOuter1" result="shadowBlurOuter1"></feGaussianBlur>
            <feColorMatrix values="0 0 0 0 0   0 0 0 0 0   0 0 0 0 0  0 0 0 0.3 0" type="matrix" in="shadowBlurOuter1"></feColorMatrix>
        </filter>
        <filter x="-32.5%" y="-17.5%" width="165.0%" height="165.0%" filterUnits="objectBoundingBox" id="filter-3">
            <feGaussianBlur stdDeviation="3" in="SourceAlpha" result="shadowBlurInner1"></feGaussianBlur>
            <feOffset dx="0" dy="2" in="shadowBlurInner1" result="shadowOffsetInner1"></feOffset>
            <feComposite in="shadowOffsetInner1" in2="SourceAlpha" operator="arithmetic" k2="-1" k3="1" result="shadowInnerInner1"></feComposite>
            <feColorMatrix values="0 0 0 0 1   0 0 0 0 1   0 0 0 0 1  0 0 0 0.5 0" type="matrix" in="shadowInnerInner1"></feColorMatrix>
        </filter>
        <rect id="path-4" x="0" y="0" width="160" height="160" rx="80"></rect>
        <filter x="-52.5%" y="-37.5%" width="205.0%" height="205.0%" filterUnits="objectBoundingBox" id="filter-5">
            <feOffset dx="0" dy="24" in="SourceAlpha" result="shadowOffsetOuter1"></feOffset>
            <feGaussianBlur stdDeviation="24" in="shadowOffsetOuter1" result="shadowBlurOuter1"></feGaussianBlur>
            <feColorMatrix values="0 0 0 0 0   0 0 0 0 0   0 0 0 0 0  0 0 0 0.3 0" type="matrix" in="shadowBlurOuter1"></feColorMatrix>
        </filter>
        <filter x="-32.5%" y="-17.5%" width="165.0%" height="165.0%" filterUnits="objectBoundingBox" id="filter-6">
            <feGaussianBlur stdDeviation="3" in="SourceAlpha" result="shadowBlurInner1"></feGaussianBlur>
            <feOffset dx="0" dy="2" in="shadowBlurInner1" result="shadowOffsetInner1"></feOffset>
            <feComposite in="shadowOffsetInner1" in2="SourceAlpha" operator="arithmetic" k2="-1" k3="1" result="shadowInnerInner1"></feComposite>
            <feColorMatrix values="0 0 0 0 1   0 0 0 0 1   0 0 0 0 1  0 0 0 0.5 0" type="matrix" in="shadowInnerInner1"></feColorMatrix>
        </filter>
        <rect id="path-7" x="0" y="0" width="160" height="160" rx="80"></rect>
        <filter x="-52.5%" y="-37.5%" width="205.0%" height="205.0%" filterUnits="objectBoundingBox" id="filter-8">
            <feOffset dx="0" dy="24" in="SourceAlpha" result="shadowOffsetOuter1"></feOffset>
            <feGaussianBlur stdDeviation="24" in="shadowOffsetOuter1" result="shadowBlurOuter1"></feGaussianBlur>
            <feColorMatrix values="0 0 0 0 0   0 0 0 0 0   0 0 0 0 0  0 0 0 0.3 0" type="matrix" in="shadowBlurOuter1"></feColorMatrix>
        </filter>
        <filter x="-32.5%" y="-17.5%" width="165.0%" height="165.0%" filterUnits="objectBoundingBox" id="filter-9">
            <feGaussianBlur stdDeviation="3" in="SourceAlpha" result="shadowBlurInner1"></feGaussianBlur>
            <feOffset dx="0" dy="2" in="shadowBlurInner1" result="shadowOffsetInner1"></feOffset>
            <feComposite in="shadowOffsetInner1" in2="SourceAlpha" operator="arithmetic" k2="-1" k3="1" result="shadowInnerInner1"></feComposite>
            <feColorMatrix values="0 0 0 0 1   0 0 0 0 1   0 0 0 0 1  0 0 0 0.5 0" type="matrix" in="shadowInnerInner1"></feColorMatrix>
        </filter>
        <rect id="path-10" x="0" y="0" width="160" height="160" rx="80"></rect>
        <filter x="-52.5%" y="-37.5%" width="205.0%" height="205.0%" filterUnits="objectBoundingBox" id="filter-11">
            <feOffset dx="0" dy="24" in="SourceAlpha" result="shadowOffsetOuter1"></feOffset>
            <feGaussianBlur stdDeviation="24" in="shadowOffsetOuter1" result="shadowBlurOuter1"></feGaussianBlur>
            <feColorMatrix values="0 0 0 0 0   0 0 0 0 0   0 0 0 0 0  0 0 0 0.3 0" type="matrix" in="shadowBlurOuter1"></feColorMatrix>
        </filter>
        <filter x="-32.5%" y="-17.5%" width="165.0%" height="165.0%" filterUnits="objectBoundingBox" id="filter-12">
            <feGaussianBlur stdDeviation="3" in="SourceAlpha" result="shadowBlurInner1"></feGaussianBlur>
            <feOffset dx="0" dy="2" in="shadowBlurInner1" result="shadowOffsetInner1"></feOffset>
            <feComposite in="shadowOffsetInner1" in2="SourceAlpha" operator="arithmetic" k2="-1" k3="1" result="shadowInnerInner1"></feComposite>
            <feColorMatrix values="0 0 0 0 1   0 0 0 0 1   0 0 0 0 1  0 0 0 0.5 0" type="matrix" in="shadowInnerInner1"></feColorMatrix>
        </filter>
    </defs>
    <g id="Website" stroke="none" stroke-width="1" fill="none" fill-rule="evenodd">
        <g id="counters" transform="translate(-32.000000, -61.000000)">
            <rect id="Rectangle" x="0" y="0" width="541" height="623"></rect>
            <g id="Group-4" transform="translate(399.312165, 449.374257) rotate(-5.000000) translate(-399.312165, -449.374257) translate(319.312165, 369.374257)">
                <g id="Rectangle">
                    <use fill="black" fill-opacity="1" filter="url(#filter-2)" xlink:href="#path-1"></use>
                    <use fill="#C4E0E4" fill-rule="evenodd" xlink:href="#path-1"></use>
                    <use fill="black" fill-opacity="1" filter="url(#filter-3)" xlink:href="#path-1"></use>
                </g>
                <path d="M109.370612,93.4708155 C108.862449,106.341618 107.713061,111.229015 106.951429,111.229015 C106.178367,111.229015 105.935102,104.10002 104.919184,97.8002712 C103.902857,91.5150702 102.113469,84.3872551 102.113469,84.3872551 L97.5404082,86.0654057 C97.5404082,86.0654057 96.2583673,95.1603688 95.7506122,106.059698 C95.2542857,116.95942 94.8673469,126.478639 93.4526531,126.478639 C92.0722449,126.490041 91.8073469,117.528764 91.2991837,105.916182 C90.7906122,94.310284 89.0130612,87.8823537 89.0130612,87.8823537 L84.8159184,88.4458003 C84.8159184,88.4458003 82.7832653,98.5123449 82.0208163,129.262057 C81.8440816,136.539679 80,138 80,138 C80,138 78.155102,136.539679 77.9783673,129.262057 C77.2167347,98.5123449 75.1726531,88.4458003 75.1726531,88.4458003 L70.9861224,87.8823537 C70.9861224,87.8823537 69.197551,94.310284 68.6893878,105.916182 C68.1812245,117.528764 67.9265306,126.490041 66.5359184,126.478639 C65.1326531,126.478639 64.7457143,116.95942 64.2261224,106.059698 C63.7297959,95.1603688 62.4587755,86.0654057 62.4587755,86.0654057 L57.8857143,84.3872551 C57.8857143,84.3872551 56.0971429,91.5150702 55.0808163,97.8002712 C54.064898,104.10002 53.8102041,111.229015 53.0485714,111.229015 C52.2861224,111.229015 51.1379592,106.341618 50.6293878,93.4708155 C50.1212245,80.6161345 50,78.1032337 50,78.1032337 C50,78.1032337 65.0110204,71.9418887 70.8542857,55.9967053 C76.7085714,40.0609586 78.1885714,26.2240797 78.2326531,24.687872 C78.3093878,22.3035455 80,22 80,22 C80,22 81.4693878,22.3035455 81.7673469,24.687872 C81.9546939,26.2130703 83.2914286,40.0609586 89.144898,55.9967053 C94.9889796,71.9418887 110,78.1032337 110,78.1032337 C110,78.1032337 109.877959,80.6161345 109.370612,93.4708155" id="path3789" fill="#745350" transform="translate(80.000000, 80.000000) scale(-1, 1) rotate(-180.000000) translate(-80.000000, -80.000000) "></path>
            </g>
            <g id="Group-5" transform="translate(164.621540, 423.683631) rotate(14.000000) translate(-164.621540, -423.683631) translate(84.621540, 343.683631)">
                <g id="Rectangle">
                    <use fill="black" fill-opacity="1" filter="url(#filter-5)" xlink:href="#path-4"></use>
                    <use fill="#C4E0E4" fill-rule="evenodd" xlink:href="#path-4"></use>
                    <use fill="black" fill-opacity="1" filter="url(#filter-6)" xlink:href="#path-4"></use>
                </g>
                <path d="M111.781279,79.8995942 C111.845251,73.7906955 109.894086,67.6289516 106.055727,62.8411815 C104.20052,60.8224969 102.675839,58.5184486 100.714011,56.6054544 C96.3851953,52.3461357 89.9026339,52.0607719 84.6888633,49.3868076 C84.3796622,46.6917052 83.3880862,43.9966028 83.9958263,41.2803624 C84.1770822,40.3714259 84.454297,39.4624894 83.96384,38.595829 C82.5990902,35.4779655 83.7719221,32.0853072 83.5266936,28.8300462 C83.3454378,27.1284326 83.462721,25.0463339 81.8207564,24 C81.4369205,27.5406247 80.1254813,30.8381617 79.0592705,34.1885439 C78.5688136,36.8096631 78.5688136,39.5364726 77.4279681,41.9990563 C78.1529914,44.5039162 76.724269,46.607153 75.1782634,48.456733 C71.7557269,50.1900538 67.6934639,50.6022459 64.7080738,53.1493819 C62.5863144,54.9355478 60.2939613,56.4997641 57.9163113,57.9582901 C56.1357393,60.1672171 54.1632494,62.302161 53.3635914,65.0923846 C50.1756212,68.9078041 49.8024475,74.0232141 48.0005513,78.4833443 C47.968565,85.1101255 49.3226526,92.2442201 53.5874956,97.5604416 C56.6475205,100.065302 58.779942,103.426253 61.8293048,105.920544 C64.7613843,107.653864 67.8853818,109.080683 70.9134204,110.63433 C72.8859103,111.088799 74.9223728,111.310748 76.8842006,111.849769 C78.4728546,119.977352 79.5603896,128.295178 82.7590219,136 C83.8145705,132.83986 83.6866252,129.447202 84.6035665,126.244786 C85.8936815,121.52043 83.2494788,116.605832 84.7421739,111.955459 C86.9812164,109.979051 90.702292,111.257903 93.186563,109.566859 C97.9098767,106.681514 102.899743,103.880721 106.32228,99.4628668 C107.59107,96.9262999 110.277921,95.0344437 110.277921,91.9905634 C110.299246,87.9003492 112.708882,84.0637916 111.791941,79.9207323 M76.7775795,104.990469 C73.355043,104.166085 70.177735,102.549023 67.309628,100.562046 C64.228279,98.5222233 63.0767713,94.7279419 60.0274086,92.6352741 C57.1806259,89.2637539 57.788366,84.6556573 56.6261963,80.6605643 C57.095329,77.8703407 57.6497586,75.1118241 57.9376355,72.2898934 C59.3237095,70.0598283 61.4774552,68.2736624 62.0638711,65.57856 C64.1003337,62.682646 67.203007,60.6850996 69.6979401,58.1696707 C71.5104984,56.098141 74.3999295,56.9753704 76.7775795,56.8908182 C76.5430132,59.1737284 76.3510952,61.5411909 76.926849,63.7923941 C77.2040638,65.1769369 77.8437903,66.5403416 77.619886,67.9882986 C77.1400912,71.074455 78.312923,74.1711805 77.4812786,77.2150609 C75.8179898,83.5881853 77.6305481,90.024724 77.7904797,96.4506936 C77.5559134,99.2937624 77.417306,102.157969 76.7669174,104.969331 M102.686501,92.8889308 C100.426134,94.4848542 98.4962926,96.4401246 96.5238027,98.3531188 C93.0906041,100.710012 89.6893918,103.193734 85.6058046,104.377465 C85.9683162,101.49212 86.3308279,98.5116542 85.4032245,95.6897235 C83.1215335,89.295461 85.9150057,82.6052656 86.3841384,76.1475889 C85.9683162,72.3004624 86.3628142,68.1996792 84.5822422,64.6590544 C84.3476759,62.0062282 85.5098456,59.4273851 86.2988416,56.9330943 C88.9963548,58.0005662 91.5445985,59.4485232 93.783641,61.2981032 C96.5024785,63.3167878 100.6607,64.6167783 101.268441,68.3793526 C101.577642,70.8525054 104.307141,72.3427385 104.221844,74.8687364 C104.051251,80.8719449 104.893557,87.1605171 102.686501,92.8889308" id="Shape-Copy" fill="#745350" fill-rule="nonzero"></path>
            </g>
            <g id="Group-5-Copy" transform="translate(373.937908, 169.000000) rotate(38.000000) translate(-373.937908, -169.000000) translate(293.937908, 89.000000)">
                <g id="Rectangle">
                    <use fill="black" fill-opacity="1" filter="url(#filter-8)" xlink:href="#path-7"></use>
                    <use fill="#C4E0E4" fill-rule="evenodd" xlink:href="#path-7"></use>
                    <use fill="black" fill-opacity="1" filter="url(#filter-9)" xlink:href="#path-7"></use>
                </g>
                <path d="M99.6275073,91.346324 C102.742076,86.2154328 108.664624,77.4096671 112.258709,72.5654416 C114.487396,69.5615894 115.202233,68.4541625 115.202233,68.004946 C115.202233,67.6702356 115.074218,67.3630173 114.908284,67.2997587 C114.746383,67.2381015 113.316979,67.4217385 111.731322,67.7078705 C101.997925,69.4636319 92.0932151,70.0473733 84.3943329,69.3189645 C80.9099748,68.9893254 78.3588309,68.5732062 78.0705296,68.2873412 C77.8664058,68.0847533 78.6546625,63.1385666 79.296617,60.5943407 C81.9819609,49.9495363 88.2533213,38.7644976 96.2652471,30.3305433 C97.4994026,29.0317389 98.4587037,27.9192406 98.3979238,27.858918 C98.3366059,27.7983285 97.5771256,27.9744919 96.7098012,28.2504811 C86.542608,31.4844133 75.2386147,31.8095148 67.0997502,29.1022043 C65.9882303,28.7322612 65.0490996,28.4578734 65.0122551,28.4917715 C64.9756795,28.5259366 65.0566298,29.6200178 65.1921745,30.9233597 C66.4685532,43.1880663 60.6003306,59.2661757 48.2897031,77.2335037 C46.4383354,79.9357429 42.8162812,84.7676903 40.7121119,87.3428783 C39.8633442,88.3814413 39.501085,88.9667841 39.6810044,89.0081558 C39.8334921,89.0433885 41.3898351,88.7102796 43.1395444,88.2682697 C48.1337192,87.0065664 52.3116678,86.2319814 58.0196035,85.5105124 C62.3863465,84.9585339 73.1408999,85.0087138 76.8788663,85.5985941 C79.3100639,85.9821498 82.6742068,86.7220359 82.8699935,86.9166163 C82.9103341,86.9566534 82.8127097,87.38425 82.6532296,87.8670977 C81.8074203,90.4246694 80.7206426,95.5107191 80.2196115,99.2541904 C79.2565453,106.449129 79.2573521,118.031069 80.2212251,126.57953 C80.6001585,129.941581 81.2719651,134.254113 81.4647935,134.563733 C81.6291145,134.826911 81.7146367,134.491133 82.4281287,130.782894 C84.4787793,120.121808 90.3948729,106.556162 99.6275073,91.346324 Z" id="path4182-path" fill="#745350" fill-rule="nonzero"></path>
            </g>
            <g id="Group-5-Copy-2" transform="translate(149.000000, 184.062092) rotate(-21.000000) translate(-149.000000, -184.062092) translate(69.000000, 104.062092)">
                <g id="Rectangle">
                    <use fill="black" fill-opacity="1" filter="url(#filter-11)" xlink:href="#path-10"></use>
                    <use fill="#C4E0E4" fill-rule="evenodd" xlink:href="#path-10"></use>
                    <use fill="black" fill-opacity="1" filter="url(#filter-12)" xlink:href="#path-10"></use>
                </g>
                <path d="M26.7080516,48.5752125 L57.3823702,48.5752125 L64.6661704,53.2421507 C63.4900076,60.0240699 64.0443389,64.7188956 66.3291643,67.3266277 C68.6139897,69.9343599 71.4069522,71.7545522 74.7080516,72.7872047 L74.7080516,126.575212 C62.6387131,120.042537 54.2649165,114.691663 49.586662,110.522588 C42.5692803,104.268976 34.6298985,97.6373926 34.6298985,90.101502 C34.6298985,82.5656115 36.5638359,81.496457 36.5638359,71.1793518 C36.5638359,65.1470364 33.2055706,59.3173484 28.1515756,52.2748638 C27.679182,51.6166074 27.1980074,50.3833903 26.7080516,48.5752125 Z M130.708052,48.5752125 C130.218096,50.3833903 129.736921,51.6166074 129.264528,52.2748638 C124.210533,59.3173484 120.852267,65.1470364 120.852267,71.1793518 C120.852267,81.496457 122.786205,82.5656115 122.786205,90.101502 C122.786205,97.6373926 114.846823,104.268976 107.829441,110.522588 C103.151187,114.691663 94.7773902,120.042537 82.7080516,126.575212 L82.7080516,72.7872047 C86.0091511,71.7545522 88.8021135,69.9343599 91.086939,67.3266277 C93.3717644,64.7188956 93.9260957,60.0240699 92.7499329,53.2421507 L100.033733,48.5752125 L130.708052,48.5752125 Z" id="Combined-Shape-Copy" fill="#745350"></path>
            </g>
        </g>
    </g>
</svg>