<svg width="48" height="48" viewBox="0 0 48 48" fill="none" xmlns="http://www.w3.org/2000/svg">
<g clip-path="url(#clip0_412_25)">
<path d="M45.2132 2.78681C46.7753 4.34891 46.7753 6.88157 45.2132 8.44367L29.6569 24L45.2132 39.5564C46.7753 41.1185 46.7753 43.6511 45.2132 45.2132C43.6511 46.7753 41.1184 46.7753 39.5563 45.2132L24 29.6569L8.44365 45.2132C6.88155 46.7753 4.34889 46.7753 2.7868 45.2132C1.2247 43.6511 1.2247 41.1185 2.7868 39.5564L18.3431 24L2.7868 8.44367C1.2247 6.88157 1.2247 4.34891 2.7868 2.78681C4.34889 1.22471 6.88155 1.22471 8.44365 2.78681L24 18.3432L39.5563 2.78681C41.1184 1.22471 43.6511 1.22471 45.2132 2.78681Z" fill="black" style="fill:black;fill-opacity:1;"/>
</g>
<defs>
<clipPath id="clip0_412_25">
<rect width="48" height="48" fill="white" style="fill:white;fill-opacity:1;"/>
</clipPath>
</defs>
</svg>
