<?xml version="1.0" encoding="UTF-8"?>
<svg width="807px" height="329px" viewBox="0 0 807 329" version="1.1" xmlns="http://www.w3.org/2000/svg" xmlns:xlink="http://www.w3.org/1999/xlink">
    <!-- Generator: Sketch 63.1 (92452) - https://sketch.com -->
    <title>logo</title>
    <desc>Created with Sketch.</desc>
    <defs>
        <linearGradient x1="0%" y1="42.5038157%" x2="100%" y2="57.4961843%" id="linearGradient-1">
            <stop stop-color="#FFAD00" offset="0%"></stop>
            <stop stop-color="#FF3137" offset="71.7636108%"></stop>
            <stop stop-color="#FF004C" offset="100%"></stop>
        </linearGradient>
    </defs>
    <g id="Page-1" stroke="none" stroke-width="1" fill="none" fill-rule="evenodd">
        <g id="logo" transform="translate(-10.000000, -33.000000)">
            <g id="Group" transform="translate(411.984850, 183.976086) rotate(-4.000000) translate(-411.984850, -183.976086) translate(9.984850, 27.976086)">
                <g id="b-link" fill="#000000" fill-rule="nonzero">
                    <path d="M529.823818,209.491441 C564.438823,164.011566 602.327207,101.459973 616.920648,84.072042 C623.81563,75.554712 640.85029,84.072042 649.773207,92.994959 C656.262602,99.078767 660.72406,106.784922 655.451427,113.274317 C621.382107,156.672141 630.710611,187.091177 627.465914,229.677828 C625.843566,247.523662 631.521786,276.32035 608.808905,285.648854 C578.893685,297.851115 544.77637,286.750856 526.84757,259.762844 C498.958391,286.76017 473.651938,289.652213 459.147249,279.15946 C450.224332,272.670065 446.979635,263.747148 446.574048,253.607469 C423.45558,280.376221 397.092416,298.222056 370.323664,271.453304 C363.526483,264.55155 359.182813,257.461065 357.007645,249.938546 C341.1608,259.321515 322.618549,261.673428 307.863245,243.873378 C298.53474,256.852167 287.583887,269.425368 277.444209,275.914762 C246.213998,297.005294 223.906705,282.809744 217.011724,277.131524 C210.116742,271.858891 189.026211,262.530387 191.054146,235.356048 C195.515605,181.818544 233.640797,139.231894 251.892218,123.008408 C270.549227,106.784922 284.33919,105.568161 299.345915,114.085491 C342.743739,138.826307 343.149326,162.350361 328.953776,205.342599 C327.331428,209.39847 325.303492,214.265516 322.464382,219.538149 C324.08673,223.999608 326.114666,228.055479 328.953776,229.272241 C335.850144,231.899428 348.330408,225.486022 364.026318,205.080225 C369.149412,194.067908 376.386188,181.968157 385.330389,168.434169 C401.553874,143.693353 424.672342,123.413995 442.112589,114.491078 C456.713726,107.19051 466.447818,109.218445 479.426607,119.358124 C487.132762,125.036344 499.300377,129.90339 499.705964,140.854243 C510.656817,144.910114 522.013257,157.077729 518.362973,162.350361 C514.712688,167.217407 501.7339,183.440893 489.566285,202.909076 C475.370735,224.810782 458.741662,255.229818 470.503689,263.341561 C479.048491,269.257192 507.946532,237.660303 529.82382,209.491439 L529.823818,209.491441 Z M333.492747,0.699458 C345.254774,0.293871 376.079397,34.363191 359.855911,35.579953 C317.674848,39.230237 278.332895,42.069347 238.179767,49.369916 C244.263574,52.614613 247.508272,58.292833 242.235639,67.21575 C195.593117,143.060546 145.705898,226.611499 95.413092,308.945689 C89.734872,319.085368 55.665551,298.806011 61.343771,289.477506 L204.516034,56.670484 C184.236677,61.943117 163.551732,68.432512 142.055614,77.355429 C45.525873,115.886208 22.812992,149.144354 28.491212,156.039335 C35.386194,163.339904 107.580706,113.858272 119.342733,104.935355 C131.104761,95.201263 138.810916,128.053822 109.203055,153.200225 C97.441027,163.339904 45.93146,192.136591 13.078901,171.451647 C-14.906612,154.011399 6.995094,117.508556 32.952671,96.823612 C122.993018,24.6291 256.836776,5.566504 333.492747,0.699458 Z M228.773751,261.719212 C239.724604,270.236542 270.549227,232.516938 283.933603,212.23758 C285.555952,209.804058 287.1783,206.964948 289.206236,203.72025 C283.528016,187.496765 278.255383,165.595059 281.094493,148.965986 C270.954814,157.077729 258.7872,170.056517 246.619586,189.930287 C229.990512,216.293452 219.03966,254.418644 228.773751,261.719212 Z M378.435407,260.502451 C382.085691,265.369497 402.365049,255.635405 442.923763,204.937012 L450.224332,194.391746 C461.175185,177.357086 477.804258,146.93805 471.720451,141.25983 C464.825469,135.58161 434.000846,160.728013 408.448856,198.447618 C391.414196,223.188433 373.973949,254.418644 378.435407,260.502451 Z M568.250191,267.80302 C587.312787,269.425368 591.368658,233.733699 593.802181,201.286728 C594.613355,193.580572 595.018942,185.874416 595.830117,178.573847 C577.984282,200.475553 561.355209,220.349323 545.942898,236.572809 C549.998769,249.146011 555.271402,266.991845 568.250191,267.80302 Z M767.79907,113.274317 C792.53988,114.085491 817.2807,140.854243 790.51195,140.854243 C784.02255,140.854243 763.33761,141.665417 747.11412,141.665417 C729.67387,165.189471 712.63921,189.119113 708.17776,194.797333 C691.1431,218.321388 675.3252,252.390708 683.43694,259.691277 C694.79338,269.830955 734.54092,267.80302 787.26725,195.608507 C792.53988,188.307939 813.63041,204.531425 797.00134,228.461066 C757.65939,284.83768 692.35986,293.760597 675.3252,277.537111 C629.493849,234.544874 657.884949,200.475553 683.84253,163.567123 C687.8984,157.888903 694.38779,149.371573 701.68836,139.231894 C671.674912,139.231894 672.48609,111.651968 682.22018,111.651968 C695.60455,111.651968 695.19897,110.840794 722.77889,111.246381 C740.62473,87.316739 758.06497,64.603859 759.28174,62.981511 C768.61024,52.436245 791.32312,78.393822 786.86166,86.099978 C784.42814,90.155849 777.12757,100.295528 767.79907,113.274317 Z" id="b"></path>
                </g>
                <g id="b-link" fill="url(#linearGradient-1)">
                    <path d="M529.823818,209.491441 C564.438823,164.011566 602.327207,101.459973 616.920648,84.072042 C623.81563,75.554712 640.85029,84.072042 649.773207,92.994959 C656.262602,99.078767 660.72406,106.784922 655.451427,113.274317 C621.382107,156.672141 630.710611,187.091177 627.465914,229.677828 C625.843566,247.523662 631.521786,276.32035 608.808905,285.648854 C578.893685,297.851115 544.77637,286.750856 526.84757,259.762844 C498.958391,286.76017 473.651938,289.652213 459.147249,279.15946 C450.224332,272.670065 446.979635,263.747148 446.574048,253.607469 C423.45558,280.376221 397.092416,298.222056 370.323664,271.453304 C363.526483,264.55155 359.182813,257.461065 357.007645,249.938546 C341.1608,259.321515 322.618549,261.673428 307.863245,243.873378 C298.53474,256.852167 287.583887,269.425368 277.444209,275.914762 C246.213998,297.005294 223.906705,282.809744 217.011724,277.131524 C210.116742,271.858891 189.026211,262.530387 191.054146,235.356048 C195.515605,181.818544 233.640797,139.231894 251.892218,123.008408 C270.549227,106.784922 284.33919,105.568161 299.345915,114.085491 C342.743739,138.826307 343.149326,162.350361 328.953776,205.342599 C327.331428,209.39847 325.303492,214.265516 322.464382,219.538149 C324.08673,223.999608 326.114666,228.055479 328.953776,229.272241 C335.850144,231.899428 348.330408,225.486022 364.026318,205.080225 C369.149412,194.067908 376.386188,181.968157 385.330389,168.434169 C401.553874,143.693353 424.672342,123.413995 442.112589,114.491078 C456.713726,107.19051 466.447818,109.218445 479.426607,119.358124 C487.132762,125.036344 499.300377,129.90339 499.705964,140.854243 C510.656817,144.910114 522.013257,157.077729 518.362973,162.350361 C514.712688,167.217407 501.7339,183.440893 489.566285,202.909076 C475.370735,224.810782 458.741662,255.229818 470.503689,263.341561 C479.048491,269.257192 507.946532,237.660303 529.82382,209.491439 L529.823818,209.491441 Z M333.492747,0.699458 C345.254774,0.293871 376.079397,34.363191 359.855911,35.579953 C317.674848,39.230237 278.332895,42.069347 238.179767,49.369916 C244.263574,52.614613 247.508272,58.292833 242.235639,67.21575 C195.593117,143.060546 145.705898,226.611499 95.413092,308.945689 C89.734872,319.085368 55.665551,298.806011 61.343771,289.477506 L204.516034,56.670484 C184.236677,61.943117 163.551732,68.432512 142.055614,77.355429 C45.525873,115.886208 22.812992,149.144354 28.491212,156.039335 C35.386194,163.339904 107.580706,113.858272 119.342733,104.935355 C131.104761,95.201263 138.810916,128.053822 109.203055,153.200225 C97.441027,163.339904 45.93146,192.136591 13.078901,171.451647 C-14.906612,154.011399 6.995094,117.508556 32.952671,96.823612 C122.993018,24.6291 256.836776,5.566504 333.492747,0.699458 Z M228.773751,261.719212 C239.724604,270.236542 270.549227,232.516938 283.933603,212.23758 C285.555952,209.804058 287.1783,206.964948 289.206236,203.72025 C283.528016,187.496765 278.255383,165.595059 281.094493,148.965986 C270.954814,157.077729 258.7872,170.056517 246.619586,189.930287 C229.990512,216.293452 219.03966,254.418644 228.773751,261.719212 Z M378.435407,260.502451 C382.085691,265.369497 402.365049,255.635405 442.923763,204.937012 L450.224332,194.391746 C461.175185,177.357086 477.804258,146.93805 471.720451,141.25983 C464.825469,135.58161 434.000846,160.728013 408.448856,198.447618 C391.414196,223.188433 373.973949,254.418644 378.435407,260.502451 Z M568.250191,267.80302 C587.312787,269.425368 591.368658,233.733699 593.802181,201.286728 C594.613355,193.580572 595.018942,185.874416 595.830117,178.573847 C577.984282,200.475553 561.355209,220.349323 545.942898,236.572809 C549.998769,249.146011 555.271402,266.991845 568.250191,267.80302 Z M767.79907,113.274317 C792.53988,114.085491 817.2807,140.854243 790.51195,140.854243 C784.02255,140.854243 763.33761,141.665417 747.11412,141.665417 C729.67387,165.189471 712.63921,189.119113 708.17776,194.797333 C691.1431,218.321388 675.3252,252.390708 683.43694,259.691277 C694.79338,269.830955 734.54092,267.80302 787.26725,195.608507 C792.53988,188.307939 813.63041,204.531425 797.00134,228.461066 C757.65939,284.83768 692.35986,293.760597 675.3252,277.537111 C629.493849,234.544874 657.884949,200.475553 683.84253,163.567123 C687.8984,157.888903 694.38779,149.371573 701.68836,139.231894 C671.674912,139.231894 672.48609,111.651968 682.22018,111.651968 C695.60455,111.651968 695.19897,110.840794 722.77889,111.246381 C740.62473,87.316739 758.06497,64.603859 759.28174,62.981511 C768.61024,52.436245 791.32312,78.393822 786.86166,86.099978 C784.42814,90.155849 777.12757,100.295528 767.79907,113.274317 Z" id="b"></path>
                </g>
            </g>
        </g>
    </g>
</svg>