<svg xmlns="http://www.w3.org/2000/svg" width="815" height="336" viewBox="0 0 815 336" xmlns:xlink="http://www.w3.org/1999/xlink">
  <defs>
    <path id="b" d="M857.823818,372.491441 C892.438823,327.011566 930.327207,264.459973 944.920648,247.072042 C951.81563,238.554712 968.85029,247.072042 977.773207,255.994959 C984.262602,262.078767 988.72406,269.784922 983.451427,276.274317 C949.382107,319.672141 958.710611,350.091177 955.465914,392.677828 C953.843566,410.523662 959.521786,439.32035 936.808905,448.648854 C906.893685,460.851115 872.77637,449.750856 854.84757,422.762844 C826.958391,449.76017 801.651938,452.652213 787.147249,442.15946 C778.224332,435.670065 774.979635,426.747148 774.574048,416.607469 C751.45558,443.376221 725.092416,461.222056 698.323664,434.453304 C691.526483,427.55155 687.182813,420.461065 685.007645,412.938546 C669.1608,422.321515 650.618549,424.673428 635.863245,406.873378 C626.53474,419.852167 615.583887,432.425368 605.444209,438.914762 C574.213998,460.005294 551.906705,445.809744 545.011724,440.131524 C538.116742,434.858891 517.026211,425.530387 519.054146,398.356048 C523.515605,344.818544 561.640797,302.231894 579.892218,286.008408 C598.549227,269.784922 612.33919,268.568161 627.345915,277.085491 C670.743739,301.826307 671.149326,325.350361 656.953776,368.342599 C655.331428,372.39847 653.303492,377.265516 650.464382,382.538149 C652.08673,386.999608 654.114666,391.055479 656.953776,392.272241 C663.850144,394.899428 676.330408,388.486022 692.026318,368.080225 C697.149412,357.067908 704.386188,344.968157 713.330389,331.434169 C729.553874,306.693353 752.672342,286.413995 770.112589,277.491078 C784.713726,270.19051 794.447818,272.218445 807.426607,282.358124 C815.132762,288.036344 827.300377,292.90339 827.705964,303.854243 C838.656817,307.910114 850.013257,320.077729 846.362973,325.350361 C842.712688,330.217407 829.7339,346.440893 817.566285,365.909076 C803.370735,387.810782 786.741662,418.229818 798.503689,426.341561 C807.048491,432.257192 835.946532,400.660303 857.82382,372.491439 Z M661.492747,163.699458 C673.254774,163.293871 704.079397,197.363191 687.855911,198.579953 C645.674848,202.230237 606.332895,205.069347 566.179767,212.369916 C572.263574,215.614613 575.508272,221.292833 570.235639,230.21575 C523.593117,306.060546 473.705898,389.611499 423.413092,471.945689 C417.734872,482.085368 383.665551,461.806011 389.343771,452.477506 L532.516034,219.670484 C512.236677,224.943117 491.551732,231.432512 470.055614,240.355429 C373.525873,278.886208 350.812992,312.144354 356.491212,319.039335 C363.386194,326.339904 435.580706,276.858272 447.342733,267.935355 C459.104761,258.201263 466.810916,291.053822 437.203055,316.200225 C425.441027,326.339904 373.93146,355.136591 341.078901,334.451647 C313.093388,317.011399 334.995094,280.508556 360.952671,259.823612 C450.993018,187.6291 584.836776,168.566504 661.492747,163.699458 Z M556.773751,424.719212 C567.724604,433.236542 598.549227,395.516938 611.933603,375.23758 C613.555952,372.804058 615.1783,369.964948 617.206236,366.72025 C611.528016,350.496765 606.255383,328.595059 609.094493,311.965986 C598.954814,320.077729 586.7872,333.056517 574.619586,352.930287 C557.990512,379.293452 547.03966,417.418644 556.773751,424.719212 Z M706.435407,423.502451 C710.085691,428.369497 730.365049,418.635405 770.923763,367.937012 L778.224332,357.391746 C789.175185,340.357086 805.804258,309.93805 799.720451,304.25983 C792.825469,298.58161 762.000846,323.728013 736.448856,361.447618 C719.414196,386.188433 701.973949,417.418644 706.435407,423.502451 Z M896.250191,430.80302 C915.312787,432.425368 919.368658,396.733699 921.802181,364.286728 C922.613355,356.580572 923.018942,348.874416 923.830117,341.573847 C905.984282,363.475553 889.355209,383.349323 873.942898,399.572809 C877.998769,412.146011 883.271402,429.991845 896.250191,430.80302 Z M1095.79907,276.274317 C1120.53988,277.085491 1145.2807,303.854243 1118.51195,303.854243 C1112.02255,303.854243 1091.33761,304.665417 1075.11412,304.665417 C1057.67387,328.189471 1040.63921,352.119113 1036.17776,357.797333 C1019.1431,381.321388 1003.3252,415.390708 1011.43694,422.691277 C1022.79338,432.830955 1062.54092,430.80302 1115.26725,358.608507 C1120.53988,351.307939 1141.63041,367.531425 1125.00134,391.461066 C1085.65939,447.83768 1020.35986,456.760597 1003.3252,440.537111 C957.493849,397.544874 985.884949,363.475553 1011.84253,326.567123 C1015.8984,320.888903 1022.38779,312.371573 1029.68836,302.231894 C999.674912,302.231894 1000.48609,274.651968 1010.22018,274.651968 C1023.60455,274.651968 1023.19897,273.840794 1050.77889,274.246381 C1068.62473,250.316739 1086.06497,227.603859 1087.28174,225.981511 C1096.61024,215.436245 1119.32312,241.393822 1114.86166,249.099978 C1112.42814,253.155849 1105.12757,263.295528 1095.79907,276.274317 Z"/>
    <filter id="a" width="200%" height="200%" x="-50%" y="-50%" filterUnits="objectBoundingBox">
      <feOffset dy="2" in="SourceAlpha" result="shadowOffsetOuter1"/>
      <feGaussianBlur stdDeviation="2" in="shadowOffsetOuter1" result="shadowBlurOuter1"/>
      <feColorMatrix values="0 0 0 0 0 0 0 0 0 0 0 0 0 0 0 0 0 0 0.216995018 0" in="shadowBlurOuter1"/>
    </filter>
  </defs>
  <g fill="none" transform="rotate(-4 -1809.159 4875.278)">
    <use fill="black" filter="url(#a)" xlink:href="#b"/>
    <use fill="#FFFFFF" fill-rule="evenodd" xlink:href="#b"/>
  </g>
</svg>
