<?xml version="1.0" encoding="UTF-8"?>
<svg width="32px" height="32px" viewBox="0 0 32 32" version="1.1" xmlns="http://www.w3.org/2000/svg" xmlns:xlink="http://www.w3.org/1999/xlink">
    <title>favicon</title>
    <g id="favicon" stroke="none" stroke-width="1" fill="none" fill-rule="evenodd">
        <path d="M16.9433594,30.4970703 L27.6894531,24.3994141 C28.9472656,23.6884766 29.6035156,22.9638672 29.6035156,21.0087891 L29.6035156,10.1806641 C29.6035156,8.75878906 29.0839844,7.87011719 27.9355469,7.21386719 L18.2558594,1.71777344 C16.6015625,0.760742188 15.0019531,0.760742188 13.3476562,1.71777344 L3.68164062,7.21386719 C2.51953125,7.87011719 2,8.75878906 2,10.1806641 L2,21.0087891 C2,22.9638672 2.66992188,23.6884766 3.9140625,24.3994141 L14.6738281,30.4970703 C15.4394531,30.9345703 16.1640625,30.9345703 16.9433594,30.4970703 Z M16.7382812,14.2548828 L16.7382812,12.0810547 L14.8652344,12.0810547 L14.8652344,14.2548828 L5.25390625,8.81347656 L14.2636719,3.67285156 C14.46875,3.56347656 14.6738281,3.46777344 14.8652344,3.38574219 L14.8652344,5.68261719 L16.7382812,5.68261719 L16.7382812,3.38574219 C16.9433594,3.46777344 17.1484375,3.56347656 17.3535156,3.67285156 L26.3632812,8.81347656 L16.7382812,14.2548828 Z M16.7382812,10.6865234 L16.7382812,7.06347656 L14.8652344,7.06347656 L14.8652344,10.6865234 L16.7382812,10.6865234 Z M14.7285156,28.0498047 L5.14453125,22.5947266 L5.07617188,22.5673828 L6.73046875,21.7333984 L5.8828125,20.0517578 L4.078125,20.9541016 L4.078125,10.6181641 L13.7578125,16.1552734 L11.625,17.2216797 L12.4589844,18.9033203 L14.7285156,17.7685547 L14.7285156,28.0498047 Z M16.875,28.0498047 L16.875,17.7685547 L19.1445312,18.9033203 L19.9785156,17.2216797 L17.8457031,16.1552734 L27.5253906,10.6181641 L27.5253906,20.9541016 L25.734375,20.0517578 L24.8730469,21.7333984 L26.5273438,22.5673828 L26.4726562,22.5947266 L16.875,28.0498047 Z M7.97460938,21.1318359 L11.2011719,19.5185547 L10.3671875,17.8369141 L7.140625,19.4501953 L7.97460938,21.1318359 Z M23.6425781,21.1318359 L24.4765625,19.4501953 L21.2363281,17.8369141 L20.4023438,19.5185547 L23.6425781,21.1318359 Z" id="Зђге" fill="#FAC000" fill-rule="nonzero"></path>
    </g>
</svg>