<?xml version="1.0" encoding="UTF-8"?>
<svg width="279px" height="279px" viewBox="0 0 279 279" version="1.1" xmlns="http://www.w3.org/2000/svg" xmlns:xlink="http://www.w3.org/1999/xlink">
    <!-- Generator: Sketch 52.5 (67469) - http://www.bohemiancoding.com/sketch -->
    <title>Group 9</title>
    <desc>Created with Sketch.</desc>
    <defs>
        <linearGradient x1="50%" y1="8.60856525e-15%" x2="50%" y2="99.8148483%" id="linearGradient-1">
            <stop stop-color="#8FA8DD" offset="0%"></stop>
            <stop stop-color="#A5BFEE" offset="100%"></stop>
        </linearGradient>
        <path d="M13.4696576,76.6953732 C5.15973955,68.5816081 3.97903932e-13,57.2499275 3.97903932e-13,44.7119133 C3.97903932e-13,20.0383389 19.9817905,0.0364548824 44.6305783,0.0364548824 C69.2793661,0.0364548824 89.2611567,20.0383389 89.2611567,44.7119133 C89.2611567,57.3676612 84.0040608,68.7943139 75.5565735,76.9230886 C66.7695128,70.6090208 55.9951488,66.8913952 44.3534373,66.8913952 C32.8523776,66.8913952 22.1978339,70.5197328 13.4696576,76.6953732 Z" id="path-2"></path>
        <linearGradient x1="50%" y1="8.60856525e-15%" x2="50%" y2="99.8148483%" id="linearGradient-4">
            <stop stop-color="#0969C1" offset="0%"></stop>
            <stop stop-color="#0582BC" offset="100%"></stop>
        </linearGradient>
        <path d="M87.8568792,33.6228866 C69.3304034,42.0621218 56.4498293,60.7556747 56.4498293,82.460944 C56.4498293,84.264141 56.5387271,86.046552 56.7123747,87.8040244 C52.8698172,88.8831492 48.8175283,89.4602815 44.6305783,89.4602815 C19.9817905,89.4602815 5.47117907e-13,69.4583974 5.47117907e-13,44.784823 C5.47117907e-13,20.1112487 19.9817905,0.109364647 44.6305783,0.109364647 C65.4291286,0.109364647 82.9048151,14.3505422 87.8568792,33.6228866 Z" id="path-5"></path>
        <linearGradient x1="50%" y1="8.60856525e-15%" x2="50%" y2="98.4107512%" id="linearGradient-7">
            <stop stop-color="#62BA56" offset="0%"></stop>
            <stop stop-color="#5AC37D" offset="100%"></stop>
        </linearGradient>
        <path d="M56.7037821,2.24106599 C56.5357951,3.97012746 56.4498293,5.72323826 56.4498293,7.49644946 C56.4498293,29.2355786 69.3706217,47.9535876 87.9436233,56.3739272 C83.0159119,75.6817493 65.5231142,89.9573935 44.6994108,89.9573935 C20.050623,89.9573935 0.0688324192,69.9555094 0.0688324192,45.2819351 C0.0688324192,20.6083607 20.050623,0.60647668 44.6994108,0.60647668 C48.8582464,0.60647668 52.8842234,1.17588433 56.7037821,2.24106599 Z" id="path-8"></path>
        <linearGradient x1="50%" y1="0%" x2="50%" y2="100%" id="linearGradient-10">
            <stop stop-color="#F4D23F" offset="0%"></stop>
            <stop stop-color="#FAE277" offset="100%"></stop>
        </linearGradient>
        <path d="M14.719244,0.644579644 C23.4292037,6.77832347 34.0472264,10.3796992 45.5054746,10.3796992 C56.8243809,10.3796992 67.3233732,6.86538236 75.9730994,0.867228589 C84.5265611,9.00649532 89.8589119,20.5058148 89.8589119,33.2518239 C89.8589119,57.9253983 69.8771214,77.9272823 45.2283336,77.9272823 C20.5795458,77.9272823 0.597755219,57.9253983 0.597755219,33.2518239 C0.597755219,20.3891511 6.02816631,8.79609424 14.719244,0.644579644 Z" id="path-11"></path>
        <linearGradient x1="50%" y1="8.60856525e-15%" x2="50%" y2="98.2372111%" id="linearGradient-13">
            <stop stop-color="#FF9C55" offset="0%"></stop>
            <stop stop-color="#FFB14F" offset="100%"></stop>
        </linearGradient>
        <linearGradient x1="50%" y1="3.768299%" x2="50%" y2="99.8148483%" id="linearGradient-14">
            <stop stop-color="#CE406A" offset="0%"></stop>
            <stop stop-color="#E2444B" offset="100%"></stop>
        </linearGradient>
        <path d="M30.8695102,87.5227463 C31.0253356,85.8564566 31.105008,84.1680148 31.105008,82.460944 C31.105008,60.9645381 18.4711331,42.4221657 0.2312076,33.8693535 C5.05849921,14.4167286 22.6210239,-2.84217094e-14 43.5473734,-2.84217094e-14 C68.1961612,-2.84217094e-14 88.1779518,20.001884 88.1779518,44.6754584 C88.1779518,69.3490328 68.1961612,89.3509168 43.5473734,89.3509168 C39.1433089,89.3509168 34.8882331,88.7123782 30.8695008,87.5227435 Z" id="path-15"></path>
    </defs>
    <g id="Promo-Website" stroke="none" stroke-width="1" fill="none" fill-rule="evenodd">
        <g id="Desktop-HD-Copy" transform="translate(-891.000000, -1383.000000)">
            <g id="Group-10-Copy-2" transform="translate(740.000000, 1249.000000)">
                <g id="Group-9" transform="translate(151.000000, 134.000000)">
                    <path d="M97.271025,0 L181.728975,0 C209.73825,0 223.7394,0 238.817025,4.76625 C255.278025,10.757775 268.242225,23.721975 274.23375,40.182975 C279,55.258275 279,69.264075 279,97.271025 L279,181.728975 C279,209.73825 279,223.7394 274.23375,238.817025 C268.242225,255.278025 255.278025,268.242225 238.817025,274.231425 C223.7394,279 209.73825,279 181.728975,279 L97.271025,279 C69.26175,279 55.258275,279 40.182975,274.231425 C23.721975,268.242225 10.757775,255.278025 4.76625,238.817025 C0,223.7394 0,209.73825 0,181.728975 L0,97.271025 C0,69.264075 0,55.258275 4.76625,40.182975 C10.757775,23.721975 23.721975,10.757775 40.182975,4.76625 C55.258275,0 69.26175,0 97.271025,0 L97.271025,0" id="Icon-Shape" fill="#1A1A1A"></path>
                    <g id="Group" transform="translate(29.000000, 19.000000)">
                        <g id="Group-2" transform="translate(0.000000, 38.058897)">
                            <mask id="mask-3" fill="white">
                                <use xlink:href="#path-2"></use>
                            </mask>
                            <use id="Combined-Shape" fill="url(#linearGradient-1)" xlink:href="#path-2"></use>
                            <g id="flying" mask="url(#mask-3)" fill="#FFFFFF">
                                <g transform="translate(16.128523, 16.146199)" id="Path-11">
                                    <path d="M57.5999989,3.45599993 C49.4978634,9.7145888 41.909635,13.4473379 34.8353137,14.6542473 C24.2238319,16.4646113 6.78463727,19.5731167 2.20148025,27.8454269 C-2.38167677,36.117737 -0.542144254,51.1041188 14.7587662,54.2090291 C30.0596767,57.3139394 39.076223,45.2903055 38.5983145,44.4091168 C38.3893818,44.0238776 36.0040827,45.1782427 33.5137375,45.742115 C30.307716,46.4680331 26.8289143,46.6383869 26.5559259,45.742115 C26.2511902,44.7416107 32.7538215,43.3959524 38.0181313,40.5321211 C41.1328522,38.8376853 43.8504322,36.19112 44.3693462,33.912069 C44.5219362,33.2418993 40.3137333,35.8406873 35.700847,37.3588258 C31.4254303,38.7659004 26.5559259,39.1330981 26.5559259,38.1139518 C26.5559259,36.4337926 34.5355313,34.0392403 41.7574639,30.4755504 C47.0693379,27.8543862 51.8980123,24.1285596 51.8980123,20.4507885 C51.8980123,20.0457201 47.779897,23.0993693 42.794944,25.2374992 C35.6265831,28.3121293 26.8725337,30.6456619 26.1392279,28.1342848 C25.8197862,27.0402822 38.3738401,24.8449306 47.5911441,17.5881562 C53.7360135,12.7503066 57.0722984,8.03958784 57.5999989,3.45599993 Z"></path>
                                </g>
                            </g>
                        </g>
                        <g id="Group-6" transform="translate(0.000000, 114.176692)">
                            <mask id="mask-6" fill="white">
                                <use xlink:href="#path-5"></use>
                            </mask>
                            <use id="Combined-Shape" fill="url(#linearGradient-4)" xlink:href="#path-5"></use>
                            <g id="dragon" mask="url(#mask-6)" fill="#FFFFFF">
                                <g transform="translate(14.206784, 12.111947)" id="Path-23">
                                    <path d="M5.75999989,33.625953 C8.12942639,26.5255892 10.0255179,22.0866641 11.4482745,20.3091778 C13.5824094,17.6429482 26.1765085,10.8852703 27.7804766,8.13474087 C28.8497887,6.30105456 29.5812859,3.58947427 29.9749682,0 C32.5237217,6.00176087 32.5237217,9.95343687 29.9749682,11.855028 C40.5761952,11.855028 51.839999,21.1797688 51.839999,35.1561176 C51.839999,49.1324665 41.6470001,56.3078276 35.2234998,56.3078276 C28.7999994,56.3078276 23.4371476,50.4047209 24.3109557,46.7563104 C29.9749682,48.8680221 39.0082537,43.6175704 39.0082537,37.1425257 C39.0082537,30.6674811 34.0436277,27.0013897 33.3180044,26.2280435 C32.8342555,25.7124794 32.5923811,24.1936819 32.5923811,21.6716511 C32.5162758,23.9712616 31.8651859,25.4900591 30.6391113,26.2280435 C29.4130367,26.9660279 21.1199996,29.4319978 5.75999989,33.625953 Z M14.4353519,27.0721132 C16.9141013,25.8959203 18.4561977,24.958962 19.0616409,24.2612381 C20.4831462,22.6230697 20.1624111,20.5578713 20.1624111,19.7941261 C20.1624111,18.5424428 18.5992992,19.3730597 15.4730755,22.2859767 L14.4353519,27.0721132 Z M29.6541862,57.5999989 C15.9454515,56.6716156 8.63402612,50.7249707 7.71991005,39.7600642 C14.7377929,38.2602646 19.8206802,36.5021705 22.9685722,34.4857818 C21.5534005,38.7008995 21.021306,43.0053222 21.3722887,47.39905 C21.7232714,51.7927778 24.4839039,55.1930941 29.6541862,57.5999989 Z"></path>
                                </g>
                            </g>
                        </g>
                        <g id="Group-5" transform="translate(65.666128, 151.082289)">
                            <mask id="mask-9" fill="white">
                                <use xlink:href="#path-8"></use>
                            </mask>
                            <use id="Combined-Shape" fill="url(#linearGradient-7)" xlink:href="#path-8"></use>
                            <g id="grass" mask="url(#mask-9)" fill="#FFFFFF">
                                <g transform="translate(17.089392, 22.101086)" id="Combined-Shape">
                                    <path d="M27.5586201,-3.93491312 C27.5725547,-3.94741071 27.586496,-3.9599109 27.600444,-3.97241371 L27.600444,-3.89739189 C41.9725611,8.99974083 49.1586197,19.1139599 49.1586197,26.4452654 C49.1586197,47.5720307 31.9338624,49.6551714 30.5708833,49.6551714 C29.6622305,49.6551714 29.147637,49.0120777 29.0271029,47.7258904 L28.6463314,36.0328462 L36.681163,26.4452654 L28.6463314,31.3010068 L28.0207159,25.0221361 L34.1845098,18.0466796 L28.6463314,21.189896 L27.5586201,6.37951455 L26.4709089,21.189896 L20.9327305,18.0466796 L27.0965244,25.0221361 L26.4709089,31.3010068 L18.4360773,26.4452654 L26.4709089,36.0328462 L26.0901373,47.7258904 C25.9696032,49.0120777 25.4550098,49.6551714 24.546357,49.6551714 C23.1833779,49.6551714 5.95862057,47.5720307 5.95862057,26.4452654 C5.95862057,19.1139599 13.1446791,8.99974083 27.5167963,-3.89739189 L27.5167963,-3.97241371 C27.5307443,-3.9599109 27.5446856,-3.94741071 27.5586201,-3.93491312 Z" transform="translate(27.558620, 22.841379) rotate(35.000000) translate(-27.558620, -22.841379) "></path>
                                </g>
                            </g>
                        </g>
                        <g id="Group-4" transform="translate(130.180219, 125.709691)">
                            <mask id="mask-12" fill="white">
                                <use xlink:href="#path-11"></use>
                            </mask>
                            <use id="Combined-Shape" fill="url(#linearGradient-10)" xlink:href="#path-11"></use>
                            <g id="electric" mask="url(#mask-12)" fill="#FFFFFF">
                                <g transform="translate(16.128523, 4.613200)" id="Path-3">
                                    <polygon points="16.8725174 0 37.3283647 0 47.2319991 31.7087764 31.0030456 31.7087764 38.5417543 57.5999989 10.3679998 20.6312017 23.9033202 20.6312017"></polygon>
                                </g>
                            </g>
                        </g>
                        <g id="Group-7" transform="translate(131.332256, 38.058897)">
                            <path d="M0.694881721,55.2515655 C19.3045366,46.8462015 32.2570453,28.1089435 32.2570453,6.34314954 C32.2570453,4.77044624 32.1894217,3.2135546 32.0569265,1.67522972 C35.8809392,0.607354863 39.9120143,0.0364548824 44.0762962,0.0364548824 C68.725084,0.0364548824 88.7068746,20.0383389 88.7068746,44.7119133 C88.7068746,69.3854876 68.725084,89.3873717 44.0762962,89.3873717 C23.0545127,89.3873717 5.42730521,74.8388492 0.694881721,55.2515655 Z" id="Combined-Shape" fill="url(#linearGradient-13)"></path>
                            <g id="fire" transform="translate(14.976485, 16.146199)" fill="#FFFFFF">
                                <path d="M28.3376103,0.510240076 C32.3491077,3.67085856 34.3548565,6.98424105 34.3548565,10.4503876 C34.3548565,15.9301206 29.3415223,15.9345517 29.3415223,20.5502298 C29.3415223,25.1659079 31.3354508,26.8718625 34.3548565,26.8718625 C40.5036314,26.8718625 43.0187964,23.6999291 41.9003516,17.3560624 L41.9003842,17.3560566 C41.8727708,17.1994324 41.9773547,17.0500784 42.1339789,17.022465 C42.2216772,17.0070035 42.3115951,17.0329855 42.3775307,17.0928399 C47.1425988,21.4184303 49.5251329,27.3941746 49.5251329,35.0200729 C49.5251329,42.7737367 44.7261131,47.3263059 35.1280733,48.6777804 L35.1280772,48.6778082 C34.9705576,48.6999881 34.8248823,48.5902736 34.8027024,48.432754 C34.791537,48.3534586 34.8138868,48.2730944 34.8643877,48.2109488 C36.3521403,46.3801455 37.0960166,43.774152 37.0960166,40.3929684 C37.0960166,35.756612 33.1820686,33.27089 28.7891333,33.27089 C24.396198,33.27089 20.6166101,36.1736232 20.6166101,41.3894625 C20.6166101,46.6053019 24.7254007,52.4168714 32.6018118,52.4168714 C37.4168833,52.4168714 41.6175437,50.9561577 45.2037929,48.0347303 L45.2038838,48.0348419 C45.3271413,47.934434 45.5084579,47.9529572 45.6088658,48.0762147 C45.6789938,48.1623015 45.6933566,48.2810469 45.6457757,48.3813711 C42.5649418,54.8773104 37.1301907,57.9501863 29.3415223,57.5999989 C4.27302585,56.4728907 5.03859365,28.7999994 10.3682302,22.5634039 C10.452109,22.4652512 8.18306936,33.1649396 12.5607651,36.1470369 C11.2064078,26.2042508 13.6113137,21.8800374 17.1139619,18.3184571 C20.6166101,14.7568768 26.5847519,11.7056248 27.9631371,7.66532797 C28.7901682,5.24114991 28.7939398,2.92909356 27.9744519,0.729158921 L28.1030998,0.681236846 C28.0740435,0.603234611 28.1137221,0.516446547 28.1917243,0.48739028 C28.2410089,0.46903149 28.2962992,0.477691482 28.3376103,0.510240076 Z" id="Path-24"></path>
                            </g>
                        </g>
                        <g id="Group-3" transform="translate(66.818165, 0.000000)">
                            <mask id="mask-16" fill="white">
                                <use xlink:href="#path-15"></use>
                            </mask>
                            <use id="Combined-Shape" fill="url(#linearGradient-14)" xlink:href="#path-15"></use>
                            <g id="fighting" mask="url(#mask-16)" fill="#FFFFFF">
                                <g transform="translate(14.976485, 16.146199)" id="Rectangle-2">
                                    <path d="M15.6602949,7.5067141 C15.7182642,7.49445076 15.7783786,7.48799985 15.8399997,7.48799985 L16.9919997,7.48799985 C17.4691737,7.48799985 17.8559996,7.87482582 17.8559996,8.35199983 L17.8559996,9.21599982 L17.8559996,22.1759996 C17.8559996,23.6075216 19.0164776,24.7679995 20.4479996,24.7679995 C21.8795216,24.7679995 23.0399995,23.6075216 23.0399995,22.1759996 L23.0399995,9.21599982 L23.0399995,8.35199983 C23.0399995,7.87482582 23.4268255,7.48799985 23.9039995,7.48799985 L23.0399995,7.48799985 L30.5279994,7.48799985 L29.6639994,7.48799985 C30.1411734,7.48799985 30.5279994,7.87482582 30.5279994,8.35199983 L30.5279994,9.21599982 L30.5279994,22.1759996 C30.5279994,23.6075216 31.6884773,24.7679995 33.1199993,24.7679995 C34.5515214,24.7679995 35.7119993,23.6075216 35.7119993,22.1759996 L35.7119993,9.21599982 L35.7119993,8.35199983 C35.7119993,7.87482582 36.0988253,7.48799985 36.5759993,7.48799985 L35.7119993,7.48799985 L42.6239992,7.48799985 L41.7599992,7.48799985 C42.2371732,7.48799985 42.6239992,7.87482582 42.6239992,8.35199983 L42.6239992,9.21599982 L42.6239992,22.1759996 C42.6239992,23.6075216 43.7844771,24.7679995 45.2159991,24.7679995 C46.6475211,24.7679995 47.8079991,23.6075216 47.8079991,22.1759996 L47.8079991,9.21599982 L47.8079991,8.35199983 C47.8079991,7.87482582 48.194825,7.48799985 48.671999,7.48799985 L49.823999,7.48799985 C49.8856201,7.48799985 49.9457345,7.49445076 50.0037038,7.5067141 C52.9661296,7.74476392 55.2959989,10.2242968 55.2959989,13.2479997 L55.2959989,44.3519991 C55.2959989,47.5331592 52.7171591,50.111999 49.535999,50.111999 L16.1279997,50.111999 C12.9468396,50.111999 10.3679998,47.5331592 10.3679998,44.3519991 L10.3679998,13.2479997 C10.3679998,10.2242968 12.6978691,7.74476392 15.6602949,7.5067141 Z M2.30399995,31.6799994 C2.30399995,30.009297 3.67338624,26.7827853 6.41215881,22.0004644 C6.57024786,21.724408 6.92219351,21.6287812 7.1982478,21.7868739 C7.37744959,21.8895004 7.48799985,22.0802066 7.48799985,22.2867144 L7.48799985,43.1999991 C4.03199992,37.396756 2.30399995,33.5567561 2.30399995,31.6799994 Z"></path>
                                </g>
                            </g>
                        </g>
                    </g>
                </g>
            </g>
        </g>
    </g>
</svg>