<?xml version="1.0" encoding="UTF-8"?>
<svg width="393px" height="31px" viewBox="0 0 393 31" version="1.1" xmlns="http://www.w3.org/2000/svg" xmlns:xlink="http://www.w3.org/1999/xlink">
    <!-- Generator: Sketch 52.5 (67469) - http://www.bohemiancoding.com/sketch -->
    <title>label_item</title>
    <desc>Created with Sketch.</desc>
    <g id="label_item" stroke="none" stroke-width="1" fill="none" fill-rule="evenodd">
        <path d="M79.2,23.168 L76,23.168 L76,0.48 L79.2,0.48 L79.2,23.168 Z M88.672,2.912 L88.672,7.776 L92,7.776 L92,10.496 L88.672,10.496 L88.672,18.496 C88.672,19.904 89.248,20.608 90.816,20.608 C91.2,20.608 91.744,20.544 92,20.48 L92,23.04 C91.744,23.136 90.976,23.328 89.952,23.328 C87.328,23.328 85.664,21.728 85.664,18.944 L85.664,10.496 L82.72,10.496 L82.72,7.776 L83.552,7.776 C85.216,7.776 85.92,6.752 85.92,5.408 L85.92,2.912 L88.672,2.912 Z M97.792,13.888 L106.208,13.888 C106.144,11.68 104.704,9.952 101.984,9.952 C99.456,9.952 97.92,11.904 97.792,13.888 Z M106.656,17.888 L109.248,18.784 C108.384,21.504 105.92,23.648 102.336,23.648 C98.208,23.648 94.592,20.64 94.592,15.424 C94.592,10.592 98.08,7.296 101.952,7.296 C106.688,7.296 109.344,10.56 109.344,15.36 C109.344,15.744 109.312,16.128 109.28,16.32 L97.696,16.32 C97.76,19.072 99.744,20.992 102.336,20.992 C104.832,20.992 106.08,19.616 106.656,17.888 Z M116.16,23.168 L113.184,23.168 L113.184,7.776 L116.064,7.776 L116.064,9.824 C117.024,8.128 118.944,7.328 120.736,7.328 C122.656,7.328 124.512,8.256 125.344,10.24 C126.56,8.032 128.544,7.328 130.496,7.328 C133.184,7.328 135.808,9.152 135.808,13.184 L135.808,23.168 L132.832,23.168 L132.832,13.504 C132.832,11.488 131.84,9.984 129.568,9.984 C127.456,9.984 126.016,11.648 126.016,13.856 L126.016,23.168 L123.008,23.168 L123.008,13.504 C123.008,11.52 122.048,9.984 119.744,9.984 C117.6,9.984 116.16,11.584 116.16,13.888 L116.16,23.168 Z M152.128,23.168 L148.928,23.168 L148.928,0.48 L152.128,0.48 L152.128,23.168 Z M160.576,14.272 L160.576,23.168 L157.568,23.168 L157.568,7.776 L160.512,7.776 L160.512,9.984 C161.632,8.064 163.456,7.328 165.248,7.328 C168.928,7.328 170.752,9.984 170.752,13.408 L170.752,23.168 L167.744,23.168 L167.744,13.92 C167.744,11.776 166.848,10.048 164.16,10.048 C161.792,10.048 160.576,11.936 160.576,14.272 Z M177.344,15.424 C177.344,18.592 178.976,20.928 181.856,20.928 C184.608,20.928 186.304,18.528 186.304,15.36 C186.304,12.192 184.64,10.016 181.888,10.016 C179.136,10.016 177.344,12.256 177.344,15.424 Z M186.336,21.088 L186.336,20.832 C185.6,22.304 183.968,23.584 181.568,23.584 C177.056,23.584 174.272,20 174.272,15.424 C174.272,11.072 177.216,7.36 181.568,7.36 C184.288,7.36 185.76,8.704 186.272,9.952 L186.272,0 L189.248,0 L189.248,20.32 C189.248,21.792 189.376,22.912 189.408,23.168 L186.496,23.168 C186.432,22.816 186.336,22.016 186.336,21.088 Z M204.352,21.312 C203.52,22.912 201.6,23.648 199.808,23.648 C196.224,23.648 194.048,20.96 194.048,17.472 L194.048,7.776 L197.056,7.776 L197.056,17.024 C197.056,19.136 198.016,20.992 200.544,20.992 C202.976,20.992 204.192,19.392 204.192,17.056 L204.192,7.776 L207.2,7.776 L207.2,20.32 C207.2,21.536 207.296,22.624 207.36,23.168 L204.48,23.168 C204.416,22.816 204.352,21.952 204.352,21.312 Z M218.624,10.08 C216.192,10.08 213.952,11.872 213.952,15.456 C213.952,18.976 216.16,20.864 218.656,20.864 C221.536,20.864 222.592,18.912 222.944,17.696 L225.6,18.848 C224.864,21.056 222.656,23.648 218.656,23.648 C214.176,23.648 210.88,20.128 210.88,15.456 C210.88,10.656 214.24,7.296 218.624,7.296 C222.72,7.296 224.832,9.856 225.472,12.192 L222.752,13.344 C222.368,11.84 221.248,10.08 218.624,10.08 Z M230.912,13.888 L239.328,13.888 C239.264,11.68 237.824,9.952 235.104,9.952 C232.576,9.952 231.04,11.904 230.912,13.888 Z M239.776,17.888 L242.368,18.784 C241.504,21.504 239.04,23.648 235.456,23.648 C231.328,23.648 227.712,20.64 227.712,15.424 C227.712,10.592 231.2,7.296 235.072,7.296 C239.808,7.296 242.464,10.56 242.464,15.36 C242.464,15.744 242.432,16.128 242.4,16.32 L230.816,16.32 C230.88,19.072 232.864,20.992 235.456,20.992 C237.952,20.992 239.2,19.616 239.776,17.888 Z M249.28,23.168 L246.304,23.168 L246.304,7.776 L249.184,7.776 L249.184,9.824 C250.144,8.128 252.064,7.328 253.856,7.328 C255.776,7.328 257.632,8.256 258.464,10.24 C259.68,8.032 261.664,7.328 263.616,7.328 C266.304,7.328 268.928,9.152 268.928,13.184 L268.928,23.168 L265.952,23.168 L265.952,13.504 C265.952,11.488 264.96,9.984 262.688,9.984 C260.576,9.984 259.136,11.648 259.136,13.856 L259.136,23.168 L256.128,23.168 L256.128,13.504 C256.128,11.52 255.168,9.984 252.864,9.984 C250.72,9.984 249.28,11.584 249.28,13.888 L249.28,23.168 Z M275.68,13.888 L284.096,13.888 C284.032,11.68 282.592,9.952 279.872,9.952 C277.344,9.952 275.808,11.904 275.68,13.888 Z M284.544,17.888 L287.136,18.784 C286.272,21.504 283.808,23.648 280.224,23.648 C276.096,23.648 272.48,20.64 272.48,15.424 C272.48,10.592 275.968,7.296 279.84,7.296 C284.576,7.296 287.232,10.56 287.232,15.36 C287.232,15.744 287.2,16.128 287.168,16.32 L275.584,16.32 C275.648,19.072 277.632,20.992 280.224,20.992 C282.72,20.992 283.968,19.616 284.544,17.888 Z M294.08,14.272 L294.08,23.168 L291.072,23.168 L291.072,7.776 L294.016,7.776 L294.016,9.984 C295.136,8.064 296.96,7.328 298.752,7.328 C302.432,7.328 304.256,9.984 304.256,13.408 L304.256,23.168 L301.248,23.168 L301.248,13.92 C301.248,11.776 300.352,10.048 297.664,10.048 C295.296,10.048 294.08,11.936 294.08,14.272 Z M313.088,2.912 L313.088,7.776 L316.416,7.776 L316.416,10.496 L313.088,10.496 L313.088,18.496 C313.088,19.904 313.664,20.608 315.232,20.608 C315.616,20.608 316.16,20.544 316.416,20.48 L316.416,23.04 C316.16,23.136 315.392,23.328 314.368,23.328 C311.744,23.328 310.08,21.728 310.08,18.944 L310.08,10.496 L307.136,10.496 L307.136,7.776 L307.968,7.776 C309.632,7.776 310.336,6.752 310.336,5.408 L310.336,2.912 L313.088,2.912 Z" fill="#FFFFFF"></path>
    </g>
</svg>