<?xml version="1.0" encoding="UTF-8"?>
<svg width="393px" height="31px" viewBox="0 0 393 31" version="1.1" xmlns="http://www.w3.org/2000/svg" xmlns:xlink="http://www.w3.org/1999/xlink">
    <!-- Generator: Sketch 52.5 (67469) - http://www.bohemiancoding.com/sketch -->
    <title>label_mega</title>
    <desc>Created with Sketch.</desc>
    <g id="label_mega" stroke="none" stroke-width="1" fill="none" fill-rule="evenodd">
        <path d="M111.512,23.392 L108.408,23.392 L108.408,5.728 L100.664,23.392 L97.784,23.392 L90.104,5.728 L90.104,23.392 L87,23.392 L87,0.704 L91.256,0.704 L99.256,19.168 L107.32,0.704 L111.512,0.704 L111.512,23.392 Z M118.904,14.112 L127.32,14.112 C127.256,11.904 125.816,10.176 123.096,10.176 C120.568,10.176 119.032,12.128 118.904,14.112 Z M127.768,18.112 L130.36,19.008 C129.496,21.728 127.032,23.872 123.448,23.872 C119.32,23.872 115.704,20.864 115.704,15.648 C115.704,10.816 119.192,7.52 123.064,7.52 C127.8,7.52 130.456,10.784 130.456,15.584 C130.456,15.968 130.424,16.352 130.392,16.544 L118.808,16.544 C118.872,19.296 120.856,21.216 123.448,21.216 C125.944,21.216 127.192,19.84 127.768,18.112 Z M133.176,24.224 L136.088,23.552 C136.312,25.696 137.944,27.328 140.28,27.328 C143.512,27.328 144.984,25.664 144.984,22.336 L144.984,20.128 C144.248,21.536 142.584,22.656 140.28,22.656 C136.184,22.656 133.208,19.552 133.208,15.2 C133.208,11.04 136.056,7.712 140.28,7.712 C142.648,7.712 144.248,8.608 145.016,10.144 L145.016,8 L147.992,8 L147.992,22.24 C147.992,26.144 146.072,29.952 140.28,29.952 C136.44,29.952 133.56,27.52 133.176,24.224 Z M140.728,20.128 C143.32,20.128 145.112,18.176 145.112,15.2 C145.112,12.224 143.32,10.272 140.728,10.272 C138.072,10.272 136.28,12.224 136.28,15.2 C136.28,18.208 138.008,20.128 140.728,20.128 Z M151.672,19.264 C151.672,16.512 153.688,14.976 156.344,14.592 L160.504,13.984 C161.432,13.856 161.688,13.376 161.688,12.832 C161.688,11.328 160.696,10.08 158.36,10.08 C156.248,10.08 155.064,11.392 154.872,13.184 L151.992,12.512 C152.312,9.568 154.968,7.52 158.296,7.52 C162.904,7.52 164.696,10.144 164.696,13.152 L164.696,20.864 C164.696,22.208 164.824,23.008 164.888,23.392 L161.944,23.392 C161.88,23.008 161.784,22.432 161.784,21.312 C161.112,22.4 159.576,23.872 156.824,23.872 C153.688,23.872 151.672,21.696 151.672,19.264 Z M157.24,21.344 C159.704,21.344 161.688,20.16 161.688,16.8 L161.688,16.096 L156.984,16.8 C155.704,16.992 154.744,17.728 154.744,19.104 C154.744,20.256 155.704,21.344 157.24,21.344 Z M191.48,23.392 L177.688,23.392 L177.688,0.704 L191.48,0.704 L191.48,3.616 L180.824,3.616 L180.824,10.592 L190.488,10.592 L190.488,13.536 L180.824,13.536 L180.824,20.48 L191.48,20.48 L191.48,23.392 Z M208.664,8 L202.52,23.392 L199.48,23.392 L193.24,8 L196.632,8 L201.016,19.872 L205.432,8 L208.664,8 Z M217.656,21.184 C220.216,21.184 222.456,19.264 222.456,15.68 C222.456,12.128 220.216,10.208 217.656,10.208 C215.096,10.208 212.856,12.128 212.856,15.68 C212.856,19.264 215.096,21.184 217.656,21.184 Z M217.656,7.52 C222.264,7.52 225.528,11.008 225.528,15.68 C225.528,20.384 222.264,23.872 217.656,23.872 C213.048,23.872 209.784,20.384 209.784,15.68 C209.784,11.008 213.048,7.52 217.656,7.52 Z M232.376,23.392 L229.368,23.392 L229.368,0.224 L232.376,0.224 L232.376,23.392 Z M247.48,21.536 C246.648,23.136 244.728,23.872 242.936,23.872 C239.352,23.872 237.176,21.184 237.176,17.696 L237.176,8 L240.184,8 L240.184,17.248 C240.184,19.36 241.144,21.216 243.672,21.216 C246.104,21.216 247.32,19.616 247.32,17.28 L247.32,8 L250.328,8 L250.328,20.544 C250.328,21.76 250.424,22.848 250.488,23.392 L247.608,23.392 C247.544,23.04 247.48,22.176 247.48,21.536 Z M259.48,3.136 L259.48,8 L262.808,8 L262.808,10.72 L259.48,10.72 L259.48,18.72 C259.48,20.128 260.056,20.832 261.624,20.832 C262.008,20.832 262.552,20.768 262.808,20.704 L262.808,23.264 C262.552,23.36 261.784,23.552 260.76,23.552 C258.136,23.552 256.472,21.952 256.472,19.168 L256.472,10.72 L253.528,10.72 L253.528,8 L254.36,8 C256.024,8 256.728,6.976 256.728,5.632 L256.728,3.136 L259.48,3.136 Z M269.784,23.392 L266.808,23.392 L266.808,8 L269.784,8 L269.784,23.392 Z M266.136,2.176 C266.136,0.96 267.096,0 268.28,0 C269.496,0 270.456,0.96 270.456,2.176 C270.456,3.36 269.496,4.32 268.28,4.32 C267.096,4.32 266.136,3.36 266.136,2.176 Z M281.496,21.184 C284.056,21.184 286.296,19.264 286.296,15.68 C286.296,12.128 284.056,10.208 281.496,10.208 C278.936,10.208 276.696,12.128 276.696,15.68 C276.696,19.264 278.936,21.184 281.496,21.184 Z M281.496,7.52 C286.104,7.52 289.368,11.008 289.368,15.68 C289.368,20.384 286.104,23.872 281.496,23.872 C276.888,23.872 273.624,20.384 273.624,15.68 C273.624,11.008 276.888,7.52 281.496,7.52 Z M296.216,14.496 L296.216,23.392 L293.208,23.392 L293.208,8 L296.152,8 L296.152,10.208 C297.272,8.288 299.096,7.552 300.888,7.552 C304.568,7.552 306.392,10.208 306.392,13.632 L306.392,23.392 L303.384,23.392 L303.384,14.144 C303.384,12 302.488,10.272 299.8,10.272 C297.432,10.272 296.216,12.16 296.216,14.496 Z" fill="#FFFFFF"></path>
    </g>
</svg>