<?xml version="1.0" encoding="UTF-8"?>
<svg width="393px" height="31px" viewBox="0 0 393 31" version="1.1" xmlns="http://www.w3.org/2000/svg" xmlns:xlink="http://www.w3.org/1999/xlink">
    <!-- Generator: Sketch 52.5 (67469) - http://www.bohemiancoding.com/sketch -->
    <title>label_fusion</title>
    <desc>Created with Sketch.</desc>
    <g id="label_fusion" stroke="none" stroke-width="1" fill="none" fill-rule="evenodd">
        <path d="M155.136,23.392 L152,23.392 L152,0.704 L165.792,0.704 L165.792,3.616 L155.136,3.616 L155.136,10.912 L164.8,10.912 L164.8,13.856 L155.136,13.856 L155.136,23.392 Z M178.016,21.536 C177.184,23.136 175.264,23.872 173.472,23.872 C169.888,23.872 167.712,21.184 167.712,17.696 L167.712,8 L170.72,8 L170.72,17.248 C170.72,19.36 171.68,21.216 174.208,21.216 C176.64,21.216 177.856,19.616 177.856,17.28 L177.856,8 L180.864,8 L180.864,20.544 C180.864,21.76 180.96,22.848 181.024,23.392 L178.144,23.392 C178.08,23.04 178.016,22.176 178.016,21.536 Z M184.544,19.392 L187.264,18.432 C187.456,20.032 188.672,21.312 190.848,21.312 C192.544,21.312 193.472,20.352 193.472,19.264 C193.472,18.304 192.768,17.568 191.488,17.28 L188.864,16.704 C186.464,16.192 185.024,14.56 185.024,12.384 C185.024,9.76 187.488,7.52 190.496,7.52 C194.72,7.52 196.032,10.272 196.352,11.648 L193.696,12.64 C193.568,11.84 192.928,10.08 190.496,10.08 C188.96,10.08 187.936,11.072 187.936,12.128 C187.936,13.056 188.512,13.728 189.696,13.984 L192.192,14.528 C194.976,15.136 196.448,16.832 196.448,19.104 C196.448,21.28 194.624,23.872 190.816,23.872 C186.592,23.872 184.8,21.152 184.544,19.392 Z M203.424,23.392 L200.448,23.392 L200.448,8 L203.424,8 L203.424,23.392 Z M199.776,2.176 C199.776,0.96 200.736,0 201.92,0 C203.136,0 204.096,0.96 204.096,2.176 C204.096,3.36 203.136,4.32 201.92,4.32 C200.736,4.32 199.776,3.36 199.776,2.176 Z M215.136,21.184 C217.696,21.184 219.936,19.264 219.936,15.68 C219.936,12.128 217.696,10.208 215.136,10.208 C212.576,10.208 210.336,12.128 210.336,15.68 C210.336,19.264 212.576,21.184 215.136,21.184 Z M215.136,7.52 C219.744,7.52 223.008,11.008 223.008,15.68 C223.008,20.384 219.744,23.872 215.136,23.872 C210.528,23.872 207.264,20.384 207.264,15.68 C207.264,11.008 210.528,7.52 215.136,7.52 Z M229.856,14.496 L229.856,23.392 L226.848,23.392 L226.848,8 L229.792,8 L229.792,10.208 C230.912,8.288 232.736,7.552 234.528,7.552 C238.208,7.552 240.032,10.208 240.032,13.632 L240.032,23.392 L237.024,23.392 L237.024,14.144 C237.024,12 236.128,10.272 233.44,10.272 C231.072,10.272 229.856,12.16 229.856,14.496 Z" fill="#FFFFFF"></path>
    </g>
</svg>