<?xml version="1.0" encoding="UTF-8"?>
<svg width="393px" height="31px" viewBox="0 0 393 31" version="1.1" xmlns="http://www.w3.org/2000/svg" xmlns:xlink="http://www.w3.org/1999/xlink">
    <!-- Generator: Sketch 52.5 (67469) - http://www.bohemiancoding.com/sketch -->
    <title>label_regional</title>
    <desc>Created with Sketch.</desc>
    <g id="label_regional" stroke="none" stroke-width="1" fill="none" fill-rule="evenodd">
        <path d="M85.744,23.392 L80.56,14.112 L77.168,14.112 L77.168,23.392 L74,23.392 L74,0.704 L82.544,0.704 C86.832,0.704 89.488,3.712 89.488,7.456 C89.488,10.72 87.408,13.248 83.984,13.888 L89.392,23.392 L85.744,23.392 Z M77.168,11.296 L81.968,11.296 C84.528,11.296 86.256,9.792 86.256,7.456 C86.256,5.056 84.528,3.52 81.968,3.52 L77.168,3.52 L77.168,11.296 Z M94.8,14.112 L103.216,14.112 C103.152,11.904 101.712,10.176 98.992,10.176 C96.464,10.176 94.928,12.128 94.8,14.112 Z M103.664,18.112 L106.256,19.008 C105.392,21.728 102.928,23.872 99.344,23.872 C95.216,23.872 91.6,20.864 91.6,15.648 C91.6,10.816 95.088,7.52 98.96,7.52 C103.696,7.52 106.352,10.784 106.352,15.584 C106.352,15.968 106.32,16.352 106.288,16.544 L94.704,16.544 C94.768,19.296 96.752,21.216 99.344,21.216 C101.84,21.216 103.088,19.84 103.664,18.112 Z M109.072,24.224 L111.984,23.552 C112.208,25.696 113.84,27.328 116.176,27.328 C119.408,27.328 120.88,25.664 120.88,22.336 L120.88,20.128 C120.144,21.536 118.48,22.656 116.176,22.656 C112.08,22.656 109.104,19.552 109.104,15.2 C109.104,11.04 111.952,7.712 116.176,7.712 C118.544,7.712 120.144,8.608 120.912,10.144 L120.912,8 L123.888,8 L123.888,22.24 C123.888,26.144 121.968,29.952 116.176,29.952 C112.336,29.952 109.456,27.52 109.072,24.224 Z M116.624,20.128 C119.216,20.128 121.008,18.176 121.008,15.2 C121.008,12.224 119.216,10.272 116.624,10.272 C113.968,10.272 112.176,12.224 112.176,15.2 C112.176,18.208 113.904,20.128 116.624,20.128 Z M131.664,23.392 L128.688,23.392 L128.688,8 L131.664,8 L131.664,23.392 Z M128.016,2.176 C128.016,0.96 128.976,0 130.16,0 C131.376,0 132.336,0.96 132.336,2.176 C132.336,3.36 131.376,4.32 130.16,4.32 C128.976,4.32 128.016,3.36 128.016,2.176 Z M143.376,21.184 C145.936,21.184 148.176,19.264 148.176,15.68 C148.176,12.128 145.936,10.208 143.376,10.208 C140.816,10.208 138.576,12.128 138.576,15.68 C138.576,19.264 140.816,21.184 143.376,21.184 Z M143.376,7.52 C147.984,7.52 151.248,11.008 151.248,15.68 C151.248,20.384 147.984,23.872 143.376,23.872 C138.768,23.872 135.504,20.384 135.504,15.68 C135.504,11.008 138.768,7.52 143.376,7.52 Z M158.096,14.496 L158.096,23.392 L155.088,23.392 L155.088,8 L158.032,8 L158.032,10.208 C159.152,8.288 160.976,7.552 162.768,7.552 C166.448,7.552 168.272,10.208 168.272,13.632 L168.272,23.392 L165.264,23.392 L165.264,14.144 C165.264,12 164.368,10.272 161.68,10.272 C159.312,10.272 158.096,12.16 158.096,14.496 Z M172.112,19.264 C172.112,16.512 174.128,14.976 176.784,14.592 L180.944,13.984 C181.872,13.856 182.128,13.376 182.128,12.832 C182.128,11.328 181.136,10.08 178.8,10.08 C176.688,10.08 175.504,11.392 175.312,13.184 L172.432,12.512 C172.752,9.568 175.408,7.52 178.736,7.52 C183.344,7.52 185.136,10.144 185.136,13.152 L185.136,20.864 C185.136,22.208 185.264,23.008 185.328,23.392 L182.384,23.392 C182.32,23.008 182.224,22.432 182.224,21.312 C181.552,22.4 180.016,23.872 177.264,23.872 C174.128,23.872 172.112,21.696 172.112,19.264 Z M177.68,21.344 C180.144,21.344 182.128,20.16 182.128,16.8 L182.128,16.096 L177.424,16.8 C176.144,16.992 175.184,17.728 175.184,19.104 C175.184,20.256 176.144,21.344 177.68,21.344 Z M192.816,23.392 L189.808,23.392 L189.808,0.224 L192.816,0.224 L192.816,23.392 Z M213.872,19.36 L220.784,0.704 L224.08,0.704 L215.344,23.392 L212.24,23.392 L203.696,0.704 L207.024,0.704 L213.872,19.36 Z M224.24,19.264 C224.24,16.512 226.256,14.976 228.912,14.592 L233.072,13.984 C234,13.856 234.256,13.376 234.256,12.832 C234.256,11.328 233.264,10.08 230.928,10.08 C228.816,10.08 227.632,11.392 227.44,13.184 L224.56,12.512 C224.88,9.568 227.536,7.52 230.864,7.52 C235.472,7.52 237.264,10.144 237.264,13.152 L237.264,20.864 C237.264,22.208 237.392,23.008 237.456,23.392 L234.512,23.392 C234.448,23.008 234.352,22.432 234.352,21.312 C233.68,22.4 232.144,23.872 229.392,23.872 C226.256,23.872 224.24,21.696 224.24,19.264 Z M229.808,21.344 C232.272,21.344 234.256,20.16 234.256,16.8 L234.256,16.096 L229.552,16.8 C228.272,16.992 227.312,17.728 227.312,19.104 C227.312,20.256 228.272,21.344 229.808,21.344 Z M250.48,7.84 L250.48,11.04 C250.032,10.976 249.584,10.944 249.168,10.944 C246.64,10.944 244.944,12.288 244.944,15.68 L244.944,23.392 L241.936,23.392 L241.936,8 L244.88,8 L244.88,10.688 C246,8.32 247.92,7.744 249.488,7.744 C249.904,7.744 250.32,7.808 250.48,7.84 Z M256.656,23.392 L253.68,23.392 L253.68,8 L256.656,8 L256.656,23.392 Z M253.008,2.176 C253.008,0.96 253.968,0 255.152,0 C256.368,0 257.328,0.96 257.328,2.176 C257.328,3.36 256.368,4.32 255.152,4.32 C253.968,4.32 253.008,3.36 253.008,2.176 Z M260.816,19.264 C260.816,16.512 262.832,14.976 265.488,14.592 L269.648,13.984 C270.576,13.856 270.832,13.376 270.832,12.832 C270.832,11.328 269.84,10.08 267.504,10.08 C265.392,10.08 264.208,11.392 264.016,13.184 L261.136,12.512 C261.456,9.568 264.112,7.52 267.44,7.52 C272.048,7.52 273.84,10.144 273.84,13.152 L273.84,20.864 C273.84,22.208 273.968,23.008 274.032,23.392 L271.088,23.392 C271.024,23.008 270.928,22.432 270.928,21.312 C270.256,22.4 268.72,23.872 265.968,23.872 C262.832,23.872 260.816,21.696 260.816,19.264 Z M266.384,21.344 C268.848,21.344 270.832,20.16 270.832,16.8 L270.832,16.096 L266.128,16.8 C264.848,16.992 263.888,17.728 263.888,19.104 C263.888,20.256 264.848,21.344 266.384,21.344 Z M281.52,14.496 L281.52,23.392 L278.512,23.392 L278.512,8 L281.456,8 L281.456,10.208 C282.576,8.288 284.4,7.552 286.192,7.552 C289.872,7.552 291.696,10.208 291.696,13.632 L291.696,23.392 L288.688,23.392 L288.688,14.144 C288.688,12 287.792,10.272 285.104,10.272 C282.736,10.272 281.52,12.16 281.52,14.496 Z M300.528,3.136 L300.528,8 L303.856,8 L303.856,10.72 L300.528,10.72 L300.528,18.72 C300.528,20.128 301.104,20.832 302.672,20.832 C303.056,20.832 303.6,20.768 303.856,20.704 L303.856,23.264 C303.6,23.36 302.832,23.552 301.808,23.552 C299.184,23.552 297.52,21.952 297.52,19.168 L297.52,10.72 L294.576,10.72 L294.576,8 L295.408,8 C297.072,8 297.776,6.976 297.776,5.632 L297.776,3.136 L300.528,3.136 Z M306.576,19.392 L309.296,18.432 C309.488,20.032 310.704,21.312 312.88,21.312 C314.576,21.312 315.504,20.352 315.504,19.264 C315.504,18.304 314.8,17.568 313.52,17.28 L310.896,16.704 C308.496,16.192 307.056,14.56 307.056,12.384 C307.056,9.76 309.52,7.52 312.528,7.52 C316.752,7.52 318.064,10.272 318.384,11.648 L315.728,12.64 C315.6,11.84 314.96,10.08 312.528,10.08 C310.992,10.08 309.968,11.072 309.968,12.128 C309.968,13.056 310.544,13.728 311.728,13.984 L314.224,14.528 C317.008,15.136 318.48,16.832 318.48,19.104 C318.48,21.28 316.656,23.872 312.848,23.872 C308.624,23.872 306.832,21.152 306.576,19.392 Z" fill="#FFFFFF"></path>
    </g>
</svg>