<?xml version="1.0" encoding="UTF-8"?>
<svg width="393px" height="31px" viewBox="0 0 393 31" version="1.1" xmlns="http://www.w3.org/2000/svg" xmlns:xlink="http://www.w3.org/1999/xlink">
    <!-- Generator: Sketch 52.5 (67469) - http://www.bohemiancoding.com/sketch -->
    <title>label_environment</title>
    <desc>Created with Sketch.</desc>
    <g id="label_environment" stroke="none" stroke-width="1" fill="none" fill-rule="evenodd">
        <path d="M14.792,23.392 L1,23.392 L1,0.704 L14.792,0.704 L14.792,3.616 L4.136,3.616 L4.136,10.592 L13.8,10.592 L13.8,13.536 L4.136,13.536 L4.136,20.48 L14.792,20.48 L14.792,23.392 Z M21.8,14.496 L21.8,23.392 L18.792,23.392 L18.792,8 L21.736,8 L21.736,10.208 C22.856,8.288 24.68,7.552 26.472,7.552 C30.152,7.552 31.976,10.208 31.976,13.632 L31.976,23.392 L28.968,23.392 L28.968,14.144 C28.968,12 28.072,10.272 25.384,10.272 C23.016,10.272 21.8,12.16 21.8,14.496 Z M49.96,8 L43.816,23.392 L40.776,23.392 L34.536,8 L37.928,8 L42.312,19.872 L46.728,8 L49.96,8 Z M55.816,23.392 L52.84,23.392 L52.84,8 L55.816,8 L55.816,23.392 Z M52.168,2.176 C52.168,0.96 53.128,0 54.312,0 C55.528,0 56.488,0.96 56.488,2.176 C56.488,3.36 55.528,4.32 54.312,4.32 C53.128,4.32 52.168,3.36 52.168,2.176 Z M69.48,7.84 L69.48,11.04 C69.032,10.976 68.584,10.944 68.168,10.944 C65.64,10.944 63.944,12.288 63.944,15.68 L63.944,23.392 L60.936,23.392 L60.936,8 L63.88,8 L63.88,10.688 C65,8.32 66.92,7.744 68.488,7.744 C68.904,7.744 69.32,7.808 69.48,7.84 Z M79.112,21.184 C81.672,21.184 83.912,19.264 83.912,15.68 C83.912,12.128 81.672,10.208 79.112,10.208 C76.552,10.208 74.312,12.128 74.312,15.68 C74.312,19.264 76.552,21.184 79.112,21.184 Z M79.112,7.52 C83.72,7.52 86.984,11.008 86.984,15.68 C86.984,20.384 83.72,23.872 79.112,23.872 C74.504,23.872 71.24,20.384 71.24,15.68 C71.24,11.008 74.504,7.52 79.112,7.52 Z M93.832,14.496 L93.832,23.392 L90.824,23.392 L90.824,8 L93.768,8 L93.768,10.208 C94.888,8.288 96.712,7.552 98.504,7.552 C102.184,7.552 104.008,10.208 104.008,13.632 L104.008,23.392 L101,23.392 L101,14.144 C101,12 100.104,10.272 97.416,10.272 C95.048,10.272 93.832,12.16 93.832,14.496 Z M111.784,23.392 L108.808,23.392 L108.808,8 L111.688,8 L111.688,10.048 C112.648,8.352 114.568,7.552 116.36,7.552 C118.28,7.552 120.136,8.48 120.968,10.464 C122.184,8.256 124.168,7.552 126.12,7.552 C128.808,7.552 131.432,9.376 131.432,13.408 L131.432,23.392 L128.456,23.392 L128.456,13.728 C128.456,11.712 127.464,10.208 125.192,10.208 C123.08,10.208 121.64,11.872 121.64,14.08 L121.64,23.392 L118.632,23.392 L118.632,13.728 C118.632,11.744 117.672,10.208 115.368,10.208 C113.224,10.208 111.784,11.808 111.784,14.112 L111.784,23.392 Z M138.184,14.112 L146.6,14.112 C146.536,11.904 145.096,10.176 142.376,10.176 C139.848,10.176 138.312,12.128 138.184,14.112 Z M147.048,18.112 L149.64,19.008 C148.776,21.728 146.312,23.872 142.728,23.872 C138.6,23.872 134.984,20.864 134.984,15.648 C134.984,10.816 138.472,7.52 142.344,7.52 C147.08,7.52 149.736,10.784 149.736,15.584 C149.736,15.968 149.704,16.352 149.672,16.544 L138.088,16.544 C138.152,19.296 140.136,21.216 142.728,21.216 C145.224,21.216 146.472,19.84 147.048,18.112 Z M156.584,14.496 L156.584,23.392 L153.576,23.392 L153.576,8 L156.52,8 L156.52,10.208 C157.64,8.288 159.464,7.552 161.256,7.552 C164.936,7.552 166.76,10.208 166.76,13.632 L166.76,23.392 L163.752,23.392 L163.752,14.144 C163.752,12 162.856,10.272 160.168,10.272 C157.8,10.272 156.584,12.16 156.584,14.496 Z M175.592,3.136 L175.592,8 L178.92,8 L178.92,10.72 L175.592,10.72 L175.592,18.72 C175.592,20.128 176.168,20.832 177.736,20.832 C178.12,20.832 178.664,20.768 178.92,20.704 L178.92,23.264 C178.664,23.36 177.896,23.552 176.872,23.552 C174.248,23.552 172.584,21.952 172.584,19.168 L172.584,10.72 L169.64,10.72 L169.64,8 L170.472,8 C172.136,8 172.84,6.976 172.84,5.632 L172.84,3.136 L175.592,3.136 Z M181.96,19.264 C181.96,16.512 183.976,14.976 186.632,14.592 L190.792,13.984 C191.72,13.856 191.976,13.376 191.976,12.832 C191.976,11.328 190.984,10.08 188.648,10.08 C186.536,10.08 185.352,11.392 185.16,13.184 L182.28,12.512 C182.6,9.568 185.256,7.52 188.584,7.52 C193.192,7.52 194.984,10.144 194.984,13.152 L194.984,20.864 C194.984,22.208 195.112,23.008 195.176,23.392 L192.232,23.392 C192.168,23.008 192.072,22.432 192.072,21.312 C191.4,22.4 189.864,23.872 187.112,23.872 C183.976,23.872 181.96,21.696 181.96,19.264 Z M187.528,21.344 C189.992,21.344 191.976,20.16 191.976,16.8 L191.976,16.096 L187.272,16.8 C185.992,16.992 185.032,17.728 185.032,19.104 C185.032,20.256 185.992,21.344 187.528,21.344 Z M202.664,23.392 L199.656,23.392 L199.656,0.224 L202.664,0.224 L202.664,23.392 Z M229.896,23.392 L216.104,23.392 L216.104,0.704 L229.896,0.704 L229.896,3.616 L219.24,3.616 L219.24,10.592 L228.904,10.592 L228.904,13.536 L219.24,13.536 L219.24,20.48 L229.896,20.48 L229.896,23.392 Z M236.904,14.496 L236.904,23.392 L233.896,23.392 L233.896,8 L236.84,8 L236.84,10.208 C237.96,8.288 239.784,7.552 241.576,7.552 C245.256,7.552 247.08,10.208 247.08,13.632 L247.08,23.392 L244.072,23.392 L244.072,14.144 C244.072,12 243.176,10.272 240.488,10.272 C238.12,10.272 236.904,12.16 236.904,14.496 Z M253.672,15.648 C253.672,18.816 255.304,21.152 258.184,21.152 C260.936,21.152 262.632,18.752 262.632,15.584 C262.632,12.416 260.968,10.24 258.216,10.24 C255.464,10.24 253.672,12.48 253.672,15.648 Z M262.664,21.312 L262.664,21.056 C261.928,22.528 260.296,23.808 257.896,23.808 C253.384,23.808 250.6,20.224 250.6,15.648 C250.6,11.296 253.544,7.584 257.896,7.584 C260.616,7.584 262.088,8.928 262.6,10.176 L262.6,0.224 L265.576,0.224 L265.576,20.544 C265.576,22.016 265.704,23.136 265.736,23.392 L262.824,23.392 C262.76,23.04 262.664,22.24 262.664,21.312 Z M280.68,21.536 C279.848,23.136 277.928,23.872 276.136,23.872 C272.552,23.872 270.376,21.184 270.376,17.696 L270.376,8 L273.384,8 L273.384,17.248 C273.384,19.36 274.344,21.216 276.872,21.216 C279.304,21.216 280.52,19.616 280.52,17.28 L280.52,8 L283.528,8 L283.528,20.544 C283.528,21.76 283.624,22.848 283.688,23.392 L280.808,23.392 C280.744,23.04 280.68,22.176 280.68,21.536 Z M294.952,10.304 C292.52,10.304 290.28,12.096 290.28,15.68 C290.28,19.2 292.488,21.088 294.984,21.088 C297.864,21.088 298.92,19.136 299.272,17.92 L301.928,19.072 C301.192,21.28 298.984,23.872 294.984,23.872 C290.504,23.872 287.208,20.352 287.208,15.68 C287.208,10.88 290.568,7.52 294.952,7.52 C299.048,7.52 301.16,10.08 301.8,12.416 L299.08,13.568 C298.696,12.064 297.576,10.304 294.952,10.304 Z M307.24,14.112 L315.656,14.112 C315.592,11.904 314.152,10.176 311.432,10.176 C308.904,10.176 307.368,12.128 307.24,14.112 Z M316.104,18.112 L318.696,19.008 C317.832,21.728 315.368,23.872 311.784,23.872 C307.656,23.872 304.04,20.864 304.04,15.648 C304.04,10.816 307.528,7.52 311.4,7.52 C316.136,7.52 318.792,10.784 318.792,15.584 C318.792,15.968 318.76,16.352 318.728,16.544 L307.144,16.544 C307.208,19.296 309.192,21.216 311.784,21.216 C314.28,21.216 315.528,19.84 316.104,18.112 Z M325.608,23.392 L322.632,23.392 L322.632,8 L325.512,8 L325.512,10.048 C326.472,8.352 328.392,7.552 330.184,7.552 C332.104,7.552 333.96,8.48 334.792,10.464 C336.008,8.256 337.992,7.552 339.944,7.552 C342.632,7.552 345.256,9.376 345.256,13.408 L345.256,23.392 L342.28,23.392 L342.28,13.728 C342.28,11.712 341.288,10.208 339.016,10.208 C336.904,10.208 335.464,11.872 335.464,14.08 L335.464,23.392 L332.456,23.392 L332.456,13.728 C332.456,11.744 331.496,10.208 329.192,10.208 C327.048,10.208 325.608,11.808 325.608,14.112 L325.608,23.392 Z M352.008,14.112 L360.424,14.112 C360.36,11.904 358.92,10.176 356.2,10.176 C353.672,10.176 352.136,12.128 352.008,14.112 Z M360.872,18.112 L363.464,19.008 C362.6,21.728 360.136,23.872 356.552,23.872 C352.424,23.872 348.808,20.864 348.808,15.648 C348.808,10.816 352.296,7.52 356.168,7.52 C360.904,7.52 363.56,10.784 363.56,15.584 C363.56,15.968 363.528,16.352 363.496,16.544 L351.912,16.544 C351.976,19.296 353.96,21.216 356.552,21.216 C359.048,21.216 360.296,19.84 360.872,18.112 Z M370.408,14.496 L370.408,23.392 L367.4,23.392 L367.4,8 L370.344,8 L370.344,10.208 C371.464,8.288 373.288,7.552 375.08,7.552 C378.76,7.552 380.584,10.208 380.584,13.632 L380.584,23.392 L377.576,23.392 L377.576,14.144 C377.576,12 376.68,10.272 373.992,10.272 C371.624,10.272 370.408,12.16 370.408,14.496 Z M389.416,3.136 L389.416,8 L392.744,8 L392.744,10.72 L389.416,10.72 L389.416,18.72 C389.416,20.128 389.992,20.832 391.56,20.832 C391.944,20.832 392.488,20.768 392.744,20.704 L392.744,23.264 C392.488,23.36 391.72,23.552 390.696,23.552 C388.072,23.552 386.408,21.952 386.408,19.168 L386.408,10.72 L383.464,10.72 L383.464,8 L384.296,8 C385.96,8 386.664,6.976 386.664,5.632 L386.664,3.136 L389.416,3.136 Z" fill="#FFFFFF"></path>
    </g>
</svg>