<?xml version="1.0" encoding="UTF-8"?>
<svg width="393px" height="31px" viewBox="0 0 393 31" version="1.1" xmlns="http://www.w3.org/2000/svg" xmlns:xlink="http://www.w3.org/1999/xlink">
    <!-- Generator: Sketch 52.5 (67469) - http://www.bohemiancoding.com/sketch -->
    <title>label_move</title>
    <desc>Created with Sketch.</desc>
    <g id="label_move" stroke="none" stroke-width="1" fill="none" fill-rule="evenodd">
        <path d="M92.512,23.168 L89.408,23.168 L89.408,5.504 L81.664,23.168 L78.784,23.168 L71.104,5.504 L71.104,23.168 L68,23.168 L68,0.48 L72.256,0.48 L80.256,18.944 L88.32,0.48 L92.512,0.48 L92.512,23.168 Z M104.544,20.96 C107.104,20.96 109.344,19.04 109.344,15.456 C109.344,11.904 107.104,9.984 104.544,9.984 C101.984,9.984 99.744,11.904 99.744,15.456 C99.744,19.04 101.984,20.96 104.544,20.96 Z M104.544,7.296 C109.152,7.296 112.416,10.784 112.416,15.456 C112.416,20.16 109.152,23.648 104.544,23.648 C99.936,23.648 96.672,20.16 96.672,15.456 C96.672,10.784 99.936,7.296 104.544,7.296 Z M128.96,7.776 L122.816,23.168 L119.776,23.168 L113.536,7.776 L116.928,7.776 L121.312,19.648 L125.728,7.776 L128.96,7.776 Z M133.312,13.888 L141.728,13.888 C141.664,11.68 140.224,9.952 137.504,9.952 C134.976,9.952 133.44,11.904 133.312,13.888 Z M142.176,17.888 L144.768,18.784 C143.904,21.504 141.44,23.648 137.856,23.648 C133.728,23.648 130.112,20.64 130.112,15.424 C130.112,10.592 133.6,7.296 137.472,7.296 C142.208,7.296 144.864,10.56 144.864,15.36 C144.864,15.744 144.832,16.128 144.8,16.32 L133.216,16.32 C133.28,19.072 135.264,20.992 137.856,20.992 C140.352,20.992 141.6,19.616 142.176,17.888 Z M160.224,23.168 L157.024,23.168 L157.024,0.48 L160.224,0.48 L160.224,23.168 Z M168.672,14.272 L168.672,23.168 L165.664,23.168 L165.664,7.776 L168.608,7.776 L168.608,9.984 C169.728,8.064 171.552,7.328 173.344,7.328 C177.024,7.328 178.848,9.984 178.848,13.408 L178.848,23.168 L175.84,23.168 L175.84,13.92 C175.84,11.776 174.944,10.048 172.256,10.048 C169.888,10.048 168.672,11.936 168.672,14.272 Z M185.44,15.424 C185.44,18.592 187.072,20.928 189.952,20.928 C192.704,20.928 194.4,18.528 194.4,15.36 C194.4,12.192 192.736,10.016 189.984,10.016 C187.232,10.016 185.44,12.256 185.44,15.424 Z M194.432,21.088 L194.432,20.832 C193.696,22.304 192.064,23.584 189.664,23.584 C185.152,23.584 182.368,20 182.368,15.424 C182.368,11.072 185.312,7.36 189.664,7.36 C192.384,7.36 193.856,8.704 194.368,9.952 L194.368,0 L197.344,0 L197.344,20.32 C197.344,21.792 197.472,22.912 197.504,23.168 L194.592,23.168 C194.528,22.816 194.432,22.016 194.432,21.088 Z M212.448,21.312 C211.616,22.912 209.696,23.648 207.904,23.648 C204.32,23.648 202.144,20.96 202.144,17.472 L202.144,7.776 L205.152,7.776 L205.152,17.024 C205.152,19.136 206.112,20.992 208.64,20.992 C211.072,20.992 212.288,19.392 212.288,17.056 L212.288,7.776 L215.296,7.776 L215.296,20.32 C215.296,21.536 215.392,22.624 215.456,23.168 L212.576,23.168 C212.512,22.816 212.448,21.952 212.448,21.312 Z M226.72,10.08 C224.288,10.08 222.048,11.872 222.048,15.456 C222.048,18.976 224.256,20.864 226.752,20.864 C229.632,20.864 230.688,18.912 231.04,17.696 L233.696,18.848 C232.96,21.056 230.752,23.648 226.752,23.648 C222.272,23.648 218.976,20.128 218.976,15.456 C218.976,10.656 222.336,7.296 226.72,7.296 C230.816,7.296 232.928,9.856 233.568,12.192 L230.848,13.344 C230.464,11.84 229.344,10.08 226.72,10.08 Z M239.008,13.888 L247.424,13.888 C247.36,11.68 245.92,9.952 243.2,9.952 C240.672,9.952 239.136,11.904 239.008,13.888 Z M247.872,17.888 L250.464,18.784 C249.6,21.504 247.136,23.648 243.552,23.648 C239.424,23.648 235.808,20.64 235.808,15.424 C235.808,10.592 239.296,7.296 243.168,7.296 C247.904,7.296 250.56,10.56 250.56,15.36 C250.56,15.744 250.528,16.128 250.496,16.32 L238.912,16.32 C238.976,19.072 240.96,20.992 243.552,20.992 C246.048,20.992 247.296,19.616 247.872,17.888 Z M257.376,23.168 L254.4,23.168 L254.4,7.776 L257.28,7.776 L257.28,9.824 C258.24,8.128 260.16,7.328 261.952,7.328 C263.872,7.328 265.728,8.256 266.56,10.24 C267.776,8.032 269.76,7.328 271.712,7.328 C274.4,7.328 277.024,9.152 277.024,13.184 L277.024,23.168 L274.048,23.168 L274.048,13.504 C274.048,11.488 273.056,9.984 270.784,9.984 C268.672,9.984 267.232,11.648 267.232,13.856 L267.232,23.168 L264.224,23.168 L264.224,13.504 C264.224,11.52 263.264,9.984 260.96,9.984 C258.816,9.984 257.376,11.584 257.376,13.888 L257.376,23.168 Z M283.776,13.888 L292.192,13.888 C292.128,11.68 290.688,9.952 287.968,9.952 C285.44,9.952 283.904,11.904 283.776,13.888 Z M292.64,17.888 L295.232,18.784 C294.368,21.504 291.904,23.648 288.32,23.648 C284.192,23.648 280.576,20.64 280.576,15.424 C280.576,10.592 284.064,7.296 287.936,7.296 C292.672,7.296 295.328,10.56 295.328,15.36 C295.328,15.744 295.296,16.128 295.264,16.32 L283.68,16.32 C283.744,19.072 285.728,20.992 288.32,20.992 C290.816,20.992 292.064,19.616 292.64,17.888 Z M302.176,14.272 L302.176,23.168 L299.168,23.168 L299.168,7.776 L302.112,7.776 L302.112,9.984 C303.232,8.064 305.056,7.328 306.848,7.328 C310.528,7.328 312.352,9.984 312.352,13.408 L312.352,23.168 L309.344,23.168 L309.344,13.92 C309.344,11.776 308.448,10.048 305.76,10.048 C303.392,10.048 302.176,11.936 302.176,14.272 Z M321.184,2.912 L321.184,7.776 L324.512,7.776 L324.512,10.496 L321.184,10.496 L321.184,18.496 C321.184,19.904 321.76,20.608 323.328,20.608 C323.712,20.608 324.256,20.544 324.512,20.48 L324.512,23.04 C324.256,23.136 323.488,23.328 322.464,23.328 C319.84,23.328 318.176,21.728 318.176,18.944 L318.176,10.496 L315.232,10.496 L315.232,7.776 L316.064,7.776 C317.728,7.776 318.432,6.752 318.432,5.408 L318.432,2.912 L321.184,2.912 Z" fill="#FFFFFF"></path>
    </g>
</svg>