<?xml version="1.0" encoding="UTF-8"?>
<svg width="393px" height="31px" viewBox="0 0 393 31" version="1.1" xmlns="http://www.w3.org/2000/svg" xmlns:xlink="http://www.w3.org/1999/xlink">
    <!-- Generator: Sketch 52.5 (67469) - http://www.bohemiancoding.com/sketch -->
    <title>label_ultra</title>
    <desc>Created with Sketch.</desc>
    <g id="label_ultra" stroke="none" stroke-width="1" fill="none" fill-rule="evenodd">
        <path d="M131.16,23.648 C126.552,23.648 123,20.768 123,15.424 L123,0.48 L126.104,0.48 L126.104,15.328 C126.104,18.784 127.992,20.736 131.16,20.736 C134.36,20.736 136.184,18.784 136.184,15.328 L136.184,0.48 L139.32,0.48 L139.32,15.424 C139.32,20.768 135.768,23.648 131.16,23.648 Z M147.448,23.168 L144.44,23.168 L144.44,0 L147.448,0 L147.448,23.168 Z M156.6,2.912 L156.6,7.776 L159.928,7.776 L159.928,10.496 L156.6,10.496 L156.6,18.496 C156.6,19.904 157.176,20.608 158.744,20.608 C159.128,20.608 159.672,20.544 159.928,20.48 L159.928,23.04 C159.672,23.136 158.904,23.328 157.88,23.328 C155.256,23.328 153.592,21.728 153.592,18.944 L153.592,10.496 L150.648,10.496 L150.648,7.776 L151.48,7.776 C153.144,7.776 153.848,6.752 153.848,5.408 L153.848,2.912 L156.6,2.912 Z M172.152,7.616 L172.152,10.816 C171.704,10.752 171.256,10.72 170.84,10.72 C168.312,10.72 166.616,12.064 166.616,15.456 L166.616,23.168 L163.608,23.168 L163.608,7.776 L166.552,7.776 L166.552,10.464 C167.672,8.096 169.592,7.52 171.16,7.52 C171.576,7.52 171.992,7.584 172.152,7.616 Z M174.392,19.04 C174.392,16.288 176.408,14.752 179.064,14.368 L183.224,13.76 C184.152,13.632 184.408,13.152 184.408,12.608 C184.408,11.104 183.416,9.856 181.08,9.856 C178.968,9.856 177.784,11.168 177.592,12.96 L174.712,12.288 C175.032,9.344 177.688,7.296 181.016,7.296 C185.624,7.296 187.416,9.92 187.416,12.928 L187.416,20.64 C187.416,21.984 187.544,22.784 187.608,23.168 L184.664,23.168 C184.6,22.784 184.504,22.208 184.504,21.088 C183.832,22.176 182.296,23.648 179.544,23.648 C176.408,23.648 174.392,21.472 174.392,19.04 Z M179.96,21.12 C182.424,21.12 184.408,19.936 184.408,16.576 L184.408,15.872 L179.704,16.576 C178.424,16.768 177.464,17.504 177.464,18.88 C177.464,20.032 178.424,21.12 179.96,21.12 Z M200.408,0.48 L207.8,0.48 C212.12,0.48 214.648,3.04 214.648,6.624 C214.648,9.056 213.24,10.784 211.256,11.52 C213.848,12.16 215.352,14.464 215.352,16.992 C215.352,20.576 212.504,23.168 208.344,23.168 L200.408,23.168 L200.408,0.48 Z M203.544,10.4 L207.448,10.4 C209.976,10.4 211.48,8.896 211.48,6.784 C211.48,4.64 209.912,3.232 207.32,3.232 L203.544,3.232 L203.544,10.4 Z M203.544,20.416 L207.896,20.416 C210.424,20.416 212.152,19.008 212.152,16.8 C212.152,14.624 210.776,13.088 208.024,13.088 L203.544,13.088 L203.544,20.416 Z M228.856,21.312 C228.024,22.912 226.104,23.648 224.312,23.648 C220.728,23.648 218.552,20.96 218.552,17.472 L218.552,7.776 L221.56,7.776 L221.56,17.024 C221.56,19.136 222.52,20.992 225.048,20.992 C227.48,20.992 228.696,19.392 228.696,17.056 L228.696,7.776 L231.704,7.776 L231.704,20.32 C231.704,21.536 231.8,22.624 231.864,23.168 L228.984,23.168 C228.92,22.816 228.856,21.952 228.856,21.312 Z M245.368,7.616 L245.368,10.816 C244.92,10.752 244.472,10.72 244.056,10.72 C241.528,10.72 239.832,12.064 239.832,15.456 L239.832,23.168 L236.824,23.168 L236.824,7.776 L239.768,7.776 L239.768,10.464 C240.888,8.096 242.808,7.52 244.376,7.52 C244.792,7.52 245.208,7.584 245.368,7.616 Z M247.128,19.168 L249.848,18.208 C250.04,19.808 251.256,21.088 253.432,21.088 C255.128,21.088 256.056,20.128 256.056,19.04 C256.056,18.08 255.352,17.344 254.072,17.056 L251.448,16.48 C249.048,15.968 247.608,14.336 247.608,12.16 C247.608,9.536 250.072,7.296 253.08,7.296 C257.304,7.296 258.616,10.048 258.936,11.424 L256.28,12.416 C256.152,11.616 255.512,9.856 253.08,9.856 C251.544,9.856 250.52,10.848 250.52,11.904 C250.52,12.832 251.096,13.504 252.28,13.76 L254.776,14.304 C257.56,14.912 259.032,16.608 259.032,18.88 C259.032,21.056 257.208,23.648 253.4,23.648 C249.176,23.648 247.384,20.928 247.128,19.168 Z M267.064,2.912 L267.064,7.776 L270.392,7.776 L270.392,10.496 L267.064,10.496 L267.064,18.496 C267.064,19.904 267.64,20.608 269.208,20.608 C269.592,20.608 270.136,20.544 270.392,20.48 L270.392,23.04 C270.136,23.136 269.368,23.328 268.344,23.328 C265.72,23.328 264.056,21.728 264.056,18.944 L264.056,10.496 L261.112,10.496 L261.112,7.776 L261.944,7.776 C263.608,7.776 264.312,6.752 264.312,5.408 L264.312,2.912 L267.064,2.912 Z" id="Ultra-Burst" fill="#FFFFFF"></path>
    </g>
</svg>