<?xml version="1.0" encoding="UTF-8"?>
<svg width="393px" height="31px" viewBox="0 0 393 31" version="1.1" xmlns="http://www.w3.org/2000/svg" xmlns:xlink="http://www.w3.org/1999/xlink">
    <!-- Generator: Sketch 52.5 (67469) - http://www.bohemiancoding.com/sketch -->
    <title>label_primal</title>
    <desc>Created with Sketch.</desc>
    <g id="label_primal" stroke="none" stroke-width="1" fill="none" fill-rule="evenodd">
        <path d="M83.136,11.296 L87.68,11.296 C90.4,11.296 92.064,9.792 92.064,7.456 C92.064,5.056 90.4,3.52 87.68,3.52 L83.136,3.52 L83.136,11.296 Z M88.256,14.112 L83.136,14.112 L83.136,23.392 L80,23.392 L80,0.704 L88.256,0.704 C92.448,0.704 95.264,3.616 95.264,7.424 C95.264,11.264 92.448,14.112 88.256,14.112 Z M106.848,7.84 L106.848,11.04 C106.4,10.976 105.952,10.944 105.536,10.944 C103.008,10.944 101.312,12.288 101.312,15.68 L101.312,23.392 L98.304,23.392 L98.304,8 L101.248,8 L101.248,10.688 C102.368,8.32 104.288,7.744 105.856,7.744 C106.272,7.744 106.688,7.808 106.848,7.84 Z M113.024,23.392 L110.048,23.392 L110.048,8 L113.024,8 L113.024,23.392 Z M109.376,2.176 C109.376,0.96 110.336,0 111.52,0 C112.736,0 113.696,0.96 113.696,2.176 C113.696,3.36 112.736,4.32 111.52,4.32 C110.336,4.32 109.376,3.36 109.376,2.176 Z M121.12,23.392 L118.144,23.392 L118.144,8 L121.024,8 L121.024,10.048 C121.984,8.352 123.904,7.552 125.696,7.552 C127.616,7.552 129.472,8.48 130.304,10.464 C131.52,8.256 133.504,7.552 135.456,7.552 C138.144,7.552 140.768,9.376 140.768,13.408 L140.768,23.392 L137.792,23.392 L137.792,13.728 C137.792,11.712 136.8,10.208 134.528,10.208 C132.416,10.208 130.976,11.872 130.976,14.08 L130.976,23.392 L127.968,23.392 L127.968,13.728 C127.968,11.744 127.008,10.208 124.704,10.208 C122.56,10.208 121.12,11.808 121.12,14.112 L121.12,23.392 Z M144.608,19.264 C144.608,16.512 146.624,14.976 149.28,14.592 L153.44,13.984 C154.368,13.856 154.624,13.376 154.624,12.832 C154.624,11.328 153.632,10.08 151.296,10.08 C149.184,10.08 148,11.392 147.808,13.184 L144.928,12.512 C145.248,9.568 147.904,7.52 151.232,7.52 C155.84,7.52 157.632,10.144 157.632,13.152 L157.632,20.864 C157.632,22.208 157.76,23.008 157.824,23.392 L154.88,23.392 C154.816,23.008 154.72,22.432 154.72,21.312 C154.048,22.4 152.512,23.872 149.76,23.872 C146.624,23.872 144.608,21.696 144.608,19.264 Z M150.176,21.344 C152.64,21.344 154.624,20.16 154.624,16.8 L154.624,16.096 L149.92,16.8 C148.64,16.992 147.68,17.728 147.68,19.104 C147.68,20.256 148.64,21.344 150.176,21.344 Z M165.312,23.392 L162.304,23.392 L162.304,0.224 L165.312,0.224 L165.312,23.392 Z M190.496,23.392 L185.312,14.112 L181.92,14.112 L181.92,23.392 L178.752,23.392 L178.752,0.704 L187.296,0.704 C191.584,0.704 194.24,3.712 194.24,7.456 C194.24,10.72 192.16,13.248 188.736,13.888 L194.144,23.392 L190.496,23.392 Z M181.92,11.296 L186.72,11.296 C189.28,11.296 191.008,9.792 191.008,7.456 C191.008,5.056 189.28,3.52 186.72,3.52 L181.92,3.52 L181.92,11.296 Z M199.552,14.112 L207.968,14.112 C207.904,11.904 206.464,10.176 203.744,10.176 C201.216,10.176 199.68,12.128 199.552,14.112 Z M208.416,18.112 L211.008,19.008 C210.144,21.728 207.68,23.872 204.096,23.872 C199.968,23.872 196.352,20.864 196.352,15.648 C196.352,10.816 199.84,7.52 203.712,7.52 C208.448,7.52 211.104,10.784 211.104,15.584 C211.104,15.968 211.072,16.352 211.04,16.544 L199.456,16.544 C199.52,19.296 201.504,21.216 204.096,21.216 C206.592,21.216 207.84,19.84 208.416,18.112 Z M227.808,8 L221.664,23.392 L218.624,23.392 L212.384,8 L215.776,8 L220.16,19.872 L224.576,8 L227.808,8 Z M232.16,14.112 L240.576,14.112 C240.512,11.904 239.072,10.176 236.352,10.176 C233.824,10.176 232.288,12.128 232.16,14.112 Z M241.024,18.112 L243.616,19.008 C242.752,21.728 240.288,23.872 236.704,23.872 C232.576,23.872 228.96,20.864 228.96,15.648 C228.96,10.816 232.448,7.52 236.32,7.52 C241.056,7.52 243.712,10.784 243.712,15.584 C243.712,15.968 243.68,16.352 243.648,16.544 L232.064,16.544 C232.128,19.296 234.112,21.216 236.704,21.216 C239.2,21.216 240.448,19.84 241.024,18.112 Z M256.096,7.84 L256.096,11.04 C255.648,10.976 255.2,10.944 254.784,10.944 C252.256,10.944 250.56,12.288 250.56,15.68 L250.56,23.392 L247.552,23.392 L247.552,8 L250.496,8 L250.496,10.688 C251.616,8.32 253.536,7.744 255.104,7.744 C255.52,7.744 255.936,7.808 256.096,7.84 Z M257.856,19.392 L260.576,18.432 C260.768,20.032 261.984,21.312 264.16,21.312 C265.856,21.312 266.784,20.352 266.784,19.264 C266.784,18.304 266.08,17.568 264.8,17.28 L262.176,16.704 C259.776,16.192 258.336,14.56 258.336,12.384 C258.336,9.76 260.8,7.52 263.808,7.52 C268.032,7.52 269.344,10.272 269.664,11.648 L267.008,12.64 C266.88,11.84 266.24,10.08 263.808,10.08 C262.272,10.08 261.248,11.072 261.248,12.128 C261.248,13.056 261.824,13.728 263.008,13.984 L265.504,14.528 C268.288,15.136 269.76,16.832 269.76,19.104 C269.76,21.28 267.936,23.872 264.128,23.872 C259.904,23.872 258.112,21.152 257.856,19.392 Z M276.736,23.392 L273.76,23.392 L273.76,8 L276.736,8 L276.736,23.392 Z M273.088,2.176 C273.088,0.96 274.048,0 275.232,0 C276.448,0 277.408,0.96 277.408,2.176 C277.408,3.36 276.448,4.32 275.232,4.32 C274.048,4.32 273.088,3.36 273.088,2.176 Z M288.448,21.184 C291.008,21.184 293.248,19.264 293.248,15.68 C293.248,12.128 291.008,10.208 288.448,10.208 C285.888,10.208 283.648,12.128 283.648,15.68 C283.648,19.264 285.888,21.184 288.448,21.184 Z M288.448,7.52 C293.056,7.52 296.32,11.008 296.32,15.68 C296.32,20.384 293.056,23.872 288.448,23.872 C283.84,23.872 280.576,20.384 280.576,15.68 C280.576,11.008 283.84,7.52 288.448,7.52 Z M303.168,14.496 L303.168,23.392 L300.16,23.392 L300.16,8 L303.104,8 L303.104,10.208 C304.224,8.288 306.048,7.552 307.84,7.552 C311.52,7.552 313.344,10.208 313.344,13.632 L313.344,23.392 L310.336,23.392 L310.336,14.144 C310.336,12 309.44,10.272 306.752,10.272 C304.384,10.272 303.168,12.16 303.168,14.496 Z" fill="#FFFFFF"></path>
    </g>
</svg>