<?xml version="1.0" encoding="UTF-8"?>
<svg width="155px" height="170px" viewBox="0 0 155 170" version="1.1" xmlns="http://www.w3.org/2000/svg" xmlns:xlink="http://www.w3.org/1999/xlink">
    <!-- Generator: Sketch 61.2 (89653) - https://sketch.com -->
    <title>Group</title>
    <desc>Created with Sketch.</desc>
    <defs>
        <path d="M31.3929835,0.0256767296 C48.7308495,0.0256767296 62.785967,14.1138573 62.785967,31.4925088 C62.785967,40.4065585 59.0880902,48.454891 53.1460814,54.180342 C46.9653834,49.7329314 39.3867561,47.1144645 31.1980435,47.1144645 C23.1086152,47.1144645 15.6145679,49.669821 9.4753598,54.0192207 C3.62952791,48.3053631 3.97903932e-13,40.3237939 3.97903932e-13,31.4925088 C3.97903932e-13,14.1138573 14.0551175,0.0256767296 31.3929835,0.0256767296 Z" id="path-1"></path>
        <path d="M31.3929835,0.0770301887 C46.022977,0.0770301887 58.3155621,10.1082071 61.7984679,23.6830648 C48.7660761,29.6271254 39.7066008,42.7933824 39.7066008,58.0807623 C39.7066008,59.350598 39.7691083,60.6057988 39.8912071,61.8434411 C37.1894834,62.6040458 34.3386109,63.0106943 31.3929835,63.0106943 C14.0551175,63.0106943 5.47117907e-13,48.9225137 5.47117907e-13,31.5438623 C5.47117907e-13,14.1652108 14.0551175,0.0770301887 31.3929835,0.0770301887 Z" id="path-3"></path>
        <path d="M31.4414,0.201703219 C34.3667576,0.201703219 37.19866,0.602774509 39.8853628,1.35305122 C39.7670689,2.57086437 39.7066008,3.80565594 39.7066008,5.0546051 C39.7066008,20.3660512 48.7946224,33.5496908 61.8583221,39.4806916 C58.393906,53.0797509 46.0892045,63.1353674 31.4414,63.1353674 C14.1035339,63.1353674 0.0484164687,49.0471868 0.0484164687,31.6685353 C0.0484164687,14.2898838 14.1035339,0.201703219 31.4414,0.201703219 Z" id="path-5"></path>
        <path d="M31.7830916,6.8599368 C39.7444216,6.8599368 47.1290773,4.38486904 53.2131111,0.160449738 C59.2300342,5.89198555 62.9811351,13.9917792 62.9811351,22.9697503 C62.9811351,40.3484018 48.9260176,54.4365824 31.5881516,54.4365824 C14.2502856,54.4365824 0.19516811,40.3484018 0.19516811,22.9697503 C0.19516811,13.9097782 4.01510382,5.74409869 10.1286623,0.00261512815 C16.2547065,4.32332806 23.7233926,6.8599368 31.7830916,6.8599368 Z" id="path-7"></path>
        <path d="M30.6310612,-2.84217094e-14 C47.9689272,-2.84217094e-14 62.0240447,14.0881806 62.0240447,31.4668321 C62.0240447,48.8454835 47.9689272,62.9336641 30.6310612,62.9336641 C27.5331925,62.9336641 24.5401264,62.483895 21.7133118,61.6459501 C21.8231162,60.4721519 21.8791474,59.2830165 21.8791474,58.0807623 C21.8791474,42.9399227 12.9925225,29.8797359 0.162621808,23.8556271 C3.55745235,10.1548739 15.911141,-2.84217094e-14 30.6310612,-2.84217094e-14 Z" id="path-9"></path>
    </defs>
    <g id="Website" stroke="none" stroke-width="1" fill="none" fill-rule="evenodd">
        <g id="V2" transform="translate(-642.000000, -112.000000)">
            <g id="Group-9" transform="translate(418.000000, 112.000000)">
                <g id="Group" transform="translate(224.000000, 0.000000)">
                    <g id="Group-2" transform="translate(0.000000, 26.806506)">
                        <mask id="mask-2" fill="white">
                            <use xlink:href="#path-1"></use>
                        </mask>
                        <use id="Combined-Shape" fill="#8FA8DD" xlink:href="#path-1"></use>
                        <g id="fighting-copy-5" mask="url(#mask-2)" fill="#FFFFFF" opacity="0.800000012">
                            <g transform="translate(11.344743, 13.627099)" id="Path-11">
                                <path d="M40.5169396,0.18231315 C34.8177427,4.59547869 29.4800379,7.22757997 24.5038252,8.07861699 C17.0395061,9.35517251 4.77244347,11.5470962 1.54856327,17.380212 C-1.67531694,23.2133279 -0.381354625,33.7807873 10.3815981,35.9701759 C21.1445508,38.1595645 27.4869618,29.6812497 27.1507918,29.0598905 C27.0038246,28.7882439 25.3259596,29.60223 23.5742032,29.9998375 C21.3190264,30.5117096 18.8719709,30.6318324 18.6799456,29.9998375 C18.4655887,29.2943444 23.0396638,28.3454703 26.7426799,26.3260755 C28.933634,25.1312654 30.8452317,23.265073 31.2102458,21.6580288 C31.3175805,21.185467 28.3574501,23.0179697 25.1126578,24.0884661 C22.1052481,25.0806472 18.6799456,25.339572 18.6799456,24.6209337 C18.6799456,23.4361906 24.2929525,21.747702 29.3729979,19.2348107 C33.1094715,17.3865296 36.5060534,14.7593096 36.5060534,12.1659754 C36.5060534,11.8803465 33.6092923,14.033589 30.1027812,15.5412645 C25.0604192,17.7093014 18.9026536,19.3547627 18.3868322,17.5838966 C18.1621309,16.8124744 26.9928923,15.2644497 33.47652,10.1474261 C37.7989385,6.73607707 40.145745,3.41437275 40.5169396,0.18231315 Z" style="mix-blend-mode: overlay;"></path>
                            </g>
                        </g>
                    </g>
                    <g id="Group-6" transform="translate(0.000000, 80.419517)">
                        <mask id="mask-4" fill="white">
                            <use xlink:href="#path-3"></use>
                        </mask>
                        <use id="Combined-Shape" fill="#0582BC" xlink:href="#path-3"></use>
                        <g id="fighting-copy-4" mask="url(#mask-4)" fill="#FFFFFF" opacity="0.800000012">
                            <g transform="translate(13.822941, 8.530961)" id="Path-23">
                                <path d="M12.3265906,24.317217 C11.3311318,27.2894545 10.9568464,30.3246643 11.2037343,33.4228464 C11.4506223,36.5210285 13.3925039,38.9187189 17.0293792,40.6159177 C7.38639335,39.9612798 2.24339706,35.7680777 1.60039035,28.0363112 C6.53690319,26.9787463 10.1123033,25.7390483 12.3265906,24.317217 Z M17.2550234,0 C19.0478653,4.2320665 19.0478653,7.01854133 17.2550234,8.35942449 C24.7121291,8.35942449 32.6353038,14.9346486 32.6353038,24.789896 C32.6353038,34.6451433 25.4653536,39.7047593 20.9469408,39.7047593 C16.4285279,39.7047593 12.6561955,35.5422575 13.2708488,32.9696266 C17.2550234,34.4586736 23.609209,30.7563834 23.609209,26.1905867 C23.609209,21.6247901 20.1169962,19.0396917 19.6065789,18.4943763 C19.2852051,18.1510296 19.1155911,17.176684 19.097737,15.5713395 L19.0957521,15.291 L19.082516,15.5619323 C18.9873472,17.0271251 18.5339066,18.0046065 17.7221944,18.4943763 C16.8597501,19.0147568 11.0262693,20.7536045 0.2217521,23.7109196 C1.88845197,18.704187 3.22219899,15.5741345 4.22299314,14.3207623 C5.72418437,12.4407039 14.5831143,7.67561202 15.7113761,5.73611062 C16.4635507,4.44310969 16.9780998,2.53107282 17.2550234,0 Z M10.3526833,13.9575801 C10.3526833,13.0749713 9.25316053,13.6606703 7.05411502,15.7146773 L7.05411502,15.7146773 L6.32416046,19.0895615 C8.06776014,18.2601838 9.15250016,17.5994994 9.57838054,17.1075081 C10.5782945,15.9523742 10.3526833,14.4961254 10.3526833,13.9575801 Z" style="mix-blend-mode: overlay;"></path>
                            </g>
                        </g>
                    </g>
                    <g id="Group-5" transform="translate(46.189311, 106.639168)">
                        <mask id="mask-6" fill="white">
                            <use xlink:href="#path-5"></use>
                        </mask>
                        <use id="Combined-Shape" fill="#82D479" xlink:href="#path-5"></use>
                        <g id="fighting-copy-3" mask="url(#mask-6)" fill="#FFFFFF" opacity="0.800000012">
                            <g transform="translate(7.965383, 6.999099)" id="Combined-Shape">
                                <path d="M23.5708346,5.5257929 L23.571117,5.57923641 C33.7331029,14.7229902 38.8140958,21.8937362 38.8140958,27.0914744 C38.8140958,42.0700364 26.6348893,43.5469521 25.6711599,43.5469521 C25.0286736,43.5469521 24.6648171,43.0910083 24.5795904,42.1791206 L24.5795904,42.1791206 L24.3103561,33.8889264 L29.9915899,27.0914744 L24.3103561,30.5341228 L23.8679986,26.0824969 L28.2262672,21.1370021 L24.3103561,23.3654957 L23.5404281,12.8637929 L22.7721678,23.3654957 L18.8562567,21.1370021 L23.2145253,26.0824969 L22.7721678,30.5341228 L17.090934,27.0914744 L22.7721678,33.8889264 L22.5029335,42.1791206 C22.4177068,43.0910083 22.0538503,43.5469521 21.411364,43.5469521 C20.4476346,43.5469521 8.2684281,42.0700364 8.2684281,27.0914744 C8.2684281,21.8937362 13.349421,14.7229902 23.5114068,5.57923641 L23.5116893,5.5257929 C23.5217716,5.53485493 23.5318489,5.54391502 23.5419212,5.55297318 L23.5708346,5.5257929 L23.5708346,5.5257929 Z" style="mix-blend-mode: overlay;" transform="translate(23.541262, 24.536373) rotate(35.000000) translate(-23.541262, -24.536373) "></path>
                            </g>
                        </g>
                    </g>
                    <g id="Group-4" transform="translate(91.793574, 88.993629)">
                        <mask id="mask-8" fill="white">
                            <use xlink:href="#path-7"></use>
                        </mask>
                        <use id="Combined-Shape" fill="#F4BD3F" xlink:href="#path-7"></use>
                        <g id="fighting-copy-2" mask="url(#mask-8)" fill="#FFFFFF" opacity="0.800000012">
                            <g transform="translate(16.075848, 5.052987)" id="Path-3">
                                <polygon style="mix-blend-mode: overlay;" points="4.65914876 0 19.0481825 0 26.0145882 22.3590465 14.5988322 22.3590465 19.901704 40.6159177 0.0837468038 14.5478334 9.60474979 14.5478334"></polygon>
                            </g>
                        </g>
                    </g>
                    <g id="Group-7" transform="translate(92.829204, 26.806506)">
                        <path d="M30.5525221,0.0256767296 C47.8903881,0.0256767296 61.9455056,14.1138573 61.9455056,31.4925088 C61.9455056,48.8711603 47.8903881,62.9593409 30.5525221,62.9593409 C15.7657483,62.9593409 3.36674829,52.7120164 0.0381085695,38.915674 C13.1284255,32.9953917 22.2389048,19.7981036 22.2389048,4.46775094 C22.2389048,3.36025904 22.1913583,2.26389934 22.0982001,1.18061116 C24.7868528,0.42793991 27.6228209,0.0256767296 30.5525221,0.0256767296 Z" id="Combined-Shape" fill="#F29758"></path>
                        <g id="fighting-copy" transform="translate(15.040218, 11.597921)" fill="#FFFFFF" opacity="0.800000012">
                            <path d="M14.5077727,-0.225464191 C17.6422356,2.11119899 19.209467,4.56751895 19.209467,7.14349569 C19.209467,11.0074608 15.682992,11.0105853 15.682992,14.2652729 C15.682992,17.5199605 17.0855594,18.722893 19.209467,18.722893 C23.5346328,18.722893 25.3038479,16.4862439 24.5171124,12.0129458 L24.5173427,12.0129053 C24.4979531,11.9026581 24.5716078,11.7975667 24.681855,11.7781771 C24.7436451,11.7673099 24.8069848,11.7856699 24.8533846,11.8278977 C28.2048144,14.8779893 29.8805293,19.0915239 29.8805293,24.4685015 C29.8805293,29.9358319 26.5048916,33.1460071 19.7536163,34.0990271 L19.7536267,34.0991009 C19.6426177,34.114771 19.539924,34.0374837 19.5242538,33.9264747 C19.5163729,33.8706458 19.532067,33.8140543 19.5675761,33.7702585 C20.614293,32.4792713 21.1376514,30.6415623 21.1376514,28.2571315 C21.1376514,24.9878629 18.3845057,23.2350871 15.294431,23.2350871 C12.2043564,23.2350871 9.54572203,25.2819131 9.54572203,28.9597968 C9.54572203,32.6376806 12.4359239,36.7356361 17.9763419,36.7356361 C21.3629945,36.7356361 24.3175506,35.7058515 26.8400102,33.6462822 L26.8400933,33.6463841 C26.9268451,33.5755519 27.054592,33.5884573 27.1254242,33.675209 C27.1749044,33.73581 27.1851107,33.8194692 27.1516514,33.8901886 C24.9845228,38.4706264 21.1616363,40.6373813 15.682992,40.3904535 C-1.95066734,39.5956872 -1.41215232,20.0824946 2.33681587,15.6848374 C2.39581784,15.6156263 0.799731974,23.1603775 3.87908677,25.2631661 C2.92640598,18.252135 4.61806276,15.2029701 7.0818924,12.6915664 C9.54572203,10.1801626 13.743827,8.02861048 14.7134095,5.17964581 C15.3597978,3.28033603 15.2912522,1.47863269 14.5077727,-0.225464191 Z" id="Path-24" style="mix-blend-mode: overlay;"></path>
                        </g>
                    </g>
                    <g id="Group-3" transform="translate(46.999650, 0.000000)">
                        <mask id="mask-10" fill="white">
                            <use xlink:href="#path-9"></use>
                        </mask>
                        <use id="Combined-Shape" fill="#D75C75" xlink:href="#path-9"></use>
                        <g id="fighting" mask="url(#mask-10)" fill="#FFFFFF" opacity="0.800000012">
                            <g transform="translate(12.111439, 11.372457)" id="Rectangle-2">
                                <path d="M10.9832164,15.6415823 C10.9832164,16.6485423 11.7995187,17.4648446 12.8064787,17.4648446 C13.8134386,17.4648446 14.629741,16.6485423 14.629741,15.6415823 L14.629741,15.6415823 L14.629741,5.88882264 C14.629741,5.55261745 14.9022891,5.2800693 15.2384943,5.2800693 L19.2881898,5.2800693 C19.624395,5.2800693 19.8969431,5.55261745 19.8969431,5.88882264 L19.8969431,15.6415823 C19.8969431,16.6485423 20.7132454,17.4648446 21.7202054,17.4648446 C22.7271653,17.4648446 23.5434677,16.6485423 23.5434677,15.6415823 L23.5434677,15.6415823 L23.5434677,5.88882264 C23.5434677,5.55261745 23.8160158,5.2800693 24.152221,5.2800693 L27.7967471,5.2800693 C28.1329523,5.2800693 28.4055004,5.55261745 28.4055004,5.88882264 L28.4055004,15.6415823 C28.4055004,16.6485423 29.2218028,17.4648446 30.2287627,17.4648446 C31.2357227,17.4648446 32.052025,16.6485423 32.052025,15.6415823 L32.052025,15.6415823 L32.052025,5.88882264 C32.052025,5.55261745 32.3245731,5.2800693 32.6607783,5.2800693 L33.4691186,5.2800693 C33.5124999,5.2800693 33.5548214,5.28460704 33.5956343,5.29323376 C35.6804417,5.46394312 37.3192271,7.20980459 37.3192271,9.33842489 L37.3192271,31.2774928 C37.3192271,33.5188607 35.5022394,35.3358484 33.2608715,35.3358484 L9.77436984,35.3358484 C7.53300194,35.3358484 5.71601425,33.5188607 5.71601425,31.2774928 L5.71601425,9.33842489 C5.71601425,7.20980459 7.35479966,5.46394312 9.43952586,5.29368512 C9.48041997,5.28460704 9.52274144,5.2800693 9.56612275,5.2800693 L10.3744631,5.2800693 C10.7106682,5.2800693 10.9832164,5.55261745 10.9832164,5.88882264 Z M3.48565027,15.3647875 C3.61211566,15.4370299 3.69016727,15.571505 3.69016727,15.71715 L3.69016727,30.4619382 C1.25915089,26.369854 0.0436427006,23.6621262 0.0436427006,22.3387547 C0.0436427006,21.1609706 1.00641972,18.8866686 2.93197376,15.5158487 C3.04316978,15.3212613 3.29104586,15.2536213 3.48565027,15.3647875 Z" style="mix-blend-mode: overlay;"></path>
                            </g>
                        </g>
                    </g>
                </g>
            </g>
        </g>
    </g>
</svg>