<?xml version="1.0" encoding="UTF-8"?>
<svg width="155px" height="169px" viewBox="0 0 155 169" version="1.1" xmlns="http://www.w3.org/2000/svg" xmlns:xlink="http://www.w3.org/1999/xlink">
    <!-- Generator: Sketch 52.5 (67469) - http://www.bohemiancoding.com/sketch -->
    <title>logo</title>
    <desc>Created with Sketch.</desc>
    <defs>
        <linearGradient x1="50%" y1="8.60856525e-15%" x2="50%" y2="99.8148483%" id="linearGradient-1">
            <stop stop-color="#8FA8DD" offset="0%"></stop>
            <stop stop-color="#A5BFEE" offset="100%"></stop>
        </linearGradient>
        <path d="M9.44704492,53.5599921 C3.61882186,47.8937676 3.97903932e-13,39.9803213 3.97903932e-13,31.2244353 C3.97903932e-13,13.993716 14.014378,0.0254581617 31.3019893,0.0254581617 C48.5896007,0.0254581617 62.6039787,13.993716 62.6039787,31.2244353 C62.6039787,40.0625403 58.9168752,48.0423101 52.992167,53.7190164 C46.8292963,49.3096054 39.2726157,46.7134123 31.1076144,46.7134123 C23.0412603,46.7134123 15.5686165,49.2472514 9.44704492,53.5599921 Z" id="path-2"></path>
        <linearGradient x1="50%" y1="8.60856525e-15%" x2="50%" y2="99.8148483%" id="linearGradient-4">
            <stop stop-color="#0969C1" offset="0%"></stop>
            <stop stop-color="#0582BC" offset="100%"></stop>
        </linearGradient>
        <path d="M61.6190782,23.4804456 C48.625396,29.3739611 39.5915092,42.4285497 39.5915092,57.5863617 C39.5915092,58.8456191 39.6538584,60.0903607 39.7756474,61.3176864 C37.0806409,62.0712902 34.2385379,62.4743288 31.3019893,62.4743288 C14.014378,62.4743288 5.47117907e-13,48.5060709 5.47117907e-13,31.2753516 C5.47117907e-13,14.0446323 14.014378,0.0763744851 31.3019893,0.0763744851 C45.8892079,0.0763744851 58.145911,10.0216596 61.6190782,23.4804456 Z" id="path-5"></path>
        <linearGradient x1="50%" y1="8.60856525e-15%" x2="50%" y2="98.4107512%" id="linearGradient-7">
            <stop stop-color="#62BA56" offset="0%"></stop>
            <stop stop-color="#5AC37D" offset="100%"></stop>
        </linearGradient>
        <path d="M39.7696209,1.56504195 C39.651802,2.77252703 39.5915092,3.99680688 39.5915092,5.23512379 C39.5915092,20.4165817 48.6536034,33.4882492 61.6799168,39.368569 C58.2238296,52.8521307 45.9551254,62.8214855 31.3502655,62.8214855 C14.0626541,62.8214855 0.0482761311,48.8532277 0.0482761311,31.6225084 C0.0482761311,14.3917891 14.0626541,0.423531235 31.3502655,0.423531235 C34.2670959,0.423531235 37.090745,0.82117542 39.7696209,1.56504195 Z" id="path-8"></path>
        <linearGradient x1="50%" y1="0%" x2="50%" y2="100%" id="linearGradient-10">
            <stop stop-color="#F4D23F" offset="0%"></stop>
            <stop stop-color="#FAE277" offset="100%"></stop>
        </linearGradient>
        <path d="M10.3234517,0.45014033 C16.432247,4.73362259 23.8792764,7.24863295 31.9156044,7.24863295 C39.8542038,7.24863295 47.2177504,4.79441991 53.2843005,0.605626576 C59.2833347,6.28965995 63.0232188,14.3201764 63.0232188,23.221315 C63.0232188,40.4520343 49.0088408,54.4202922 31.7212294,54.4202922 C14.4336181,54.4202922 0.419240086,40.4520343 0.419240086,23.221315 C0.419240086,14.2387047 4.22789945,6.14272697 10.3234517,0.45014033 Z" id="path-11"></path>
        <linearGradient x1="50%" y1="8.60856525e-15%" x2="50%" y2="98.2372111%" id="linearGradient-13">
            <stop stop-color="#FF9C55" offset="0%"></stop>
            <stop stop-color="#FFB14F" offset="100%"></stop>
        </linearGradient>
        <linearGradient x1="50%" y1="3.768299%" x2="50%" y2="99.8148483%" id="linearGradient-14">
            <stop stop-color="#CE406A" offset="0%"></stop>
            <stop stop-color="#E2444B" offset="100%"></stop>
        </linearGradient>
        <path d="M21.6505615,61.1212567 C21.7598507,59.9576082 21.8157296,58.7784897 21.8157296,57.5863617 C21.8157296,42.5744088 12.9548671,29.6253967 0.162159176,23.652565 C3.54781619,10.0678807 15.865424,-2.84217094e-14 30.5422755,-2.84217094e-14 C47.8298868,-2.84217094e-14 61.8442648,13.9682579 61.8442648,31.1989771 C61.8442648,48.4296964 47.8298868,62.3979543 30.5422755,62.3979543 C27.453452,62.3979543 24.4691229,61.9520328 21.650555,61.1212548 Z" id="path-15"></path>
    </defs>
    <g id="Promo-Website" stroke="none" stroke-width="1" fill="none" fill-rule="evenodd">
        <g id="Desktop-HD-Copy" transform="translate(-643.000000, -49.000000)">
            <g id="logo" transform="translate(643.000000, 49.000000)">
                <g id="Group-2" transform="translate(0.000000, 26.578321)">
                    <mask id="mask-3" fill="white">
                        <use xlink:href="#path-2"></use>
                    </mask>
                    <use id="Combined-Shape" fill="url(#linearGradient-1)" xlink:href="#path-2"></use>
                    <g id="flying" mask="url(#mask-3)" fill="#FFFFFF">
                        <g transform="translate(11.311860, 11.275651)" id="Path-11">
                            <path d="M40.3199985,2.41919991 C34.6485038,6.80021204 29.336744,9.41313638 24.3847192,10.2579729 C16.956682,11.5252277 4.74924601,13.7011815 1.54103615,19.4917985 C-1.66717371,25.2824155 -0.379500971,35.7728825 10.3311362,37.9463197 C21.0417733,40.1197569 27.3533557,31.7032133 27.0188197,31.0863812 C26.8725668,30.8167138 25.2028575,31.6247693 23.4596159,32.0194799 C21.2154008,32.5276226 18.7802397,32.6468703 18.5891478,32.0194799 C18.3758328,31.3191269 22.9276747,30.3771661 26.6126915,28.3724843 C28.792996,27.1863792 30.695302,25.3337836 31.0585418,23.7384479 C31.1653548,23.2693291 28.2196128,25.0884807 24.9905925,26.1511776 C21.9978009,27.1361298 18.5891478,27.3931682 18.5891478,26.6797658 C18.5891478,25.5036544 24.1748715,23.8274678 29.2302243,21.3328849 C32.9485359,19.49807 36.328608,16.8899914 36.328608,14.3155517 C36.328608,14.0320038 33.4459273,16.1695582 29.9564603,17.6662491 C24.9386078,19.8184902 18.8107732,21.451963 18.2974592,19.693999 C18.07385,18.9281972 26.8616876,17.3914511 33.3138003,12.3117091 C37.6152088,8.92521446 39.9506082,5.62771139 40.3199985,2.41919991 Z"></path>
                        </g>
                    </g>
                </g>
                <g id="Group-6" transform="translate(0.000000, 79.734962)">
                    <mask id="mask-6" fill="white">
                        <use xlink:href="#path-5"></use>
                    </mask>
                    <use id="Combined-Shape" fill="url(#linearGradient-4)" xlink:href="#path-5"></use>
                    <g id="dragon" mask="url(#mask-6)" fill="#FFFFFF">
                        <g transform="translate(9.964034, 8.458343)" id="Path-23">
                            <path d="M4.03199985,23.5381667 C5.69059838,18.5679121 7.01786243,15.4606646 8.01379202,14.2164242 C9.5076864,12.3500635 18.3235556,7.61968911 19.4463333,5.69431851 C20.1948518,4.41073811 20.7068998,2.51263194 20.9824774,0 C22.7666048,4.20123254 22.7666048,6.96740569 20.9824774,8.29851946 C28.4033362,8.29851946 36.2879987,14.8258379 36.2879987,24.6092819 C36.2879987,34.392726 29.1528996,39.4154787 24.6564494,39.4154787 C20.1599993,39.4154787 16.406003,35.283304 17.0176687,32.7294167 C20.9824774,34.2076149 27.3057771,30.5322987 27.3057771,25.9997676 C27.3057771,21.4672364 23.830539,18.9009725 23.3226027,18.3596301 C22.9839785,17.9987353 22.8146664,16.935577 22.8146664,15.1701555 C22.7613927,16.7798828 22.3056297,17.843041 21.4473775,18.3596301 C20.5891253,18.8762192 14.7839995,20.6023981 4.03199985,23.5381667 Z M10.1047462,18.9504789 C11.8398707,18.1271439 12.9193381,17.4712731 13.3431484,16.9828664 C14.3382021,15.8361485 14.1136875,14.3905097 14.1136875,13.855888 C14.1136875,12.9797097 13.0195092,13.5611415 10.8311526,15.6001834 L10.1047462,18.9504789 Z M20.75793,40.3199985 C11.1618159,39.6701303 6.04381818,35.5074789 5.40393694,27.8320445 C10.3164548,26.7821848 13.8744759,25.5515189 16.0780002,24.1400468 C15.0873801,27.0906292 14.714914,30.103725 14.9606019,33.1793344 C15.2062897,36.2549438 17.1387324,38.6351652 20.75793,40.3199985 Z"></path>
                        </g>
                    </g>
                </g>
                <g id="Group-5" transform="translate(46.055429, 105.507880)">
                    <mask id="mask-9" fill="white">
                        <use xlink:href="#path-8"></use>
                    </mask>
                    <use id="Combined-Shape" fill="url(#linearGradient-7)" xlink:href="#path-8"></use>
                    <g id="grass" mask="url(#mask-9)" fill="#FFFFFF">
                        <g transform="translate(11.985773, 15.434230)" id="Combined-Shape">
                            <path d="M19.5803993,-2.79575572 C19.5902998,-2.80463526 19.6002051,-2.81351665 19.6101151,-2.8223999 L19.6101151,-2.76910656 C29.8215042,6.39431575 34.9271987,13.5804683 34.9271987,18.7893607 C34.9271987,33.7999272 22.6890089,35.2799987 21.7206122,35.2799987 C21.0750144,35.2799987 20.7093958,34.8230806 20.6237563,33.9092445 L20.3532181,25.6013368 L26.0619658,18.7893607 L20.3532181,22.239365 L19.9087183,17.7782274 L24.2880938,12.8221656 L20.3532181,15.0554208 L19.5803993,4.53264501 L18.8075804,15.0554208 L14.8727047,12.8221656 L19.2520802,17.7782274 L18.8075804,22.239365 L13.0988327,18.7893607 L18.8075804,25.6013368 L18.5370423,33.9092445 C18.4514028,34.8230806 18.0857842,35.2799987 17.4401864,35.2799987 C16.4717897,35.2799987 4.23359984,33.7999272 4.23359984,18.7893607 C4.23359984,13.5804683 9.33929437,6.39431575 19.5506834,-2.76909689 L19.5506834,-2.8223999 C19.5605935,-2.81351665 19.5704988,-2.80463526 19.5803993,-2.79575572 Z" transform="translate(19.580399, 16.228799) rotate(35.000000) translate(-19.580399, -16.228799) "></path>
                        </g>
                    </g>
                </g>
                <g id="Group-4" transform="translate(91.302868, 87.788999)">
                    <mask id="mask-12" fill="white">
                        <use xlink:href="#path-11"></use>
                    </mask>
                    <use id="Combined-Shape" fill="url(#linearGradient-10)" xlink:href="#path-11"></use>
                    <g id="electric" mask="url(#mask-12)" fill="#FFFFFF">
                        <g transform="translate(11.311860, 3.221615)" id="Path-3">
                            <polygon points="11.810762 0 26.1298548 0 33.0623988 22.1961431 21.7021315 22.1961431 26.9792275 40.3199985 7.25759973 14.4418409 16.7323239 14.4418409"></polygon>
                        </g>
                    </g>
                </g>
                <g id="Group-7" transform="translate(92.110858, 26.578321)">
                    <path d="M0.487360483,38.584771 C13.5393809,32.7149093 22.6237196,19.6297994 22.6237196,4.42972013 C22.6237196,3.33142733 22.5762912,2.24417656 22.4833648,1.16989183 C25.1653646,0.424144505 27.9925892,0.0254581617 30.9132394,0.0254581617 C48.2008508,0.0254581617 62.2152288,13.993716 62.2152288,31.2244353 C62.2152288,48.4551546 48.2008508,62.4234125 30.9132394,62.4234125 C16.1694546,62.4234125 3.80648103,52.2634938 0.487360483,38.584771 Z" id="Combined-Shape" fill="url(#linearGradient-13)"></path>
                    <g id="fire" transform="translate(10.503870, 11.275651)" fill="#FFFFFF">
                        <path d="M19.8363269,0.357168047 C22.644375,2.56960095 24.0483991,4.88896865 24.0483991,7.31527117 C24.0483991,11.1510842 20.5390653,11.154186 20.5390653,14.3851606 C20.5390653,17.6161352 21.9348152,18.8103034 24.0483991,18.8103034 C28.3525415,18.8103034 30.113157,16.5899501 29.3302456,12.1492434 L29.3302684,12.1492394 C29.3109391,12.0396025 29.3841478,11.9350547 29.4937847,11.9157253 C29.5551735,11.9049023 29.6181161,11.9230897 29.664271,11.9649877 C32.9998186,14.992901 34.6675925,19.1759219 34.6675925,24.5140506 C34.6675925,29.9415472 31.3083628,33.1283337 24.5899035,34.0744101 L24.5899302,34.0746001 C24.4795724,34.0901404 24.3775119,34.0132757 24.3619716,33.9029179 C24.3541488,33.8473654 24.3698054,33.7910638 24.4051838,33.7475248 C25.4465354,32.4659696 25.9672112,30.6418205 25.9672112,28.2750774 C25.9672112,25.029628 23.2274477,23.2896226 20.152393,23.2896226 C17.0773383,23.2896226 14.4316268,25.3215358 14.4316268,28.9726233 C14.4316268,32.6237107 17.3077802,36.6918093 22.8212679,36.6918093 C26.1918179,36.6918093 29.1322801,35.6693098 31.6426545,33.6243106 L31.6427181,33.6243888 C31.7289984,33.5541032 31.85592,33.5670695 31.9262055,33.6533497 C31.9752951,33.7136105 31.985349,33.7967323 31.9520425,33.8669592 C29.7954588,38.4141166 25.991133,40.5651297 20.5390653,40.3199985 C2.99111804,39.5310228 3.52701549,20.1599993 7.25776103,15.7943825 C7.31647621,15.7256756 5.72814846,23.2154573 8.7925354,25.3029254 C7.84448531,18.3429753 9.52791944,15.3160259 11.9797731,12.8229197 C14.4316268,10.3298136 18.609326,8.1939372 19.5741956,5.36572949 C20.1531174,3.66880487 20.1557575,2.05036545 19.582116,0.510411236 L19.6721695,0.476865784 C19.6518301,0.422264221 19.6796051,0.361512577 19.7342067,0.34117319 C19.7687059,0.328322037 19.8074091,0.334384032 19.8363269,0.357168047 Z" id="Path-24"></path>
                    </g>
                </g>
                <g id="Group-3" transform="translate(46.863419, 0.000000)">
                    <mask id="mask-16" fill="white">
                        <use xlink:href="#path-15"></use>
                    </mask>
                    <use id="Combined-Shape" fill="url(#linearGradient-14)" xlink:href="#path-15"></use>
                    <g id="fighting" mask="url(#mask-16)" fill="#FFFFFF">
                        <g transform="translate(10.503870, 11.275651)" id="Rectangle-2">
                            <path d="M10.9622063,5.25469978 C11.0027847,5.24611544 11.0448648,5.24159981 11.0879996,5.24159981 L11.8943996,5.24159981 C12.2284214,5.24159981 12.4991995,5.51237798 12.4991995,5.84639978 L12.4991995,6.45119976 L12.4991995,15.5231994 C12.4991995,16.5252648 13.3115341,17.3375994 14.3135995,17.3375994 C15.3156649,17.3375994 16.1279994,16.5252648 16.1279994,15.5231994 L16.1279994,6.45119976 L16.1279994,5.84639978 C16.1279994,5.51237798 16.3987776,5.24159981 16.7327994,5.24159981 L16.1279994,5.24159981 L21.3695992,5.24159981 L20.7647992,5.24159981 C21.098821,5.24159981 21.3695992,5.51237798 21.3695992,5.84639978 L21.3695992,6.45119976 L21.3695992,15.5231994 C21.3695992,16.5252648 22.1819337,17.3375994 23.1839991,17.3375994 C24.1860646,17.3375994 24.9983991,16.5252648 24.9983991,15.5231994 L24.9983991,6.45119976 L24.9983991,5.84639978 C24.9983991,5.51237798 25.2691773,5.24159981 25.6031991,5.24159981 L24.9983991,5.24159981 L29.8367989,5.24159981 L29.2319989,5.24159981 C29.5660207,5.24159981 29.8367989,5.51237798 29.8367989,5.84639978 L29.8367989,6.45119976 L29.8367989,15.5231994 C29.8367989,16.5252648 30.6491334,17.3375994 31.6511988,17.3375994 C32.6532642,17.3375994 33.4655988,16.5252648 33.4655988,15.5231994 L33.4655988,6.45119976 L33.4655988,5.84639978 C33.4655988,5.51237798 33.7363769,5.24159981 34.0703987,5.24159981 L34.8767987,5.24159981 C34.9199335,5.24159981 34.9620136,5.24611544 35.002592,5.25469978 C37.0762901,5.42133465 38.7071986,7.15700761 38.7071986,9.27359966 L38.7071986,31.0463989 C38.7071986,33.2732109 36.9020107,35.0783987 34.6751987,35.0783987 L11.2895996,35.0783987 C9.06278755,35.0783987 7.25759973,33.2732109 7.25759973,31.0463989 L7.25759973,9.27359966 C7.25759973,7.15700761 8.88850824,5.42133465 10.9622063,5.25469978 Z M1.61279994,22.1759992 C1.61279994,21.0065075 2.57137032,18.7479494 4.48851109,15.4003248 C4.59917343,15.2070854 4.84553538,15.1401466 5.03877337,15.2508115 C5.16421463,15.32265 5.24159981,15.4561443 5.24159981,15.6006998 L5.24159981,30.2399989 C2.8223999,26.1777288 1.61279994,23.4897289 1.61279994,22.1759992 Z"></path>
                        </g>
                    </g>
                </g>
            </g>
        </g>
    </g>
</svg>